{
.appVersion = "1342";
copyright = "Copyright 2020 FKxGF Schoolbook Project Authors (https://github.com/floriankarsten/fk-gf-schoolbook)";
customParameters = (
{
name = vendorID;
value = FK;
},
{
name = licenseURL;
value = "https://scripts.sil.org/OFL";
},
{
name = license;
value = "This Font Software is licensed under the SIL Open Font License, Version 1.1. This license is available with a FAQ at: https://scripts.sil.org/OFL";
},
{
name = Axes;
value = (
{
Hidden = 1;
Name = Weight;
Tag = wght;
},
{
Name = Extravaganza;
Tag = extr;
}
);
},
{
name = "Use Typo Metrics";
value = 1;
}
);
date = "2020-08-19 14:36:15 +0000";
designer = "Florian Karsten";
designerURL = "https://fonts.floriankarsten.com";
familyName = "FKxGF Schoolbook";
featurePrefixes = (
{
automatic = 1;
code = "languagesystem DFLT dflt;\012";
name = Languagesystems;
}
);
features = (
{
automatic = 1;
code = "lookup ccmp_Other_1 {\012	@CombiningTopAccents = [dotaccentcomb];\012	sub [i j]' @CombiningTopAccents by [idotless jdotless];\012} ccmp_Other_1;\012";
name = ccmp;
}
);
fontMaster = (
{
alignmentZones = (
"{1530, 16}",
"{1440, 16}",
"{1100, 16}",
"{0, -16}",
"{-380, -20}"
);
ascender = 1530;
capHeight = 1440;
custom = "W100 E0";
customParameters = (
{
name = typoAscender;
value = 1800;
},
{
name = hheaAscender;
value = 1800;
},
{
name = typoDescender;
value = -600;
},
{
name = hheaDescender;
value = -600;
},
{
name = typoLineGap;
value = 0;
},
{
name = hheaLineGap;
value = 0;
},
{
name = winAscent;
value = 1800;
},
{
name = winDescent;
value = 600;
}
);
descender = -400;
horizontalStems = (
40
);
iconName = Light_Condensed;
id = "CA54B7DC-FBBB-40FE-ACF3-AABDD76D6A7B";
verticalStems = (
50,
48
);
widthValue = 0;
xHeight = 1100;
},
{
alignmentZones = (
"{1480, 16}",
"{1440, 16}",
"{1080, 16}",
"{0, -16}",
"{-380, -20}"
);
ascender = 1480;
capHeight = 1440;
custom = "W100 E100";
customParameters = (
{
name = typoAscender;
value = 1800;
},
{
name = hheaAscender;
value = 1800;
},
{

glyphs = (
{
glyphname = A;
lastChange = "2020-08-20 10:34:43 +0000";
layers = (
{
hints = (
{
origin = "{0, 0}";
scale = "{-1.1, 1}";
type = Corner;
name = _corner.Serif;
options = 1;
},
{
origin = "{0, 3}";
scale = "{1.1, 1}";
type = Corner;
name = _corner.Serif;
},
{
origin = "{0, 4}";
scale = "{-0.64, 1}";
type = Corner;
name = _corner.Serif;
options = 1;
},
{
origin = "{0, 7}";
scale = "{0.64, 1}";
type = Corner;
name = _corner.Serif;
}
);
layerId = "CA54B7DC-FBBB-40FE-ACF3-AABDD76D6A7B";
paths = (
{
closed = 1;
nodes = (
"237 0 LINE",
"796 1393 LINE",
"783 1393 LINE",
"1342 0 LINE",
"1394 0 LINE",
"814 1440 LINE",
"770 1440 LINE",
"190 0 LINE"
);
},
{
closed = 1;
nodes = (
"1160 530 LINE",
"424 530 LINE",
"424 488 LINE",
"1160 488 LINE"
);
}
);
width = 1584;
},
{
hints = (
{
origin = "{0, 7}";
scale = "{0.64, 1}";
type = Corner;
name = _corner.Serif;
},
{
origin = "{0, 0}";
scale = "{-1.2, 1}";
type = Corner;
name = _corner.Serif;
options = 1;
},
{
origin = "{0, 3}";
scale = "{1.2, 1}";
type = Corner;
name = _corner.Serif;
},
{
origin = "{0, 4}";
scale = "{-0.64, 1}";
type = Corner;
name = _corner.Serif;
options = 1;
}
);
layerId = "1E61A082-F045-49A7-AB52-DD1B03FD9B54";
paths = (
{
closed = 1;
nodes = (
"241 0 LINE",
"800 1393 LINE",
"787 1393 LINE",
"1346 0 LINE",
"1398 0 LINE",
"818 1440 LINE",
"776 1440 LINE",
"196 0 LINE"
);
},
{
closed = 1;
nodes = (
"1164 530 LINE",
"428 530 LINE",
"428 490 LINE",
"1164 490 LINE"
);
}
);
width = 1592;
},
{
hints = (
{
origin = "{0, 7}";
scale = "{0.5, 1}";
type = Corner;
name = _corner.Serif;
},
{
origin = "{0, 0}";
scale = "{-1.5, 1}";
type = Corner;
name = _corner.Serif;
options = 1;
},
{
origin = "{0, 3}";
scale = "{1.5, 1}";
type = Corner;
name = _corner.Serif;
},
{
origin = "{0, 4}";
scale = "{-0.5, 1}";
type = Corner;
name = _corner.Serif;
options = 1;
}
);
layerId = "642E5713-E15A-4A7E-A28E-9A6B75A6585C";
paths = (
{
closed = 1;
nodes = (
"323 0 LINE",
"834 1273 LINE",
"729 1274 LINE",
"1227 0 LINE",
"1542 0 LINE",
"962 1440 LINE",
"720 1440 LINE",
"140 0 LINE"
);
},
{
closed = 1;
nodes = (
"1114 584 LINE",
"448 584 LINE",
"448 430 LINE",
"1114 430 LINE"
);
}
);
width = 1680;
},
{
hints = (
{
origin = "{0, 0}";
scale = "{-1.4, 1}";
type = Corner;
name = _corner.Serif;
options = 1;
},
{
origin = "{0, 3}";
scale = "{1.4, 1}";
type = Corner;
name = _corner.Serif;
},
{
origin = "{0, 4}";
scale = "{-0.5, 1}";
type = Corner;
name = _corner.Serif;
options = 1;
},
{
origin = "{0, 7}";
scale = "{0.5, 1}";
type = Corner;
name = _corner.Serif;
}
);
layerId = "AF891779-7DE6-4679-9CA2-17B922C1DF84";
paths = (
{
closed = 1;
nodes = (
"345 0 LINE",
"855 1273 LINE",
"736 1274 LINE",
"1234 0 LINE",
"1549 0 LINE",
"969 1440 LINE",
"714 1440 LINE",
"134 0 LINE"
);
},
{
closed = 1;
nodes = (
"1089 606 LINE",
"473 606 LINE",
"473 428 LINE",
"1089 428 LINE"
);
}
);
width = 1683;
}
);
leftKerningGroup = A;
rightKerningGroup = A;
unicode = 0041;
},
{
glyphname = B;
lastChange = "2020-08-20 10:48:58 +0000";
layers = (
{
hints = (
{
origin = "{2, 1}";
scale = "{-0.96, 1}";
type = Corner;
name = _corner.Serif;
},
{
origin = "{2, 2}";
type = Corner;
name = _corner.Serif;
options = 1;
}
);
layerId = "CA54B7DC-FBBB-40FE-ACF3-AABDD76D6A7B";
paths = (
{
closed = 1;
nodes = (
"402 1398 LINE",
"898 1398 LINE SMOOTH",
"1146 1398 OFFCURVE",
"1302 1290 OFFCURVE",
"1302 1076 CURVE SMOOTH",
"1302 862 OFFCURVE",
"1146 754 OFFCURVE",
"898 754 CURVE SMOOTH",
"402 754 LINE",
"402 720 LINE",
"910 720 LINE SMOOTH",
"1174 720 OFFCURVE",
"1350 842 OFFCURVE",
"1350 1076 CURVE SMOOTH",
"1350 1316 OFFCURVE",
"1174 1440 OFFCURVE",
"910 1440 CURVE SMOOTH",
"402 1440 LINE"
);
},
{
closed = 1;
nodes = (
"402 712 LINE",
"922 712 LINE SMOOTH",
"1178 712 OFFCURVE",
"1338 599 OFFCURVE",
"1338 377 CURVE SMOOTH",
"1338 155 OFFCURVE",
"1178 42 OFFCURVE",
"922 42 CURVE SMOOTH",
"402 42 LINE",
"402 0 LINE",
"934 0 LINE SMOOTH",
"1206 0 OFFCURVE",
"1386 128 OFFCURVE",
"1386 376 CURVE SMOOTH",
"1386 618 OFFCURVE",
"1206 746 OFFCURVE",
"934 746 CURVE SMOOTH",
"402 746 LINE"
);
},
{
closed = 1;
nodes = (
"402 1440 LINE",
"354 1440 LINE",
"354 0 LINE",
"402 0 LINE"
);
}
);
width = 1538;
},
{
hints = (
{
origin = "{2, 1}";
scale = "{-0.96, 1}";
type = Corner;
name = _corner.Serif;
},
{
origin = "{2, 2}";
type = Corner;
name = _corner.Serif;
options = 1;
}
);
layerId = "1E61A082-F045-49A7-AB52-DD1B03FD9B54";
paths = (
{
closed = 1;
nodes = (
"340 1400 LINE",
"836 1400 LINE SMOOTH",
"1084 1400 OFFCURVE",
"1240 1290 OFFCURVE",
"1240 1076 CURVE SMOOTH",
"1240 862 OFFCURVE",
"1084 752 OFFCURVE",
"836 752 CURVE SMOOTH",
"340 752 LINE",
"340 720 LINE",
"848 720 LINE SMOOTH",
"1112 720 OFFCURVE",
"1288 842 OFFCURVE",
"1288 1076 CURVE SMOOTH",
"1288 1316 OFFCURVE",
"1112 1440 OFFCURVE",
"848 1440 CURVE SMOOTH",
"340 1440 LINE"
);
},
{
closed = 1;
nodes = (
"340 712 LINE",
"860 712 LINE SMOOTH",
"1116 712 OFFCURVE",
"1276 598 OFFCURVE",
"1276 376 CURVE SMOOTH",
"1276 154 OFFCURVE",
"1116 40 OFFCURVE",
"860 40 CURVE SMOOTH",
"340 40 LINE",
"340 0 LINE",
"872 0 LINE SMOOTH",
"1144 0 OFFCURVE",
"1324 128 OFFCURVE",
"1324 376 CURVE SMOOTH",
"1324 618 OFFCURVE",
"1144 746 OFFCURVE",
"872 746 CURVE SMOOTH",
"340 746 LINE"
);
},
{
closed = 1;
nodes = (
"340 1440 LINE",
"292 1440 LINE",
"292 0 LINE",
"340 0 LINE"
);
}
);
width = 1422;
},
{
hints = (
{
origin = "{2, 1}";
scale = "{-0.96, 0.99}";
type = Corner;
name = _corner.Serif;
},
{
origin = "{2, 2}";
type = Corner;
name = _corner.Serif;
options = 1;
}
);
layerId = "642E5713-E15A-4A7E-A28E-9A6B75A6585C";
paths = (
{
closed = 1;
nodes = (
"560 1282 LINE",
"856 1282 LINE SMOOTH",
"1024 1282 OFFCURVE",
"1128 1201 OFFCURVE",
"1128 1044 CURVE SMOOTH",
"1128 887 OFFCURVE",
"1024 806 OFFCURVE",
"856 806 CURVE SMOOTH",
"560 806 LINE",
"560 718 LINE",
"922 718 LINE SMOOTH",
"1225 718 OFFCURVE",
"1426 836 OFFCURVE",
"1426 1078 CURVE SMOOTH",
"1426 1320 OFFCURVE",
"1225 1440 OFFCURVE",
"922 1440 CURVE SMOOTH",
"560 1440 LINE"
);
},
{
closed = 1;
nodes = (
"560 648 LINE",
"880 648 LINE SMOOTH",
"1053 648 OFFCURVE",
"1162 569 OFFCURVE",
"1162 404 CURVE SMOOTH",
"1162 239 OFFCURVE",
"1053 160 OFFCURVE",
"880 160 CURVE SMOOTH",
"560 160 LINE",
"560 0 LINE",
"956 0 LINE SMOOTH",
"1259 0 OFFCURVE",
"1460 120 OFFCURVE",
"1460 374 CURVE SMOOTH",
"1460 628 OFFCURVE",
"1259 748 OFFCURVE",
"956 748 CURVE SMOOTH",
"560 748 LINE"
);
},
{
closed = 1;
nodes = (
"560 1440 LINE",
"270 1440 LINE",
"270 0 LINE",
"560 0 LINE"
);
}
);
width = 1524;
},
{
hints = (
{
origin = "{2, 1}";
scale = "{-0.96, 0.98}";
type = Corner;
name = _corner.Serif;
},
{
origin = "{2, 2}";
type = Corner;
name = _corner.Serif;
options = 1;
}
);
layerId = "AF891779-7DE6-4679-9CA2-17B922C1DF84";
paths = (
{
closed = 1;
nodes = (
"578 1260 LINE",
"886 1260 LINE SMOOTH",
"1046 1260 OFFCURVE",
"1146 1184 OFFCURVE",
"1146 1038 CURVE SMOOTH",
"1146 892 OFFCURVE",
"1046 816 OFFCURVE",
"886 816 CURVE SMOOTH",
"578 816 LINE",
"578 704 LINE",
"940 704 LINE SMOOTH",
"1243 704 OFFCURVE",
"1444 828 OFFCURVE",
"1444 1072 CURVE SMOOTH",
"1444 1316 OFFCURVE",
"1243 1440 OFFCURVE",
"940 1440 CURVE SMOOTH",
"578 1440 LINE"
);
},
{
closed = 1;
nodes = (
"578 636 LINE",
"914 636 LINE SMOOTH",
"1079 636 OFFCURVE",
"1180 561 OFFCURVE",
"1180 410 CURVE SMOOTH",
"1180 259 OFFCURVE",
"1079 184 OFFCURVE",
"914 184 CURVE SMOOTH",
"578 184 LINE",
"578 0 LINE",
"974 0 LINE SMOOTH",
"1277 0 OFFCURVE",
"1478 128 OFFCURVE",
"1478 384 CURVE SMOOTH",
"1478 640 OFFCURVE",
"1277 768 OFFCURVE",
"974 768 CURVE SMOOTH",
"578 768 LINE"
);
},
{
closed = 1;
nodes = (
"578 1440 LINE",
"288 1440 LINE",
"288 0 LINE",
"578 0 LINE"
);
}
);
width = 1586;
}
);
leftKerningGroup = I;
leftMetricsKey = I;
rightKerningGroup = B;
unicode = 0042;
},
{
glyphname = C;
lastChange = "2020-08-20 10:52:38 +0000";
layers = (
{
layerId = "CA54B7DC-FBBB-40FE-ACF3-AABDD76D6A7B";
paths = (
{
closed = 1;
nodes = (
"1444 960 LINE",
"1432 1256 OFFCURVE",
"1223 1460 OFFCURVE",
"864 1460 CURVE SMOOTH",
"461 1460 OFFCURVE",
"168 1188 OFFCURVE",
"168 720 CURVE SMOOTH",
"168 252 OFFCURVE",
"461 -20 OFFCURVE",
"864 -20 CURVE SMOOTH",
"1256 -20 OFFCURVE",
"1460 231 OFFCURVE",
"1472 515 CURVE",
"1428 518 LINE",
"1412 252 OFFCURVE",
"1226 24 OFFCURVE",
"864 24 CURVE SMOOTH",
"487 24 OFFCURVE",
"216 296 OFFCURVE",
"216 720 CURVE SMOOTH",
"216 1144 OFFCURVE",
"487 1416 OFFCURVE",
"864 1416 CURVE SMOOTH",
"1224 1416 OFFCURVE",
"1387 1196 OFFCURVE",
"1406 960 CURVE"
);
},
{
closed = 1;
nodes = (
"1418 1440 LINE",
"1418 1014 LINE",
"1444 960 LINE",
"1462 960 LINE",
"1462 1440 LINE"
);
}
);
width = 1610;
},
{
layerId = "1E61A082-F045-49A7-AB52-DD1B03FD9B54";
paths = (
{
closed = 1;
nodes = (
"1380 910 LINE",
"1368 1236 OFFCURVE",
"1160 1460 OFFCURVE",
"802 1460 CURVE SMOOTH",
"424 1460 OFFCURVE",
"134 1188 OFFCURVE",
"134 720 CURVE SMOOTH",
"134 252 OFFCURVE",
"424 -20 OFFCURVE",
"802 -20 CURVE SMOOTH",
"1193 -20 OFFCURVE",
"1400 255 OFFCURVE",
"1408 566 CURVE",
"1364 568 LINE",
"1352 275 OFFCURVE",
"1163 24 OFFCURVE",
"802 24 CURVE SMOOTH",
"450 24 OFFCURVE",
"182 296 OFFCURVE",
"182 720 CURVE SMOOTH",
"182 1144 OFFCURVE",
"450 1416 OFFCURVE",
"802 1416 CURVE SMOOTH",
"1160 1416 OFFCURVE",
"1322 1172 OFFCURVE",
"1342 910 CURVE"
);
},
{
closed = 1;
nodes = (
"1354 1440 LINE",
"1354 964 LINE",
"1380 910 LINE",
"1398 910 LINE",
"1398 1440 LINE"
);
}
);
width = 1522;
},
{
layerId = "642E5713-E15A-4A7E-A28E-9A6B75A6585C";
paths = (
{
closed = 1;
nodes = (
"1446 870 LINE",
"1426 1241 OFFCURVE",
"1216 1460 OFFCURVE",
"826 1460 CURVE SMOOTH",
"399 1460 OFFCURVE",
"68 1188 OFFCURVE",
"68 720 CURVE SMOOTH",
"68 252 OFFCURVE",
"399 -20 OFFCURVE",
"826 -20 CURVE SMOOTH",
"1257 -20 OFFCURVE",
"1474 252 OFFCURVE",
"1490 604 CURVE",
"1320 612 LINE",
"1303 371 OFFCURVE",
"1173 168 OFFCURVE",
"878 168 CURVE SMOOTH",
"584 168 OFFCURVE",
"378 384 OFFCURVE",
"378 720 CURVE SMOOTH",
"378 1071 OFFCURVE",
"584 1296 OFFCURVE",
"878 1296 CURVE SMOOTH",
"1176 1296 OFFCURVE",
"1301 1090 OFFCURVE",
"1318 870 CURVE"
);
},
{
closed = 1;
nodes = (
"1322 1440 LINE",
"1322 1064 LINE",
"1446 870 LINE",
"1484 870 LINE",
"1484 1440 LINE"
);
}
);
width = 1572;
},
{
layerId = "AF891779-7DE6-4679-9CA2-17B922C1DF84";
paths = (
{
closed = 1;
nodes = (
"1464 930 LINE",
"1437 1244 OFFCURVE",
"1225 1460 OFFCURVE",
"844 1460 CURVE SMOOTH",
"424 1460 OFFCURVE",
"98 1188 OFFCURVE",
"98 720 CURVE SMOOTH",
"98 252 OFFCURVE",
"426 -20 OFFCURVE",
"848 -20 CURVE SMOOTH",
"1267 -20 OFFCURVE",
"1463 190 OFFCURVE",
"1510 471 CURVE",
"1314 508 LINE",
"1279 346 OFFCURVE",
"1172 194 OFFCURVE",
"902 194 CURVE SMOOTH",
"613 194 OFFCURVE",
"408 399 OFFCURVE",
"408 720 CURVE SMOOTH",
"408 1057 OFFCURVE",
"609 1272 OFFCURVE",
"892 1272 CURVE SMOOTH",
"1171 1272 OFFCURVE",
"1292 1106 OFFCURVE",
"1306 930 CURVE"
);
},
{
closed = 1;
nodes = (
"1308 1440 LINE",
"1308 1140 LINE",
"1464 930 LINE",
"1494 930 LINE",
"1494 1440 LINE"
);
}
);
width = 1600;
}
);
leftKerningGroup = O;
leftMetricsKey = O;
rightKerningGroup = C;
unicode = 0043;
},
{
glyphname = D;
lastChange = "2020-08-20 10:48:24 +0000";
layers = (
{
hints = (
{
origin = "{1, 1}";
scale = "{-0.96, 1}";
type = Corner;
name = _corner.Serif;
},
{
origin = "{1, 2}";
type = Corner;
name = _corner.Serif;
options = 1;
}
);
layerId = "CA54B7DC-FBBB-40FE-ACF3-AABDD76D6A7B";
paths = (
{
closed = 1;
nodes = (
"402 1398 LINE",
"730 1398 LINE SMOOTH",
"1158 1398 OFFCURVE",
"1438 1136 OFFCURVE",
"1438 720 CURVE SMOOTH",
"1438 304 OFFCURVE",
"1158 42 OFFCURVE",
"730 42 CURVE SMOOTH",
"402 42 LINE",
"402 0 LINE",
"730 0 LINE SMOOTH",
"1186 0 OFFCURVE",
"1486 264 OFFCURVE",
"1486 720 CURVE SMOOTH",
"1486 1176 OFFCURVE",
"1186 1440 OFFCURVE",
"730 1440 CURVE SMOOTH",
"402 1440 LINE"
);
},
{
closed = 1;
nodes = (
"402 1440 LINE",
"354 1440 LINE",
"354 0 LINE",
"402 0 LINE"
);
}
);
width = 1654;
},
{
hints = (
{
origin = "{1, 1}";
scale = "{-0.96, 1}";
type = Corner;
name = _corner.Serif;
},
{
origin = "{1, 2}";
type = Corner;
name = _corner.Serif;
options = 1;
}
);
layerId = "1E61A082-F045-49A7-AB52-DD1B03FD9B54";
paths = (
{
closed = 1;
nodes = (
"340 1400 LINE",
"668 1400 LINE SMOOTH",
"1096 1400 OFFCURVE",
"1376 1136 OFFCURVE",
"1376 720 CURVE SMOOTH",
"1376 304 OFFCURVE",
"1096 40 OFFCURVE",
"668 40 CURVE SMOOTH",
"340 40 LINE",
"340 0 LINE",
"668 0 LINE SMOOTH",
"1124 0 OFFCURVE",
"1424 264 OFFCURVE",
"1424 720 CURVE SMOOTH",
"1424 1176 OFFCURVE",
"1124 1440 OFFCURVE",
"668 1440 CURVE SMOOTH",
"340 1440 LINE"
);
},
{
closed = 1;
nodes = (
"340 1440 LINE",
"292 1440 LINE",
"292 0 LINE",
"340 0 LINE"
);
}
);
width = 1558;
},
{
hints = (
{
origin = "{1, 1}";
scale = "{-0.96, 0.99}";
type = Corner;
name = _corner.Serif;
},
{
origin = "{1, 2}";
type = Corner;
name = _corner.Serif;
options = 1;
}
);
layerId = "642E5713-E15A-4A7E-A28E-9A6B75A6585C";
paths = (
{
closed = 1;
nodes = (
"560 1282 LINE",
"734 1282 LINE SMOOTH",
"1041 1282 OFFCURVE",
"1242 1065 OFFCURVE",
"1242 721 CURVE SMOOTH",
"1242 377 OFFCURVE",
"1041 160 OFFCURVE",
"734 160 CURVE SMOOTH",
"560 160 LINE",
"560 0 LINE",
"774 0 LINE SMOOTH",
"1242 0 OFFCURVE",
"1552 264 OFFCURVE",
"1552 720 CURVE SMOOTH",
"1552 1176 OFFCURVE",
"1242 1440 OFFCURVE",
"774 1440 CURVE SMOOTH",
"560 1440 LINE"
);
},
{
closed = 1;
nodes = (
"560 1440 LINE",
"270 1440 LINE",
"270 0 LINE",
"560 0 LINE"
);
}
);
width = 1620;
},
{
hints = (
{
origin = "{1, 1}";
scale = "{-0.96, 0.98}";
type = Corner;
name = _corner.Serif;
},
{
origin = "{1, 2}";
type = Corner;
name = _corner.Serif;
options = 1;
}
);
layerId = "AF891779-7DE6-4679-9CA2-17B922C1DF84";
paths = (
{
closed = 1;
nodes = (
"578 1260 LINE",
"750 1260 LINE SMOOTH",
"1058 1260 OFFCURVE",
"1260 1050 OFFCURVE",
"1260 721 CURVE SMOOTH",
"1260 392 OFFCURVE",
"1058 184 OFFCURVE",
"750 184 CURVE SMOOTH",
"578 184 LINE",
"578 0 LINE",
"792 0 LINE SMOOTH",
"1260 0 OFFCURVE",
"1570 264 OFFCURVE",
"1570 720 CURVE SMOOTH",
"1570 1176 OFFCURVE",
"1260 1440 OFFCURVE",
"792 1440 CURVE SMOOTH",
"578 1440 LINE"
);
},
{
closed = 1;
nodes = (
"578 1440 LINE",
"288 1440 LINE",
"288 0 LINE",
"578 0 LINE"
);
}
);
width = 1668;
}
);
leftKerningGroup = I;
leftMetricsKey = I;
rightKerningGroup = O;
rightMetricsKey = O;
unicode = 0044;
},
{
glyphname = E;
lastChange = "2020-08-20 10:51:50 +0000";
layers = (
{
hints = (
{
origin = "{7, 1}";
scale = "{-0.96, 1}";
type = Corner;
name = _corner.Serif;
},
{
origin = "{7, 2}";
type = Corner;
name = _corner.Serif;
options = 1;
}
);
layerId = "CA54B7DC-FBBB-40FE-ACF3-AABDD76D6A7B";
paths = (
{
closed = 1;
nodes = (
"1310 42 LINE",
"402 42 LINE",
"402 0 LINE",
"1310 0 LINE"
);
},
{
closed = 1;
nodes = (
"1294 1440 LINE",
"402 1440 LINE",
"402 1398 LINE",
"1294 1398 LINE"
);
},
{
closed = 1;
nodes = (
"1310 42 LINE",
"1310 410 LINE",
"1265 410 LINE",
"1265 182 LINE SMOOTH",
"1265 70 OFFCURVE",
"1257 42 OFFCURVE",
"1145 42 CURVE"
);
},
{
closed = 1;
nodes = (
"1241 1398 OFFCURVE",
"1249 1370 OFFCURVE",
"1249 1258 CURVE SMOOTH",
"1249 1050 LINE",
"1294 1050 LINE",
"1294 1398 LINE",
"1129 1398 LINE"
);
},
{
closed = 1;
nodes = (
"936 768 LINE",
"402 768 LINE",
"402 726 LINE",
"936 726 LINE"
);
},
{
closed = 1;
nodes = (
"884 726 OFFCURVE",
"892 698 OFFCURVE",
"892 586 CURVE SMOOTH",
"892 406 LINE",
"936 406 LINE",
"936 726 LINE",
"772 726 LINE"
);
},
{
closed = 1;
nodes = (
"936 768 LINE",
"936 1048 LINE",
"892 1048 LINE",
"892 908 LINE SMOOTH",
"892 796 OFFCURVE",
"884 768 OFFCURVE",
"772 768 CURVE"
);
},
{
closed = 1;
nodes = (
"402 1440 LINE",
"354 1440 LINE",
"354 0 LINE",
"402 0 LINE"
);
}
);
width = 1474;
},
{
hints = (
{
origin = "{7, 1}";
scale = "{-0.96, 1}";
type = Corner;
name = _corner.Serif;
},
{
origin = "{7, 2}";
type = Corner;
name = _corner.Serif;
options = 1;
}
);
layerId = "1E61A082-F045-49A7-AB52-DD1B03FD9B54";
paths = (
{
closed = 1;
nodes = (
"1248 40 LINE",
"340 40 LINE",
"340 0 LINE",
"1248 0 LINE"
);
},
{
closed = 1;
nodes = (
"1230 1440 LINE",
"340 1440 LINE",
"340 1400 LINE",
"1230 1400 LINE"
);
},
{
closed = 1;
nodes = (
"1248 40 LINE",
"1248 560 LINE",
"1204 560 LINE",
"1204 180 LINE SMOOTH",
"1204 68 OFFCURVE",
"1196 40 OFFCURVE",
"1084 40 CURVE"
);
},
{
closed = 1;
nodes = (
"1178 1400 OFFCURVE",
"1186 1372 OFFCURVE",
"1186 1260 CURVE SMOOTH",
"1186 900 LINE",
"1230 900 LINE",
"1230 1400 LINE",
"1066 1400 LINE"
);
},
{
closed = 1;
nodes = (
"894 780 LINE",
"340 780 LINE",
"340 740 LINE",
"894 740 LINE"
);
},
{
closed = 1;
nodes = (
"844 740 OFFCURVE",
"852 712 OFFCURVE",
"852 600 CURVE SMOOTH",
"852 290 LINE",
"894 290 LINE",
"894 740 LINE",
"732 740 LINE"
);
},
{
closed = 1;
nodes = (
"894 780 LINE",
"894 1160 LINE",
"852 1160 LINE",
"852 920 LINE SMOOTH",
"852 808 OFFCURVE",
"844 780 OFFCURVE",
"732 780 CURVE"
);
},
{
closed = 1;
nodes = (
"340 1440 LINE",
"292 1440 LINE",
"292 0 LINE",
"340 0 LINE"
);
}
);
width = 1398;
},
{
hints = (
{
origin = "{7, 1}";
scale = "{-0.96, 0.99}";
type = Corner;
name = _corner.Serif;
},
{
origin = "{7, 2}";
type = Corner;
name = _corner.Serif;
options = 1;
}
);
layerId = "642E5713-E15A-4A7E-A28E-9A6B75A6585C";
paths = (
{
closed = 1;
nodes = (
"1336 160 LINE",
"560 160 LINE",
"560 0 LINE",
"1336 0 LINE"
);
},
{
closed = 1;
nodes = (
"1318 1440 LINE",
"560 1440 LINE",
"560 1282 LINE",
"1318 1282 LINE"
);
},
{
closed = 1;
nodes = (
"1336 160 LINE",
"1336 560 LINE",
"1166 560 LINE",
"1166 340 LINE SMOOTH",
"1166 208 OFFCURVE",
"1138 160 OFFCURVE",
"1006 160 CURVE"
);
},
{
closed = 1;
nodes = (
"1120 1282 OFFCURVE",
"1148 1234 OFFCURVE",
"1148 1102 CURVE SMOOTH",
"1148 900 LINE",
"1318 900 LINE",
"1318 1282 LINE",
"988 1282 LINE"
);
},
{
closed = 1;
nodes = (
"996 836 LINE",
"560 836 LINE",
"560 680 LINE",
"996 680 LINE"
);
},
{
closed = 1;
nodes = (
"808 680 OFFCURVE",
"836 632 OFFCURVE",
"836 500 CURVE SMOOTH",
"836 316 LINE",
"996 316 LINE",
"996 680 LINE",
"676 680 LINE"
);
},
{
closed = 1;
nodes = (
"996 836 LINE",
"996 1128 LINE",
"836 1128 LINE",
"836 1016 LINE SMOOTH",
"836 884 OFFCURVE",
"808 836 OFFCURVE",
"676 836 CURVE"
);
},
{
closed = 1;
nodes = (
"560 1440 LINE",
"270 1440 LINE",
"270 0 LINE",
"560 0 LINE"
);
}
);
width = 1454;
},
{
hints = (
{
origin = "{7, 1}";
scale = "{-0.96, 0.98}";
type = Corner;
name = _corner.Serif;
},
{
origin = "{7, 2}";
type = Corner;
name = _corner.Serif;
options = 1;
}
);
layerId = "AF891779-7DE6-4679-9CA2-17B922C1DF84";
paths = (
{
closed = 1;
nodes = (
"1354 184 LINE",
"578 184 LINE",
"578 0 LINE",
"1354 0 LINE"
);
},
{
closed = 1;
nodes = (
"1336 1440 LINE",
"578 1440 LINE",
"578 1260 LINE",
"1336 1260 LINE"
);
},
{
closed = 1;
nodes = (
"1354 184 LINE",
"1354 460 LINE",
"1164 460 LINE",
"1164 364 LINE SMOOTH",
"1164 232 OFFCURVE",
"1136 184 OFFCURVE",
"1004 184 CURVE"
);
},
{
closed = 1;
nodes = (
"1118 1260 OFFCURVE",
"1146 1212 OFFCURVE",
"1146 1080 CURVE SMOOTH",
"1146 1000 LINE",
"1336 1000 LINE",
"1336 1260 LINE",
"986 1260 LINE"
);
},
{
closed = 1;
nodes = (
"1004 848 LINE",
"578 848 LINE",
"578 670 LINE",
"1004 670 LINE"
);
},
{
closed = 1;
nodes = (
"792 670 OFFCURVE",
"820 622 OFFCURVE",
"820 490 CURVE SMOOTH",
"820 378 LINE",
"1004 378 LINE",
"1004 670 LINE",
"660 670 LINE"
);
},
{
closed = 1;
nodes = (
"1004 848 LINE",
"1004 1072 LINE",
"820 1072 LINE",
"820 1028 LINE SMOOTH",
"820 896 OFFCURVE",
"792 848 OFFCURVE",
"660 848 CURVE"
);
},
{
closed = 1;
nodes = (
"578 1440 LINE",
"288 1440 LINE",
"288 0 LINE",
"578 0 LINE"
);
}
);
width = 1502;
}
);
leftKerningGroup = I;
leftMetricsKey = I;
rightKerningGroup = E;
unicode = 0045;
},
{
glyphname = F;
lastChange = "2020-08-20 10:49:47 +0000";
layers = (
{
hints = (
{
origin = "{5, 3}";
scale = "{-0.96, 1}";
type = Corner;
name = _corner.Serif;
},
{
origin = "{5, 0}";
type = Corner;
name = _corner.Serif;
options = 1;
},
{
origin = "{5, 1}";
scale = "{-1.2, 1}";
type = Corner;
name = _corner.Serif;
}
);
layerId = "CA54B7DC-FBBB-40FE-ACF3-AABDD76D6A7B";
paths = (
{
closed = 1;
nodes = (
"1272 1440 LINE",
"402 1440 LINE",
"402 1398 LINE",
"1272 1398 LINE"
);
},
{
closed = 1;
nodes = (
"1219 1398 OFFCURVE",
"1227 1370 OFFCURVE",
"1227 1258 CURVE SMOOTH",
"1227 1030 LINE",
"1272 1030 LINE",
"1272 1398 LINE",
"1107 1398 LINE"
);
},
{
closed = 1;
nodes = (
"928 754 LINE",
"402 754 LINE",
"402 712 LINE",
"928 712 LINE"
);
},
{
closed = 1;
nodes = (
"876 712 OFFCURVE",
"884 684 OFFCURVE",
"884 572 CURVE SMOOTH",
"884 382 LINE",
"928 382 LINE",
"928 712 LINE",
"764 712 LINE"
);
},
{
closed = 1;
nodes = (
"928 754 LINE",
"928 1044 LINE",
"884 1044 LINE",
"884 894 LINE SMOOTH",
"884 782 OFFCURVE",
"876 754 OFFCURVE",
"764 754 CURVE"
);
},
{
closed = 1;
nodes = (
"354 0 LINE",
"402 0 LINE",
"402 1440 LINE",
"354 1440 LINE"
);
}
);
width = 1398;
},
{
hints = (
{
origin = "{5, 3}";
scale = "{-0.96, 1}";
type = Corner;
name = _corner.Serif;
},
{
origin = "{5, 0}";
type = Corner;
name = _corner.Serif;
options = 1;
},
{
origin = "{5, 1}";
scale = "{-1.4, 1}";
type = Corner;
name = _corner.Serif;
}
);
layerId = "1E61A082-F045-49A7-AB52-DD1B03FD9B54";
paths = (
{
closed = 1;
nodes = (
"1210 1440 LINE",
"340 1440 LINE",
"340 1400 LINE",
"1210 1400 LINE"
);
},
{
closed = 1;
nodes = (
"1158 1400 OFFCURVE",
"1166 1372 OFFCURVE",
"1166 1260 CURVE SMOOTH",
"1166 900 LINE",
"1210 900 LINE",
"1210 1400 LINE",
"1046 1400 LINE"
);
},
{
closed = 1;
nodes = (
"900 760 LINE",
"340 760 LINE",
"340 720 LINE",
"900 720 LINE"
);
},
{
closed = 1;
nodes = (
"850 720 OFFCURVE",
"858 692 OFFCURVE",
"858 580 CURVE SMOOTH",
"858 300 LINE",
"900 300 LINE",
"900 720 LINE",
"738 720 LINE"
);
},
{
closed = 1;
nodes = (
"900 760 LINE",
"900 1160 LINE",
"858 1160 LINE",
"858 900 LINE SMOOTH",
"858 788 OFFCURVE",
"850 760 OFFCURVE",
"738 760 CURVE"
);
},
{
closed = 1;
nodes = (
"292 0 LINE",
"340 0 LINE",
"340 1440 LINE",
"292 1440 LINE"
);
}
);
width = 1316;
},
{
hints = (
{
origin = "{5, 3}";
scale = "{-0.96, 0.99}";
type = Corner;
name = _corner.Serif;
},
{
origin = "{5, 0}";
type = Corner;
name = _corner.Serif;
options = 1;
},
{
origin = "{5, 1}";
scale = "{-1.4, 1}";
type = Corner;
name = _corner.Serif;
}
);
layerId = "642E5713-E15A-4A7E-A28E-9A6B75A6585C";
paths = (
{
closed = 1;
nodes = (
"1308 1440 LINE",
"560 1440 LINE",
"560 1282 LINE",
"1308 1282 LINE"
);
},
{
closed = 1;
nodes = (
"1110 1282 OFFCURVE",
"1138 1234 OFFCURVE",
"1138 1102 CURVE SMOOTH",
"1138 900 LINE",
"1308 900 LINE",
"1308 1282 LINE",
"978 1282 LINE"
);
},
{
closed = 1;
nodes = (
"986 826 LINE",
"560 826 LINE",
"560 670 LINE",
"986 670 LINE"
);
},
{
closed = 1;
nodes = (
"798 670 OFFCURVE",
"826 622 OFFCURVE",
"826 490 CURVE SMOOTH",
"826 322 LINE",
"986 322 LINE",
"986 670 LINE",
"666 670 LINE"
);
},
{
closed = 1;
nodes = (
"986 826 LINE",
"986 1130 LINE",
"826 1130 LINE",
"826 1006 LINE SMOOTH",
"826 874 OFFCURVE",
"798 826 OFFCURVE",
"666 826 CURVE"
);
},
{
closed = 1;
nodes = (
"270 0 LINE",
"560 0 LINE",
"560 1440 LINE",
"270 1440 LINE"
);
}
);
width = 1376;
},
{
hints = (
{
origin = "{5, 3}";
scale = "{-0.96, 0.98}";
type = Corner;
name = _corner.Serif;
},
{
origin = "{5, 0}";
type = Corner;
name = _corner.Serif;
options = 1;
},
{
origin = "{5, 1}";
scale = "{-1.2, 1}";
type = Corner;
name = _corner.Serif;
}
);
layerId = "AF891779-7DE6-4679-9CA2-17B922C1DF84";
paths = (
{
closed = 1;
nodes = (
"1326 1440 LINE",
"578 1440 LINE",
"578 1260 LINE",
"1326 1260 LINE"
);
},
{
closed = 1;
nodes = (
"1108 1260 OFFCURVE",
"1136 1212 OFFCURVE",
"1136 1080 CURVE SMOOTH",
"1136 990 LINE",
"1326 990 LINE",
"1326 1260 LINE",
"976 1260 LINE"
);
},
{
closed = 1;
nodes = (
"990 838 LINE",
"578 838 LINE",
"578 660 LINE",
"990 660 LINE"
);
},
{
closed = 1;
nodes = (
"778 660 OFFCURVE",
"806 612 OFFCURVE",
"806 480 CURVE SMOOTH",
"806 360 LINE",
"990 360 LINE",
"990 660 LINE",
"646 660 LINE"
);
},
{
closed = 1;
nodes = (
"990 838 LINE",
"990 1092 LINE",
"806 1092 LINE",
"806 1018 LINE SMOOTH",
"806 886 OFFCURVE",
"778 838 OFFCURVE",
"646 838 CURVE"
);
},
{
closed = 1;
nodes = (
"288 0 LINE",
"578 0 LINE",
"578 1440 LINE",
"288 1440 LINE"
);
}
);
width = 1410;
}
);
leftKerningGroup = I;
leftMetricsKey = I;
rightKerningGroup = F;
unicode = 0046;
},
{
glyphname = G;
lastChange = "2020-08-20 10:52:28 +0000";
layers = (
{
layerId = "CA54B7DC-FBBB-40FE-ACF3-AABDD76D6A7B";
paths = (
{
closed = 1;
nodes = (
"1378 990 LINE",
"1361 1277 OFFCURVE",
"1172 1460 OFFCURVE",
"838 1460 CURVE SMOOTH",
"456 1460 OFFCURVE",
"168 1188 OFFCURVE",
"168 720 CURVE SMOOTH",
"168 252 OFFCURVE",
"462 -20 OFFCURVE",
"852 -20 CURVE SMOOTH",
"1242 -20 OFFCURVE",
"1432 258 OFFCURVE",
"1432 632 CURVE",
"1392 632 LINE",
"1392 302 OFFCURVE",
"1216 24 OFFCURVE",
"852 24 CURVE SMOOTH",
"488 24 OFFCURVE",
"216 296 OFFCURVE",
"216 720 CURVE SMOOTH",
"216 1144 OFFCURVE",
"484 1416 OFFCURVE",
"838 1416 CURVE SMOOTH",
"1169 1416 OFFCURVE",
"1320 1223 OFFCURVE",
"1340 990 CURVE"
);
},
{
closed = 1;
nodes = (
"1352 1440 LINE",
"1352 1044 LINE",
"1378 990 LINE",
"1396 990 LINE",
"1396 1440 LINE"
);
},
{
closed = 1;
nodes = (
"832 632 LINE",
"1636 632 LINE",
"1636 674 LINE",
"832 674 LINE"
);
},
{
closed = 1;
nodes = (
"1392 632 LINE",
"1392 0 LINE",
"1438 0 LINE",
"1438 632 LINE"
);
}
);
width = 1686;
},
{
layerId = "1E61A082-F045-49A7-AB52-DD1B03FD9B54";
paths = (
{
closed = 1;
nodes = (
"1352 940 LINE",
"1334 1262 OFFCURVE",
"1144 1460 OFFCURVE",
"806 1460 CURVE SMOOTH",
"424 1460 OFFCURVE",
"134 1188 OFFCURVE",
"134 720 CURVE SMOOTH",
"134 252 OFFCURVE",
"428 -20 OFFCURVE",
"818 -20 CURVE SMOOTH",
"1208 -20 OFFCURVE",
"1398 258 OFFCURVE",
"1398 632 CURVE",
"1358 632 LINE",
"1358 302 OFFCURVE",
"1182 24 OFFCURVE",
"818 24 CURVE SMOOTH",
"454 24 OFFCURVE",
"182 296 OFFCURVE",
"182 720 CURVE SMOOTH",
"182 1144 OFFCURVE",
"452 1416 OFFCURVE",
"806 1416 CURVE SMOOTH",
"1143 1416 OFFCURVE",
"1294 1205 OFFCURVE",
"1314 940 CURVE"
);
},
{
closed = 1;
nodes = (
"1326 1440 LINE",
"1326 994 LINE",
"1352 940 LINE",
"1370 940 LINE",
"1370 1440 LINE"
);
},
{
closed = 1;
nodes = (
"754 632 LINE",
"1602 632 LINE",
"1602 672 LINE",
"754 672 LINE"
);
},
{
closed = 1;
nodes = (
"1358 632 LINE",
"1358 0 LINE",
"1402 0 LINE",
"1402 632 LINE"
);
}
);
width = 1624;
},
{
layerId = "642E5713-E15A-4A7E-A28E-9A6B75A6585C";
paths = (
{
closed = 1;
nodes = (
"1396 890 LINE",
"1379 1252 OFFCURVE",
"1184 1460 OFFCURVE",
"802 1460 CURVE SMOOTH",
"388 1460 OFFCURVE",
"68 1188 OFFCURVE",
"68 720 CURVE SMOOTH",
"68 252 OFFCURVE",
"388 -20 OFFCURVE",
"802 -20 CURVE SMOOTH",
"1210 -20 OFFCURVE",
"1388 243 OFFCURVE",
"1399 552 CURVE",
"1290 552 LINE",
"1273 358 OFFCURVE",
"1162 170 OFFCURVE",
"864 170 CURVE SMOOTH",
"577 170 OFFCURVE",
"378 384 OFFCURVE",
"378 720 CURVE SMOOTH",
"378 1072 OFFCURVE",
"573 1296 OFFCURVE",
"850 1296 CURVE SMOOTH",
"1132 1296 OFFCURVE",
"1259 1107 OFFCURVE",
"1276 890 CURVE"
);
},
{
closed = 1;
nodes = (
"1280 1440 LINE",
"1280 1064 LINE",
"1396 890 LINE",
"1442 890 LINE",
"1442 1440 LINE"
);
},
{
closed = 1;
nodes = (
"835 552 LINE",
"1632 552 LINE",
"1632 712 LINE",
"835 712 LINE"
);
},
{
closed = 1;
nodes = (
"1296 552 LINE",
"1296 0 LINE",
"1466 0 LINE",
"1466 552 LINE"
);
}
);
width = 1670;
},
{
layerId = "AF891779-7DE6-4679-9CA2-17B922C1DF84";
paths = (
{
closed = 1;
nodes = (
"1432 950 LINE",
"1403 1252 OFFCURVE",
"1225 1460 OFFCURVE",
"834 1460 CURVE SMOOTH",
"419 1460 OFFCURVE",
"98 1188 OFFCURVE",
"98 720 CURVE SMOOTH",
"98 252 OFFCURVE",
"420 -20 OFFCURVE",
"836 -20 CURVE SMOOTH",
"1242 -20 OFFCURVE",
"1427 239 OFFCURVE",
"1438 544 CURVE",
"1292 544 LINE",
"1275 366 OFFCURVE",
"1169 194 OFFCURVE",
"884 194 CURVE SMOOTH",
"603 194 OFFCURVE",
"408 399 OFFCURVE",
"408 720 CURVE SMOOTH",
"408 1057 OFFCURVE",
"603 1272 OFFCURVE",
"880 1272 CURVE SMOOTH",
"1148 1272 OFFCURVE",
"1268 1122 OFFCURVE",
"1284 950 CURVE"
);
},
{
closed = 1;
nodes = (
"1286 1440 LINE",
"1286 1140 LINE",
"1432 950 LINE",
"1472 950 LINE",
"1472 1440 LINE"
);
},
{
closed = 1;
nodes = (
"865 544 LINE",
"1662 544 LINE",
"1662 724 LINE",
"865 724 LINE"
);
},
{
closed = 1;
nodes = (
"1298 544 LINE",
"1298 0 LINE",
"1488 0 LINE",
"1488 544 LINE"
);
}
);
width = 1716;
}
);
leftKerningGroup = O;
leftMetricsKey = O;
rightKerningGroup = G;
unicode = 0047;
},
{
glyphname = H;
lastChange = "2020-08-20 10:46:59 +0000";
layers = (
{
hints = (
{
origin = "{1, 0}";
scale = "{0.96, 1}";
type = Corner;
name = _corner.Serif;
},
{
origin = "{1, 1}";
scale = "{-0.96, 1}";
type = Corner;
name = _corner.Serif;
},
{
origin = "{1, 2}";
type = Corner;
name = _corner.Serif;
options = 1;
},
{
origin = "{1, 3}";
scale = "{-1, 1}";
type = Corner;
name = _corner.Serif;
},
{
origin = "{2, 0}";
scale = "{0.96, 1}";
type = Corner;
name = _corner.Serif;
},
{
origin = "{2, 1}";
scale = "{-0.96, 1}";
type = Corner;
name = _corner.Serif;
},
{
origin = "{2, 2}";
type = Corner;
name = _corner.Serif;
options = 1;
},
{
origin = "{2, 3}";
scale = "{-1, 1}";
type = Corner;
name = _corner.Serif;
}
);
layerId = "CA54B7DC-FBBB-40FE-ACF3-AABDD76D6A7B";
paths = (
{
closed = 1;
nodes = (
"1306 752 LINE",
"402 752 LINE",
"402 710 LINE",
"1306 710 LINE"
);
},
{
closed = 1;
nodes = (
"402 1440 LINE",
"354 1440 LINE",
"354 0 LINE",
"402 0 LINE"
);
},
{
closed = 1;
nodes = (
"1354 1440 LINE",
"1306 1440 LINE",
"1306 0 LINE",
"1354 0 LINE"
);
}
);
width = 1708;
},
{
hints = (
{
origin = "{1, 0}";
scale = "{1.06, 1}";
type = Corner;
name = _corner.Serif;
},
{
origin = "{1, 1}";
scale = "{-0.96, 1}";
type = Corner;
name = _corner.Serif;
},
{
origin = "{1, 2}";
type = Corner;
name = _corner.Serif;
options = 1;
},
{
origin = "{1, 3}";
scale = "{-1.1, 1}";
type = Corner;
name = _corner.Serif;
},
{
origin = "{2, 0}";
scale = "{0.96, 1}";
type = Corner;
name = _corner.Serif;
},
{
origin = "{2, 1}";
scale = "{-1.06, 1}";
type = Corner;
name = _corner.Serif;
},
{
origin = "{2, 2}";
scale = "{1.1, 1}";
type = Corner;
name = _corner.Serif;
options = 1;
},
{
origin = "{2, 3}";
scale = "{-1, 1}";
type = Corner;
name = _corner.Serif;
}
);
layerId = "1E61A082-F045-49A7-AB52-DD1B03FD9B54";
paths = (
{
closed = 1;
nodes = (
"1244 750 LINE",
"340 750 LINE",
"340 710 LINE",
"1244 710 LINE"
);
},
{
closed = 1;
nodes = (
"340 1440 LINE",
"292 1440 LINE",
"292 0 LINE",
"340 0 LINE"
);
},
{
closed = 1;
nodes = (
"1292 1440 LINE",
"1244 1440 LINE",
"1244 0 LINE",
"1292 0 LINE"
);
}
);
width = 1584;
},
{
hints = (
{
origin = "{1, 0}";
scale = "{1.06, 0.99}";
type = Corner;
name = _corner.Serif;
options = 1;
},
{
origin = "{1, 1}";
scale = "{-0.96, 0.99}";
type = Corner;
name = _corner.Serif;
},
{
origin = "{1, 2}";
type = Corner;
name = _corner.Serif;
options = 1;
},
{
origin = "{1, 3}";
scale = "{-1.1, 1}";
type = Corner;
name = _corner.Serif;
},
{
origin = "{2, 0}";
scale = "{0.96, 0.99}";
type = Corner;
name = _corner.Serif;
options = 1;
},
{
origin = "{2, 1}";
scale = "{-1.06, 0.99}";
type = Corner;
name = _corner.Serif;
},
{
origin = "{2, 2}";
scale = "{1.1, 1}";
type = Corner;
name = _corner.Serif;
options = 1;
},
{
origin = "{2, 3}";
scale = "{-1, 1}";
type = Corner;
name = _corner.Serif;
}
);
layerId = "642E5713-E15A-4A7E-A28E-9A6B75A6585C";
paths = (
{
closed = 1;
nodes = (
"1166 810 LINE",
"560 810 LINE",
"560 650 LINE",
"1166 650 LINE"
);
},
{
closed = 1;
nodes = (
"560 1440 LINE",
"270 1440 LINE",
"270 0 LINE",
"560 0 LINE"
);
},
{
closed = 1;
nodes = (
"1456 1440 LINE",
"1166 1440 LINE",
"1166 0 LINE",
"1456 0 LINE"
);
}
);
width = 1726;
},
{
hints = (
{
origin = "{1, 0}";
scale = "{0.96, 0.98}";
type = Corner;
name = _corner.Serif;
options = 1;
},
{
origin = "{1, 1}";
scale = "{-0.96, 0.98}";
type = Corner;
name = _corner.Serif;
},
{
origin = "{1, 2}";
type = Corner;
name = _corner.Serif;
options = 1;
},
{
origin = "{1, 3}";
scale = "{-1, 1}";
type = Corner;
name = _corner.Serif;
},
{
origin = "{2, 0}";
scale = "{0.96, 0.98}";
type = Corner;
name = _corner.Serif;
options = 1;
},
{
origin = "{2, 1}";
scale = "{-0.96, 0.98}";
type = Corner;
name = _corner.Serif;
},
{
origin = "{2, 2}";
type = Corner;
name = _corner.Serif;
options = 1;
},
{
origin = "{2, 3}";
scale = "{-1, 1}";
type = Corner;
name = _corner.Serif;
}
);
layerId = "AF891779-7DE6-4679-9CA2-17B922C1DF84";
paths = (
{
closed = 1;
nodes = (
"1184 822 LINE",
"578 822 LINE",
"578 638 LINE",
"1184 638 LINE"
);
},
{
closed = 1;
nodes = (
"578 1440 LINE",
"288 1440 LINE",
"288 0 LINE",
"578 0 LINE"
);
},
{
closed = 1;
nodes = (
"1474 1440 LINE",
"1184 1440 LINE",
"1184 0 LINE",
"1474 0 LINE"
);
}
);
width = 1762;
}
);
leftKerningGroup = I;
leftMetricsKey = I;
rightKerningGroup = I;
rightMetricsKey = I;
unicode = 0048;
},
{
glyphname = I;
lastChange = "2020-08-20 10:46:56 +0000";
layers = (
{
hints = (
{
origin = "{0, 3}";
scale = "{0.96, 1}";
type = Corner;
name = _corner.Serif;
},
{
origin = "{0, 0}";
scale = "{-0.96, 1}";
type = Corner;
name = _corner.Serif;
},
{
origin = "{0, 1}";
type = Corner;
name = _corner.Serif;
options = 1;
},
{
origin = "{0, 2}";
scale = "{-1, 1}";
type = Corner;
name = _corner.Serif;
}
);
layerId = "CA54B7DC-FBBB-40FE-ACF3-AABDD76D6A7B";
paths = (
{
closed = 1;
nodes = (
"354 1440 LINE",
"354 0 LINE",
"402 0 LINE",
"402 1440 LINE"
);
}
);
width = 756;
},
{
hints = (
{
origin = "{0, 0}";
scale = "{-0.96, 1}";
type = Corner;
name = _corner.Serif;
},
{
origin = "{0, 1}";
type = Corner;
name = _corner.Serif;
options = 1;
},
{
origin = "{0, 2}";
scale = "{-1, 1}";
type = Corner;
name = _corner.Serif;
},
{
origin = "{0, 3}";
scale = "{0.96, 1}";
type = Corner;
name = _corner.Serif;
}
);
layerId = "1E61A082-F045-49A7-AB52-DD1B03FD9B54";
paths = (
{
closed = 1;
nodes = (
"292 1440 LINE",
"292 0 LINE",
"340 0 LINE",
"340 1440 LINE"
);
}
);
width = 632;
},
{
hints = (
{
origin = "{0, 3}";
scale = "{0.96, 0.99}";
type = Corner;
name = _corner.Serif;
options = 1;
},
{
origin = "{0, 0}";
scale = "{-0.96, 0.99}";
type = Corner;
name = _corner.Serif;
},
{
origin = "{0, 1}";
type = Corner;
name = _corner.Serif;
options = 1;
},
{
origin = "{0, 2}";
scale = "{-1, 1}";
type = Corner;
name = _corner.Serif;
}
);
layerId = "642E5713-E15A-4A7E-A28E-9A6B75A6585C";
paths = (
{
closed = 1;
nodes = (
"270 1440 LINE",
"270 0 LINE",
"560 0 LINE",
"560 1440 LINE"
);
}
);
width = 830;
},
{
hints = (
{
origin = "{0, 0}";
scale = "{-0.96, 0.98}";
type = Corner;
name = _corner.Serif;
},
{
origin = "{0, 1}";
type = Corner;
name = _corner.Serif;
options = 1;
},
{
origin = "{0, 2}";
scale = "{-1, 1}";
type = Corner;
name = _corner.Serif;
},
{
origin = "{0, 3}";
scale = "{0.96, 0.98}";
type = Corner;
name = _corner.Serif;
options = 1;
}
);
layerId = "AF891779-7DE6-4679-9CA2-17B922C1DF84";
paths = (
{
closed = 1;
nodes = (
"288 1440 LINE",
"288 0 LINE",
"578 0 LINE",
"578 1440 LINE"
);
}
);
width = 866;
}
);
leftKerningGroup = I;
rightKerningGroup = I;
unicode = 0049;
},
{
glyphname = J;
lastChange = "2020-08-20 10:52:03 +0000";
layers = (
{
hints = (
{
origin = "{0, 17}";
scale = "{0.96, 1}";
type = Corner;
name = _corner.Serif;
},
{
origin = "{0, 0}";
scale = "{-1.16, 1}";
type = Corner;
name = _corner.Serif;
options = 1;
}
);
layerId = "CA54B7DC-FBBB-40FE-ACF3-AABDD76D6A7B";
paths = (
{
closed = 1;
nodes = (
"820 1440 LINE",
"820 396 LINE SMOOTH",
"820 150 OFFCURVE",
"694 24 OFFCURVE",
"490 24 CURVE SMOOTH",
"286 24 OFFCURVE",
"158 150 OFFCURVE",
"158 396 CURVE SMOOTH",
"158 460 LINE",
"114 460 LINE",
"114 392 LINE SMOOTH",
"114 114 OFFCURVE",
"263 -16 OFFCURVE",
"491 -16 CURVE SMOOTH",
"719 -16 OFFCURVE",
"868 114 OFFCURVE",
"868 400 CURVE SMOOTH",
"868 1440 LINE"
);
}
);
width = 1182;
},
{
hints = (
{
origin = "{0, 17}";
scale = "{0.96, 1}";
type = Corner;
name = _corner.Serif;
},
{
origin = "{0, 0}";
scale = "{-1.36, 1}";
type = Corner;
name = _corner.Serif;
options = 1;
}
);
layerId = "1E61A082-F045-49A7-AB52-DD1B03FD9B54";
paths = (
{
closed = 1;
nodes = (
"788 1440 LINE",
"788 396 LINE SMOOTH",
"788 150 OFFCURVE",
"662 24 OFFCURVE",
"458 24 CURVE SMOOTH",
"254 24 OFFCURVE",
"128 150 OFFCURVE",
"128 396 CURVE SMOOTH",
"128 560 LINE",
"84 560 LINE",
"84 392 LINE SMOOTH",
"84 114 OFFCURVE",
"232 -16 OFFCURVE",
"460 -16 CURVE SMOOTH",
"688 -16 OFFCURVE",
"836 114 OFFCURVE",
"836 400 CURVE SMOOTH",
"836 1440 LINE"
);
}
);
width = 1099;
},
{
hints = (
{
origin = "{0, 17}";
scale = "{0.96, 0.99}";
type = Corner;
name = _corner.Serif;
},
{
origin = "{0, 0}";
scale = "{-1.36, 0.99}";
type = Corner;
name = _corner.Serif;
options = 1;
}
);
layerId = "642E5713-E15A-4A7E-A28E-9A6B75A6585C";
paths = (
{
closed = 1;
nodes = (
"638 1440 LINE",
"638 436 LINE SMOOTH",
"638 278 OFFCURVE",
"575 184 OFFCURVE",
"426 184 CURVE SMOOTH",
"277 184 OFFCURVE",
"206 278 OFFCURVE",
"206 430 CURVE SMOOTH",
"206 558 LINE",
"38 558 LINE",
"38 424 LINE SMOOTH",
"38 135 OFFCURVE",
"192 -20 OFFCURVE",
"479 -20 CURVE SMOOTH",
"770 -20 OFFCURVE",
"928 138 OFFCURVE",
"928 424 CURVE SMOOTH",
"928 1440 LINE"
);
}
);
width = 1154;
},
{
hints = (
{
origin = "{0, 0}";
scale = "{-1.16, 0.98}";
type = Corner;
name = _corner.Serif;
options = 1;
},
{
origin = "{0, 17}";
scale = "{0.96, 0.98}";
type = Corner;
name = _corner.Serif;
}
);
layerId = "AF891779-7DE6-4679-9CA2-17B922C1DF84";
paths = (
{
closed = 1;
nodes = (
"701 1440 LINE",
"701 437 LINE SMOOTH",
"701 287 OFFCURVE",
"641 198 OFFCURVE",
"498 198 CURVE SMOOTH",
"354 198 OFFCURVE",
"285 287 OFFCURVE",
"285 431 CURVE SMOOTH",
"285 480 LINE",
"91 480 LINE",
"91 424 LINE SMOOTH",
"91 135 OFFCURVE",
"247 -20 OFFCURVE",
"537 -20 CURVE SMOOTH",
"831 -20 OFFCURVE",
"991 138 OFFCURVE",
"991 424 CURVE SMOOTH",
"991 1440 LINE"
);
}
);
width = 1238;
}
);
leftKerningGroup = J;
rightKerningGroup = U;
rightMetricsKey = U;
unicode = 004A;
},
{
glyphname = K;
lastChange = "2020-08-20 10:53:06 +0000";
layers = (
{
hints = (
{
origin = "{0, 0}";
scale = "{-0.96, 1}";
type = Corner;
name = _corner.Serif;
},
{
origin = "{0, 1}";
type = Corner;
name = _corner.Serif;
options = 1;
},
{
origin = "{0, 2}";
scale = "{-1, 1}";
type = Corner;
name = _corner.Serif;
},
{
origin = "{0, 3}";
scale = "{0.96, 1}";
type = Corner;
name = _corner.Serif;
},
{
origin = "{1, 0}";
scale = "{-1.16, 1}";
type = Corner;
name = _corner.Serif;
options = 1;
},
{
origin = "{1, 3}";
scale = "{0.46, 1}";
type = Corner;
name = _corner.Serif;
},
{
origin = "{2, 2}";
scale = "{1.2, 1}";
type = Corner;
name = _corner.Serif;
},
{
origin = "{2, 3}";
scale = "{-0.5, 1}";
type = Corner;
name = _corner.Serif;
options = 1;
}
);
layerId = "CA54B7DC-FBBB-40FE-ACF3-AABDD76D6A7B";
paths = (
{
closed = 1;
nodes = (
"354 1440 LINE",
"354 0 LINE",
"402 0 LINE",
"402 1440 LINE"
);
},
{
closed = 1;
nodes = (
"1305 1440 LINE",
"368 586 LINE",
"393 552 LINE",
"1370 1440 LINE"
);
},
{
closed = 1;
nodes = (
"661 816 LINE",
"628 784 LINE",
"1355 0 LINE",
"1420 0 LINE"
);
}
);
width = 1619;
},
{
hints = (
{
origin = "{0, 0}";
scale = "{-0.96, 1}";
type = Corner;
name = _corner.Serif;
},
{
origin = "{0, 1}";
type = Corner;
name = _corner.Serif;
options = 1;
},
{
origin = "{0, 2}";
scale = "{-1, 1}";
type = Corner;
name = _corner.Serif;
},
{
origin = "{0, 3}";
scale = "{0.96, 1}";
type = Corner;
name = _corner.Serif;
},
{
origin = "{1, 0}";
scale = "{-1.16, 1}";
type = Corner;
name = _corner.Serif;
options = 1;
},
{
origin = "{1, 3}";
scale = "{0.46, 1}";
type = Corner;
name = _corner.Serif;
},
{
origin = "{2, 2}";
scale = "{1.2, 1}";
type = Corner;
name = _corner.Serif;
},
{
origin = "{2, 3}";
scale = "{-0.5, 1}";
type = Corner;
name = _corner.Serif;
options = 1;
}
);
layerId = "1E61A082-F045-49A7-AB52-DD1B03FD9B54";
paths = (
{
closed = 1;
nodes = (
"292 1440 LINE",
"292 0 LINE",
"340 0 LINE",
"340 1440 LINE"
);
},
{
closed = 1;
nodes = (
"1245 1440 LINE",
"306 585 LINE",
"331 554 LINE",
"1308 1440 LINE"
);
},
{
closed = 1;
nodes = (
"599 816 LINE",
"566 784 LINE",
"1293 0 LINE",
"1358 0 LINE"
);
}
);
width = 1525;
},
{
hints = (
{
origin = "{0, 0}";
scale = "{-0.96, 0.99}";
type = Corner;
name = _corner.Serif;
},
{
origin = "{0, 1}";
type = Corner;
name = _corner.Serif;
options = 1;
},
{
origin = "{0, 2}";
scale = "{-0.9, 1}";
type = Corner;
name = _corner.Serif;
},
{
origin = "{0, 3}";
scale = "{0.88, 0.99}";
type = Corner;
name = _corner.Serif;
options = 1;
},
{
origin = "{1, 0}";
scale = "{-1.84, 0.99}";
type = Corner;
name = _corner.Serif;
options = 1;
},
{
origin = "{1, 3}";
scale = "{0.02, 0.99}";
type = Corner;
name = _corner.Serif;
},
{
origin = "{2, 2}";
scale = "{1.4, 1}";
type = Corner;
name = _corner.Serif;
},
{
origin = "{2, 3}";
scale = "{-0.02, 1}";
type = Corner;
name = _corner.Serif;
options = 1;
}
);
layerId = "642E5713-E15A-4A7E-A28E-9A6B75A6585C";
rightMetricsKey = "=X-10";
paths = (
{
closed = 1;
nodes = (
"270 1440 LINE",
"270 0 LINE",
"560 0 LINE",
"560 1440 LINE"
);
},
{
closed = 1;
nodes = (
"1279 1440 LINE",
"399 591 LINE",
"503 464 LINE",
"1518 1440 LINE"
);
},
{
closed = 1;
nodes = (
"829 900 LINE",
"628 712 LINE",
"1178 0 LINE",
"1544 0 LINE"
);
}
);
width = 1592;
},
{
hints = (
{
origin = "{0, 0}";
scale = "{-0.96, 0.98}";
type = Corner;
name = _corner.Serif;
},
{
origin = "{0, 1}";
type = Corner;
name = _corner.Serif;
options = 1;
},
{
origin = "{0, 2}";
scale = "{-0.82, 1}";
type = Corner;
name = _corner.Serif;
},
{
origin = "{0, 3}";
scale = "{0.8, 0.98}";
type = Corner;
name = _corner.Serif;
options = 1;
},
{
origin = "{1, 0}";
scale = "{-1.96, 0.98}";
type = Corner;
name = _corner.Serif;
options = 1;
},
{
origin = "{1, 3}";
scale = "{0.02, 0.98}";
type = Corner;
name = _corner.Serif;
},
{
origin = "{2, 2}";
scale = "{1.46, 1}";
type = Corner;
name = _corner.Serif;
},
{
origin = "{2, 3}";
scale = "{-0.02, 1}";
type = Corner;
name = _corner.Serif;
options = 1;
}
);
layerId = "AF891779-7DE6-4679-9CA2-17B922C1DF84";
rightMetricsKey = "=X-10";
paths = (
{
closed = 1;
nodes = (
"288 1440 LINE",
"288 0 LINE",
"578 0 LINE",
"578 1440 LINE"
);
},
{
closed = 1;
nodes = (
"1273 1440 LINE",
"407 590 LINE",
"531 458 LINE",
"1542 1440 LINE"
);
},
{
closed = 1;
nodes = (
"847 900 LINE",
"646 712 LINE",
"1196 0 LINE",
"1562 0 LINE"
);
}
);
width = 1636;
}
);
leftKerningGroup = I;
leftMetricsKey = I;
rightKerningGroup = K;
rightMetricsKey = X;
unicode = 004B;
},
{
glyphname = L;
lastChange = "2020-08-20 10:50:02 +0000";
layers = (
{
hints = (
{
origin = "{2, 1}";
scale = "{-0.96, 1}";
type = Corner;
name = _corner.Serif;
},
{
origin = "{2, 2}";
type = Corner;
name = _corner.Serif;
options = 1;
},
{
origin = "{2, 0}";
scale = "{1.16, 1}";
type = Corner;
name = _corner.Serif;
}
);
layerId = "CA54B7DC-FBBB-40FE-ACF3-AABDD76D6A7B";
paths = (
{
closed = 1;
nodes = (
"1274 40 LINE",
"402 40 LINE",
"402 0 LINE",
"1274 0 LINE"
);
},
{
closed = 1;
nodes = (
"1274 40 LINE",
"1274 460 LINE",
"1229 460 LINE",
"1229 180 LINE SMOOTH",
"1229 68 OFFCURVE",
"1221 40 OFFCURVE",
"1109 40 CURVE"
);
},
{
closed = 1;
nodes = (
"402 1440 LINE",
"354 1440 LINE",
"354 0 LINE",
"402 0 LINE"
);
}
);
width = 1400;
},
{
hints = (
{
origin = "{2, 1}";
scale = "{-0.96, 1}";
type = Corner;
name = _corner.Serif;
},
{
origin = "{2, 2}";
type = Corner;
name = _corner.Serif;
options = 1;
},
{
origin = "{2, 0}";
scale = "{1.36, 1}";
type = Corner;
name = _corner.Serif;
}
);
layerId = "1E61A082-F045-49A7-AB52-DD1B03FD9B54";
paths = (
{
closed = 1;
nodes = (
"1212 40 LINE",
"340 40 LINE",
"340 0 LINE",
"1212 0 LINE"
);
},
{
closed = 1;
nodes = (
"1212 40 LINE",
"1212 560 LINE",
"1168 560 LINE",
"1168 180 LINE SMOOTH",
"1168 68 OFFCURVE",
"1160 40 OFFCURVE",
"1048 40 CURVE"
);
},
{
closed = 1;
nodes = (
"340 1440 LINE",
"292 1440 LINE",
"292 0 LINE",
"340 0 LINE"
);
}
);
width = 1318;
},
{
hints = (
{
origin = "{2, 1}";
scale = "{-0.96, 0.99}";
type = Corner;
name = _corner.Serif;
},
{
origin = "{2, 2}";
type = Corner;
name = _corner.Serif;
options = 1;
},
{
origin = "{2, 0}";
scale = "{1.36, 0.99}";
type = Corner;
name = _corner.Serif;
}
);
layerId = "642E5713-E15A-4A7E-A28E-9A6B75A6585C";
paths = (
{
closed = 1;
nodes = (
"1296 160 LINE",
"560 160 LINE",
"560 0 LINE",
"1296 0 LINE"
);
},
{
closed = 1;
nodes = (
"1296 160 LINE",
"1296 560 LINE",
"1126 560 LINE",
"1126 340 LINE SMOOTH",
"1126 208 OFFCURVE",
"1098 160 OFFCURVE",
"966 160 CURVE"
);
},
{
closed = 1;
nodes = (
"560 1440 LINE",
"270 1440 LINE",
"270 0 LINE",
"560 0 LINE"
);
}
);
width = 1364;
},
{
hints = (
{
origin = "{2, 1}";
scale = "{-0.96, 0.98}";
type = Corner;
name = _corner.Serif;
},
{
origin = "{2, 2}";
type = Corner;
name = _corner.Serif;
options = 1;
},
{
origin = "{2, 0}";
scale = "{1.16, 0.98}";
type = Corner;
name = _corner.Serif;
}
);
layerId = "AF891779-7DE6-4679-9CA2-17B922C1DF84";
paths = (
{
closed = 1;
nodes = (
"1314 184 LINE",
"578 184 LINE",
"578 0 LINE",
"1314 0 LINE"
);
},
{
closed = 1;
nodes = (
"1314 184 LINE",
"1314 470 LINE",
"1124 470 LINE",
"1124 364 LINE SMOOTH",
"1124 232 OFFCURVE",
"1096 184 OFFCURVE",
"964 184 CURVE"
);
},
{
closed = 1;
nodes = (
"578 1440 LINE",
"288 1440 LINE",
"288 0 LINE",
"578 0 LINE"
);
}
);
width = 1398;
}
);
leftKerningGroup = I;
leftMetricsKey = I;
rightKerningGroup = L;
unicode = 004C;
},
{
glyphname = M;
lastChange = "2020-08-20 10:46:59 +0000";
layers = (
{
hints = (
{
origin = "{0, 2}";
scale = "{-0.96, 1}";
type = Corner;
name = _corner.Serif;
},
{
origin = "{0, 3}";
type = Corner;
name = _corner.Serif;
options = 1;
},
{
origin = "{0, 4}";
scale = "{-1, 1}";
type = Corner;
name = _corner.Serif;
},
{
origin = "{1, 2}";
type = Corner;
name = _corner.Serif;
},
{
origin = "{1, 3}";
scale = "{-1, 1}";
type = Corner;
name = _corner.Serif;
options = 1;
},
{
origin = "{1, 0}";
scale = "{0.96, 1}";
type = Corner;
name = _corner.Serif;
}
);
layerId = "CA54B7DC-FBBB-40FE-ACF3-AABDD76D6A7B";
paths = (
{
closed = 1;
nodes = (
"400 1356 LINE",
"400 1440 LINE",
"354 1440 LINE",
"354 0 LINE",
"400 0 LINE"
);
},
{
closed = 1;
nodes = (
"1648 1440 LINE",
"1600 1440 LINE",
"1600 0 LINE",
"1648 0 LINE"
);
},
{
closed = 1;
nodes = (
"980 0 LINE",
"1020 0 LINE",
"1600 1357 LINE",
"1600 1440 LINE",
"1586 1440 LINE",
"992 52 LINE",
"1010 52 LINE",
"416 1440 LINE",
"400 1440 LINE",
"400 1356 LINE"
);
}
);
width = 2002;
},
{
hints = (
{
origin = "{0, 2}";
scale = "{-0.96, 1}";
type = Corner;
name = _corner.Serif;
},
{
origin = "{0, 3}";
type = Corner;
name = _corner.Serif;
options = 1;
},
{
origin = "{0, 4}";
scale = "{-1, 1}";
type = Corner;
name = _corner.Serif;
},
{
origin = "{1, 0}";
scale = "{0.96, 1}";
type = Corner;
name = _corner.Serif;
},
{
origin = "{1, 2}";
type = Corner;
name = _corner.Serif;
},
{
origin = "{1, 3}";
scale = "{-1, 1}";
type = Corner;
name = _corner.Serif;
options = 1;
}
);
layerId = "1E61A082-F045-49A7-AB52-DD1B03FD9B54";
paths = (
{
closed = 1;
nodes = (
"336 1356 LINE",
"336 1440 LINE",
"292 1440 LINE",
"292 0 LINE",
"336 0 LINE"
);
},
{
closed = 1;
nodes = (
"1582 1440 LINE",
"1534 1440 LINE",
"1534 0 LINE",
"1582 0 LINE"
);
},
{
closed = 1;
nodes = (
"916 0 LINE",
"954 0 LINE",
"1534 1357 LINE",
"1536 1440 LINE",
"1522 1440 LINE",
"928 52 LINE",
"946 52 LINE",
"352 1440 LINE",
"336 1440 LINE",
"336 1356 LINE"
);
}
);
width = 1874;
},
{
hints = (
{
origin = "{0, 2}";
scale = "{-0.96, 0.99}";
type = Corner;
name = _corner.Serif;
},
{
origin = "{0, 3}";
type = Corner;
name = _corner.Serif;
options = 1;
},
{
origin = "{0, 4}";
scale = "{-1, 1}";
type = Corner;
name = _corner.Serif;
},
{
origin = "{1, 0}";
scale = "{0.96, 0.99}";
type = Corner;
name = _corner.Serif;
},
{
origin = "{1, 2}";
type = Corner;
name = _corner.Serif;
},
{
origin = "{1, 3}";
scale = "{-1, 1}";
type = Corner;
name = _corner.Serif;
options = 1;
}
);
layerId = "642E5713-E15A-4A7E-A28E-9A6B75A6585C";
paths = (
{
closed = 1;
nodes = (
"438 1059 LINE",
"438 1440 LINE",
"270 1440 LINE",
"270 0 LINE",
"438 0 LINE"
);
},
{
closed = 1;
nodes = (
"1838 1440 LINE",
"1550 1440 LINE",
"1550 0 LINE",
"1838 0 LINE"
);
},
{
closed = 1;
nodes = (
"906 0 LINE",
"1096 0 LINE",
"1550 1067 LINE",
"1550 1440 LINE",
"1535 1440 LINE",
"1039 276 LINE",
"1096 276 LINE",
"583 1440 LINE",
"438 1440 LINE",
"438 1059 LINE"
);
}
);
width = 2108;
},
{
hints = (
{
origin = "{0, 2}";
scale = "{-0.96, 0.98}";
type = Corner;
name = _corner.Serif;
},
{
origin = "{0, 3}";
type = Corner;
name = _corner.Serif;
options = 1;
},
{
origin = "{0, 4}";
scale = "{-1, 1}";
type = Corner;
name = _corner.Serif;
},
{
origin = "{1, 0}";
scale = "{0.96, 0.98}";
type = Corner;
name = _corner.Serif;
},
{
origin = "{1, 2}";
type = Corner;
name = _corner.Serif;
},
{
origin = "{1, 3}";
scale = "{-1, 1}";
type = Corner;
name = _corner.Serif;
options = 1;
}
);
layerId = "AF891779-7DE6-4679-9CA2-17B922C1DF84";
paths = (
{
closed = 1;
nodes = (
"482 1056 LINE",
"482 1440 LINE",
"288 1440 LINE",
"288 0 LINE",
"482 0 LINE"
);
},
{
closed = 1;
nodes = (
"1874 1440 LINE",
"1586 1440 LINE",
"1586 0 LINE",
"1874 0 LINE"
);
},
{
closed = 1;
nodes = (
"928 0 LINE",
"1151 0 LINE",
"1586 1058 LINE",
"1586 1440 LINE",
"1549 1440 LINE",
"1055 239 LINE",
"1140 239 LINE",
"633 1440 LINE",
"482 1440 LINE",
"482 1056 LINE"
);
}
);
width = 2162;
}
);
leftKerningGroup = I;
leftMetricsKey = I;
rightKerningGroup = I;
rightMetricsKey = I;
unicode = 004D;
},
{
glyphname = N;
lastChange = "2020-08-20 10:47:18 +0000";
layers = (
{
hints = (
{
origin = "{0, 2}";
scale = "{-0.96, 1}";
type = Corner;
name = _corner.Serif;
},
{
origin = "{0, 3}";
type = Corner;
name = _corner.Serif;
options = 1;
},
{
origin = "{0, 4}";
scale = "{-1, 1}";
type = Corner;
name = _corner.Serif;
},
{
origin = "{2, 0}";
scale = "{0.96, 1}";
type = Corner;
name = _corner.Serif;
},
{
origin = "{2, 1}";
scale = "{-0.96, 1}";
type = Corner;
name = _corner.Serif;
options = 1;
}
);
layerId = "CA54B7DC-FBBB-40FE-ACF3-AABDD76D6A7B";
rightMetricsKey = "=I-24";
paths = (
{
closed = 1;
nodes = (
"400 1361 LINE",
"404 1440 LINE",
"354 1440 LINE",
"354 0 LINE",
"400 0 LINE"
);
},
{
closed = 1;
nodes = (
"404 1440 LINE",
"400 1361 LINE",
"1324 0 LINE",
"1328 79 LINE"
);
},
{
closed = 1;
nodes = (
"1374 1440 LINE",
"1328 1440 LINE",
"1328 79 LINE",
"1324 0 LINE",
"1374 0 LINE"
);
}
);
width = 1696;
},
{
hints = (
{
origin = "{0, 2}";
scale = "{-0.96, 1}";
type = Corner;
name = _corner.Serif;
},
{
origin = "{0, 3}";
type = Corner;
name = _corner.Serif;
options = 1;
},
{
origin = "{0, 4}";
scale = "{-1, 1}";
type = Corner;
name = _corner.Serif;
},
{
origin = "{2, 0}";
scale = "{0.96, 1}";
type = Corner;
name = _corner.Serif;
},
{
origin = "{2, 1}";
scale = "{-0.96, 1}";
type = Corner;
name = _corner.Serif;
options = 1;
}
);
layerId = "1E61A082-F045-49A7-AB52-DD1B03FD9B54";
rightMetricsKey = "=I-16";
paths = (
{
closed = 1;
nodes = (
"336 1361 LINE",
"340 1440 LINE",
"292 1440 LINE",
"292 0 LINE",
"336 0 LINE"
);
},
{
closed = 1;
nodes = (
"340 1440 LINE",
"336 1361 LINE",
"1264 0 LINE",
"1268 79 LINE"
);
},
{
closed = 1;
nodes = (
"1312 1440 LINE",
"1268 1440 LINE",
"1268 79 LINE",
"1264 0 LINE",
"1312 0 LINE"
);
}
);
width = 1579;
},
{
hints = (
{
origin = "{0, 3}";
type = Corner;
name = _corner.Serif;
},
{
origin = "{0, 4}";
scale = "{-1.1, 1}";
type = Corner;
name = _corner.Serif;
options = 1;
},
{
origin = "{0, 2}";
scale = "{-0.96, 0.99}";
type = Corner;
name = _corner.Serif;
},
{
origin = "{2, 0}";
scale = "{0.96, 0.99}";
type = Corner;
name = _corner.Serif;
},
{
origin = "{2, 1}";
scale = "{-1.06, 0.99}";
type = Corner;
name = _corner.Serif;
options = 1;
}
);
layerId = "642E5713-E15A-4A7E-A28E-9A6B75A6585C";
rightMetricsKey = "=I-32";
paths = (
{
closed = 1;
nodes = (
"438 1034 LINE",
"485 1440 LINE",
"270 1440 LINE",
"270 0 LINE",
"438 0 LINE"
);
},
{
closed = 1;
nodes = (
"485 1440 LINE",
"438 1034 LINE",
"1248 0 LINE",
"1249 466 LINE"
);
},
{
closed = 1;
nodes = (
"1417 1440 LINE",
"1249 1440 LINE",
"1249 466 LINE",
"1248 0 LINE",
"1417 0 LINE"
);
}
);
width = 1647;
},
{
hints = (
{
origin = "{0, 2}";
scale = "{-0.96, 0.98}";
type = Corner;
name = _corner.Serif;
},
{
origin = "{0, 3}";
type = Corner;
name = _corner.Serif;
options = 1;
},
{
origin = "{0, 4}";
scale = "{-1, 1}";
type = Corner;
name = _corner.Serif;
},
{
origin = "{2, 0}";
scale = "{0.96, 0.98}";
type = Corner;
name = _corner.Serif;
},
{
origin = "{2, 1}";
scale = "{-0.96, 0.98}";
type = Corner;
name = _corner.Serif;
options = 1;
}
);
layerId = "AF891779-7DE6-4679-9CA2-17B922C1DF84";
rightMetricsKey = "=I-32";
paths = (
{
closed = 1;
nodes = (
"482 1033 LINE",
"539 1440 LINE",
"288 1440 LINE",
"288 0 LINE",
"482 0 LINE"
);
},
{
closed = 1;
nodes = (
"539 1440 LINE",
"482 1033 LINE",
"1250 0 LINE",
"1252 480 LINE"
);
},
{
closed = 1;
nodes = (
"1446 1440 LINE",
"1252 1440 LINE",
"1252 480 LINE",
"1250 0 LINE",
"1446 0 LINE"
);
}
);
width = 1695;
}
);
leftKerningGroup = I;
leftMetricsKey = I;
rightKerningGroup = N;
rightMetricsKey = I;
unicode = 004E;
},
{
glyphname = O;
lastChange = "2020-08-20 10:48:23 +0000";
layers = (
{
layerId = "CA54B7DC-FBBB-40FE-ACF3-AABDD76D6A7B";
paths = (
{
closed = 1;
nodes = (
"1284 -20 OFFCURVE",
"1588 252 OFFCURVE",
"1588 720 CURVE SMOOTH",
"1588 1188 OFFCURVE",
"1284 1460 OFFCURVE",
"878 1460 CURVE SMOOTH",
"472 1460 OFFCURVE",
"168 1188 OFFCURVE",
"168 720 CURVE SMOOTH",
"168 252 OFFCURVE",
"472 -20 OFFCURVE",
"878 -20 CURVE SMOOTH"
);
},
{
closed = 1;
nodes = (
"484 20 OFFCURVE",
"216 296 OFFCURVE",
"216 720 CURVE SMOOTH",
"216 1144 OFFCURVE",
"484 1420 OFFCURVE",
"878 1420 CURVE SMOOTH",
"1272 1420 OFFCURVE",
"1540 1144 OFFCURVE",
"1540 720 CURVE SMOOTH",
"1540 296 OFFCURVE",
"1272 20 OFFCURVE",
"878 20 CURVE SMOOTH"
);
}
);
width = 1756;
},
{
layerId = "1E61A082-F045-49A7-AB52-DD1B03FD9B54";
paths = (
{
closed = 1;
nodes = (
"1250 -20 OFFCURVE",
"1554 252 OFFCURVE",
"1554 720 CURVE SMOOTH",
"1554 1188 OFFCURVE",
"1250 1460 OFFCURVE",
"844 1460 CURVE SMOOTH",
"438 1460 OFFCURVE",
"134 1188 OFFCURVE",
"134 720 CURVE SMOOTH",
"134 252 OFFCURVE",
"438 -20 OFFCURVE",
"844 -20 CURVE SMOOTH"
);
},
{
closed = 1;
nodes = (
"450 20 OFFCURVE",
"182 296 OFFCURVE",
"182 720 CURVE SMOOTH",
"182 1144 OFFCURVE",
"450 1420 OFFCURVE",
"844 1420 CURVE SMOOTH",
"1238 1420 OFFCURVE",
"1506 1144 OFFCURVE",
"1506 720 CURVE SMOOTH",
"1506 296 OFFCURVE",
"1238 20 OFFCURVE",
"844 20 CURVE SMOOTH"
);
}
);
width = 1688;
},
{
layerId = "642E5713-E15A-4A7E-A28E-9A6B75A6585C";
paths = (
{
closed = 1;
nodes = (
"1311 -20 OFFCURVE",
"1644 252 OFFCURVE",
"1644 720 CURVE SMOOTH",
"1644 1188 OFFCURVE",
"1311 1460 OFFCURVE",
"856 1460 CURVE SMOOTH",
"401 1460 OFFCURVE",
"68 1188 OFFCURVE",
"68 720 CURVE SMOOTH",
"68 252 OFFCURVE",
"401 -20 OFFCURVE",
"856 -20 CURVE SMOOTH"
);
},
{
closed = 1;
nodes = (
"564 138 OFFCURVE",
"378 367 OFFCURVE",
"378 720 CURVE SMOOTH",
"378 1073 OFFCURVE",
"564 1302 OFFCURVE",
"856 1302 CURVE SMOOTH",
"1148 1302 OFFCURVE",
"1334 1073 OFFCURVE",
"1334 720 CURVE SMOOTH",
"1334 367 OFFCURVE",
"1148 138 OFFCURVE",
"856 138 CURVE SMOOTH"
);
}
);
width = 1712;
},
{
layerId = "AF891779-7DE6-4679-9CA2-17B922C1DF84";
paths = (
{
closed = 1;
nodes = (
"1347 -20 OFFCURVE",
"1682 252 OFFCURVE",
"1682 720 CURVE SMOOTH",
"1682 1188 OFFCURVE",
"1347 1460 OFFCURVE",
"890 1460 CURVE SMOOTH",
"433 1460 OFFCURVE",
"98 1188 OFFCURVE",
"98 720 CURVE SMOOTH",
"98 252 OFFCURVE",
"433 -20 OFFCURVE",
"890 -20 CURVE SMOOTH"
);
},
{
closed = 1;
nodes = (
"597 162 OFFCURVE",
"408 382 OFFCURVE",
"408 720 CURVE SMOOTH",
"408 1058 OFFCURVE",
"597 1278 OFFCURVE",
"890 1278 CURVE SMOOTH",
"1183 1278 OFFCURVE",
"1372 1058 OFFCURVE",
"1372 720 CURVE SMOOTH",
"1372 382 OFFCURVE",
"1183 162 OFFCURVE",
"890 162 CURVE SMOOTH"
);
}
);
width = 1780;
}
);
leftKerningGroup = O;
rightKerningGroup = O;
unicode = 004F;
},
{
glyphname = P;
lastChange = "2020-08-20 10:48:51 +0000";
layers = (
{
hints = (
{
origin = "{1, 0}";
type = Corner;
name = _corner.Serif;
options = 1;
},
{
origin = "{1, 1}";
scale = "{-1.2, 1}";
type = Corner;
name = _corner.Serif;
},
{
origin = "{1, 3}";
scale = "{-0.96, 1}";
type = Corner;
name = _corner.Serif;
}
);
layerId = "CA54B7DC-FBBB-40FE-ACF3-AABDD76D6A7B";
paths = (
{
closed = 1;
nodes = (
"402 1398 LINE",
"872 1398 LINE SMOOTH",
"1132 1398 OFFCURVE",
"1296 1284 OFFCURVE",
"1296 1056 CURVE SMOOTH",
"1296 828 OFFCURVE",
"1132 714 OFFCURVE",
"872 714 CURVE SMOOTH",
"402 714 LINE",
"402 672 LINE",
"884 672 LINE SMOOTH",
"1160 672 OFFCURVE",
"1344 802 OFFCURVE",
"1344 1056 CURVE SMOOTH",
"1344 1310 OFFCURVE",
"1160 1440 OFFCURVE",
"884 1440 CURVE SMOOTH",
"402 1440 LINE"
);
},
{
closed = 1;
nodes = (
"354 0 LINE",
"402 0 LINE",
"402 1440 LINE",
"354 1440 LINE"
);
}
);
width = 1424;
},
{
hints = (
{
origin = "{1, 0}";
type = Corner;
name = _corner.Serif;
options = 1;
},
{
origin = "{1, 1}";
scale = "{-1.4, 1}";
type = Corner;
name = _corner.Serif;
},
{
origin = "{1, 3}";
scale = "{-0.96, 1}";
type = Corner;
name = _corner.Serif;
}
);
layerId = "1E61A082-F045-49A7-AB52-DD1B03FD9B54";
paths = (
{
closed = 1;
nodes = (
"340 1400 LINE",
"810 1400 LINE SMOOTH",
"1070 1400 OFFCURVE",
"1234 1284 OFFCURVE",
"1234 1056 CURVE SMOOTH",
"1234 828 OFFCURVE",
"1070 712 OFFCURVE",
"810 712 CURVE SMOOTH",
"340 712 LINE",
"340 672 LINE",
"822 672 LINE SMOOTH",
"1098 672 OFFCURVE",
"1282 802 OFFCURVE",
"1282 1056 CURVE SMOOTH",
"1282 1310 OFFCURVE",
"1098 1440 OFFCURVE",
"822 1440 CURVE SMOOTH",
"340 1440 LINE"
);
},
{
closed = 1;
nodes = (
"292 0 LINE",
"340 0 LINE",
"340 1440 LINE",
"292 1440 LINE"
);
}
);
width = 1354;
},
{
hints = (
{
origin = "{1, 0}";
type = Corner;
name = _corner.Serif;
options = 1;
},
{
origin = "{1, 1}";
scale = "{-1.4, 1}";
type = Corner;
name = _corner.Serif;
},
{
origin = "{1, 3}";
scale = "{-0.96, 0.99}";
type = Corner;
name = _corner.Serif;
}
);
layerId = "642E5713-E15A-4A7E-A28E-9A6B75A6585C";
paths = (
{
closed = 1;
nodes = (
"560 1282 LINE",
"850 1282 LINE SMOOTH",
"1024 1282 OFFCURVE",
"1132 1199 OFFCURVE",
"1132 1032 CURVE SMOOTH",
"1132 865 OFFCURVE",
"1024 782 OFFCURVE",
"850 782 CURVE SMOOTH",
"560 782 LINE",
"560 624 LINE",
"926 624 LINE SMOOTH",
"1229 624 OFFCURVE",
"1430 762 OFFCURVE",
"1430 1032 CURVE SMOOTH",
"1430 1302 OFFCURVE",
"1229 1440 OFFCURVE",
"926 1440 CURVE SMOOTH",
"560 1440 LINE"
);
},
{
closed = 1;
nodes = (
"270 0 LINE",
"560 0 LINE",
"560 1440 LINE",
"270 1440 LINE"
);
}
);
width = 1473;
},
{
hints = (
{
origin = "{1, 0}";
type = Corner;
name = _corner.Serif;
options = 1;
},
{
origin = "{1, 1}";
scale = "{-1.2, 1}";
type = Corner;
name = _corner.Serif;
},
{
origin = "{1, 3}";
scale = "{-0.96, 0.98}";
type = Corner;
name = _corner.Serif;
}
);
layerId = "AF891779-7DE6-4679-9CA2-17B922C1DF84";
paths = (
{
closed = 1;
nodes = (
"578 1260 LINE",
"882 1260 LINE SMOOTH",
"1047 1260 OFFCURVE",
"1150 1180 OFFCURVE",
"1150 1026 CURVE SMOOTH",
"1150 872 OFFCURVE",
"1047 792 OFFCURVE",
"882 792 CURVE SMOOTH",
"578 792 LINE",
"578 612 LINE",
"938 612 LINE SMOOTH",
"1244 612 OFFCURVE",
"1448 752 OFFCURVE",
"1448 1026 CURVE SMOOTH",
"1448 1300 OFFCURVE",
"1244 1440 OFFCURVE",
"938 1440 CURVE SMOOTH",
"578 1440 LINE"
);
},
{
closed = 1;
nodes = (
"288 0 LINE",
"578 0 LINE",
"578 1440 LINE",
"288 1440 LINE"
);
}
);
width = 1497;
}
);
leftKerningGroup = I;
leftMetricsKey = I;
rightKerningGroup = P;
unicode = 0050;
},
{
glyphname = Q;
lastChange = "2020-08-20 10:48:24 +0000";
layers = (
{
layerId = "CA54B7DC-FBBB-40FE-ACF3-AABDD76D6A7B";
paths = (
{
closed = 1;
nodes = (
"1125 0 LINE",
"1125 196 LINE SMOOTH",
"1125 345 OFFCURVE",
"1046 420 OFFCURVE",
"932 420 CURVE SMOOTH",
"818 420 OFFCURVE",
"736 345 OFFCURVE",
"736 196 CURVE SMOOTH",
"736 0 LINE",
"780 0 LINE",
"780 196 LINE SMOOTH",
"780 319 OFFCURVE",
"834 380 OFFCURVE",
"930 380 CURVE SMOOTH",
"1026 380 OFFCURVE",
"1079 319 OFFCURVE",
"1079 196 CURVE SMOOTH",
"1079 0 LINE"
);
},
{
closed = 1;
nodes = (
"1424 -116 LINE SMOOTH",
"1424 -239 OFFCURVE",
"1370 -300 OFFCURVE",
"1274 -300 CURVE SMOOTH",
"1178 -300 OFFCURVE",
"1125 -239 OFFCURVE",
"1125 -116 CURVE SMOOTH",
"1125 0 LINE",
"1079 0 LINE",
"1079 -116 LINE SMOOTH",
"1079 -265 OFFCURVE",
"1162 -340 OFFCURVE",
"1276 -340 CURVE SMOOTH",
"1390 -340 OFFCURVE",
"1468 -265 OFFCURVE",
"1468 -116 CURVE SMOOTH",
"1468 0 LINE",
"1424 0 LINE"
);
},
{
closed = 1;
nodes = (
"1284 -20 OFFCURVE",
"1588 252 OFFCURVE",
"1588 720 CURVE SMOOTH",
"1588 1188 OFFCURVE",
"1284 1460 OFFCURVE",
"878 1460 CURVE SMOOTH",
"472 1460 OFFCURVE",
"168 1188 OFFCURVE",
"168 720 CURVE SMOOTH",
"168 252 OFFCURVE",
"472 -20 OFFCURVE",
"878 -20 CURVE SMOOTH"
);
},
{
closed = 1;
nodes = (
"484 20 OFFCURVE",
"216 296 OFFCURVE",
"216 720 CURVE SMOOTH",
"216 1144 OFFCURVE",
"484 1420 OFFCURVE",
"878 1420 CURVE SMOOTH",
"1272 1420 OFFCURVE",
"1540 1144 OFFCURVE",
"1540 720 CURVE SMOOTH",
"1540 296 OFFCURVE",
"1272 20 OFFCURVE",
"878 20 CURVE SMOOTH"
);
}
);
width = 1756;
},
{
layerId = "1E61A082-F045-49A7-AB52-DD1B03FD9B54";
paths = (
{
closed = 1;
nodes = (
"1090 0 LINE",
"1090 196 LINE SMOOTH",
"1090 345 OFFCURVE",
"1012 420 OFFCURVE",
"898 420 CURVE SMOOTH",
"784 420 OFFCURVE",
"702 345 OFFCURVE",
"702 196 CURVE SMOOTH",
"702 0 LINE",
"746 0 LINE",
"746 196 LINE SMOOTH",
"746 319 OFFCURVE",
"800 380 OFFCURVE",
"896 380 CURVE SMOOTH",
"992 380 OFFCURVE",
"1046 319 OFFCURVE",
"1046 196 CURVE SMOOTH",
"1046 0 LINE"
);
},
{
closed = 1;
nodes = (
"1390 -116 LINE SMOOTH",
"1390 -239 OFFCURVE",
"1336 -300 OFFCURVE",
"1240 -300 CURVE SMOOTH",
"1144 -300 OFFCURVE",
"1090 -239 OFFCURVE",
"1090 -116 CURVE SMOOTH",
"1090 0 LINE",
"1046 0 LINE",
"1046 -116 LINE SMOOTH",
"1046 -265 OFFCURVE",
"1128 -340 OFFCURVE",
"1242 -340 CURVE SMOOTH",
"1356 -340 OFFCURVE",
"1434 -265 OFFCURVE",
"1434 -116 CURVE SMOOTH",
"1434 0 LINE",
"1390 0 LINE"
);
},
{
closed = 1;
nodes = (
"1250 -20 OFFCURVE",
"1554 252 OFFCURVE",
"1554 720 CURVE SMOOTH",
"1554 1188 OFFCURVE",
"1250 1460 OFFCURVE",
"844 1460 CURVE SMOOTH",
"438 1460 OFFCURVE",
"134 1188 OFFCURVE",
"134 720 CURVE SMOOTH",
"134 252 OFFCURVE",
"438 -20 OFFCURVE",
"844 -20 CURVE SMOOTH"
);
},
{
closed = 1;
nodes = (
"450 20 OFFCURVE",
"182 296 OFFCURVE",
"182 720 CURVE SMOOTH",
"182 1144 OFFCURVE",
"450 1420 OFFCURVE",
"844 1420 CURVE SMOOTH",
"1238 1420 OFFCURVE",
"1506 1144 OFFCURVE",
"1506 720 CURVE SMOOTH",
"1506 296 OFFCURVE",
"1238 20 OFFCURVE",
"844 20 CURVE SMOOTH"
);
}
);
width = 1688;
},
{
layerId = "642E5713-E15A-4A7E-A28E-9A6B75A6585C";
paths = (
{
closed = 1;
nodes = (
"1154 0 LINE",
"1154 282 LINE SMOOTH",
"1154 466 OFFCURVE",
"1043 560 OFFCURVE",
"889 560 CURVE SMOOTH",
"735 560 OFFCURVE",
"624 466 OFFCURVE",
"624 282 CURVE SMOOTH",
"624 44 LINE",
"786 44 LINE",
"786 306 LINE SMOOTH",
"786 355 OFFCURVE",
"810 382 OFFCURVE",
"852 382 CURVE SMOOTH",
"894 382 OFFCURVE",
"918 355 OFFCURVE",
"918 306 CURVE SMOOTH",
"918 0 LINE"
);
},
{
closed = 1;
nodes = (
"1286 -80 LINE SMOOTH",
"1286 -129 OFFCURVE",
"1262 -156 OFFCURVE",
"1220 -156 CURVE SMOOTH",
"1178 -156 OFFCURVE",
"1154 -129 OFFCURVE",
"1154 -80 CURVE SMOOTH",
"1154 0 LINE",
"918 0 LINE",
"918 -52 LINE SMOOTH",
"918 -236 OFFCURVE",
"1027 -330 OFFCURVE",
"1181 -330 CURVE SMOOTH",
"1335 -330 OFFCURVE",
"1444 -236 OFFCURVE",
"1444 -52 CURVE SMOOTH",
"1444 0 LINE",
"1286 0 LINE"
);
},
{
closed = 1;
nodes = (
"1311 -20 OFFCURVE",
"1644 252 OFFCURVE",
"1644 720 CURVE SMOOTH",
"1644 1188 OFFCURVE",
"1311 1460 OFFCURVE",
"856 1460 CURVE SMOOTH",
"401 1460 OFFCURVE",
"68 1188 OFFCURVE",
"68 720 CURVE SMOOTH",
"68 252 OFFCURVE",
"401 -20 OFFCURVE",
"856 -20 CURVE SMOOTH"
);
},
{
closed = 1;
nodes = (
"564 138 OFFCURVE",
"378 367 OFFCURVE",
"378 720 CURVE SMOOTH",
"378 1073 OFFCURVE",
"564 1302 OFFCURVE",
"856 1302 CURVE SMOOTH",
"1148 1302 OFFCURVE",
"1334 1073 OFFCURVE",
"1334 720 CURVE SMOOTH",
"1334 367 OFFCURVE",
"1148 138 OFFCURVE",
"856 138 CURVE SMOOTH"
);
}
);
width = 1712;
},
{
layerId = "AF891779-7DE6-4679-9CA2-17B922C1DF84";
paths = (
{
closed = 1;
nodes = (
"1188 0 LINE",
"1188 272 LINE SMOOTH",
"1188 456 OFFCURVE",
"1075 550 OFFCURVE",
"917 550 CURVE SMOOTH",
"759 550 OFFCURVE",
"646 456 OFFCURVE",
"646 272 CURVE SMOOTH",
"646 44 LINE",
"832 44 LINE",
"832 294 LINE SMOOTH",
"832 339 OFFCURVE",
"854 364 OFFCURVE",
"892 364 CURVE SMOOTH",
"930 364 OFFCURVE",
"952 339 OFFCURVE",
"952 294 CURVE SMOOTH",
"952 0 LINE"
);
},
{
closed = 1;
nodes = (
"1308 -78 LINE SMOOTH",
"1308 -123 OFFCURVE",
"1286 -148 OFFCURVE",
"1248 -148 CURVE SMOOTH",
"1210 -148 OFFCURVE",
"1188 -123 OFFCURVE",
"1188 -78 CURVE SMOOTH",
"1188 0 LINE",
"952 0 LINE",
"952 -52 LINE SMOOTH",
"952 -236 OFFCURVE",
"1063 -330 OFFCURVE",
"1221 -330 CURVE SMOOTH",
"1379 -330 OFFCURVE",
"1490 -236 OFFCURVE",
"1490 -52 CURVE SMOOTH",
"1490 0 LINE",
"1308 0 LINE"
);
},
{
closed = 1;
nodes = (
"1347 -20 OFFCURVE",
"1682 252 OFFCURVE",
"1682 720 CURVE SMOOTH",
"1682 1188 OFFCURVE",
"1347 1460 OFFCURVE",
"890 1460 CURVE SMOOTH",
"433 1460 OFFCURVE",
"98 1188 OFFCURVE",
"98 720 CURVE SMOOTH",
"98 252 OFFCURVE",
"433 -20 OFFCURVE",
"890 -20 CURVE SMOOTH"
);
},
{
closed = 1;
nodes = (
"597 162 OFFCURVE",
"408 382 OFFCURVE",
"408 720 CURVE SMOOTH",
"408 1058 OFFCURVE",
"597 1278 OFFCURVE",
"890 1278 CURVE SMOOTH",
"1183 1278 OFFCURVE",
"1372 1058 OFFCURVE",
"1372 720 CURVE SMOOTH",
"1372 382 OFFCURVE",
"1183 162 OFFCURVE",
"890 162 CURVE SMOOTH"
);
}
);
width = 1780;
}
);
leftKerningGroup = O;
leftMetricsKey = O;
rightKerningGroup = O;
rightMetricsKey = O;
unicode = 0051;
},
{
glyphname = R;
lastChange = "2020-08-20 10:49:20 +0000";
layers = (
{
hints = (
{
origin = "{2, 0}";
type = Corner;
name = _corner.Serif;
options = 1;
},
{
origin = "{2, 1}";
scale = "{-1.2, 1}";
type = Corner;
name = _corner.Serif;
},
{
origin = "{2, 3}";
scale = "{-0.96, 1}";
type = Corner;
name = _corner.Serif;
}
);
layerId = "CA54B7DC-FBBB-40FE-ACF3-AABDD76D6A7B";
paths = (
{
closed = 1;
nodes = (
"402 1398 LINE",
"902 1398 LINE SMOOTH",
"1162 1398 OFFCURVE",
"1326 1290 OFFCURVE",
"1326 1072 CURVE SMOOTH",
"1326 854 OFFCURVE",
"1162 746 OFFCURVE",
"902 746 CURVE SMOOTH",
"402 746 LINE",
"402 704 LINE",
"868 704 LINE",
"891 704 LINE",
"914 704 LINE SMOOTH",
"1186 704 OFFCURVE",
"1374 828 OFFCURVE",
"1374 1072 CURVE SMOOTH",
"1374 1316 OFFCURVE",
"1186 1440 OFFCURVE",
"914 1440 CURVE SMOOTH",
"402 1440 LINE"
);
},
{
closed = 1;
nodes = (
"402 704 LINE",
"832 704 LINE SMOOTH",
"994 704 OFFCURVE",
"1084 608 OFFCURVE",
"1084 436 CURVE SMOOTH",
"1084 172 LINE SMOOTH",
"1084 55 OFFCURVE",
"1137 -20 OFFCURVE",
"1252 -20 CURVE SMOOTH",
"1367 -20 OFFCURVE",
"1420 55 OFFCURVE",
"1420 172 CURVE SMOOTH",
"1420 280 LINE",
"1376 280 LINE",
"1376 172 LINE SMOOTH",
"1376 87 OFFCURVE",
"1342 20 OFFCURVE",
"1254 20 CURVE SMOOTH",
"1166 20 OFFCURVE",
"1132 87 OFFCURVE",
"1132 172 CURVE SMOOTH",
"1132 428 LINE SMOOTH",
"1132 622 OFFCURVE",
"1042 730 OFFCURVE",
"850 730 CURVE SMOOTH",
"402 730 LINE"
);
},
{
closed = 1;
nodes = (
"354 0 LINE",
"402 0 LINE",
"402 1440 LINE",
"354 1440 LINE"
);
}
);
width = 1528;
},
{
hints = (
{
origin = "{2, 0}";
type = Corner;
name = _corner.Serif;
options = 1;
},
{
origin = "{2, 1}";
scale = "{-1.4, 1}";
type = Corner;
name = _corner.Serif;
},
{
origin = "{2, 3}";
scale = "{-0.96, 1}";
type = Corner;
name = _corner.Serif;
}
);
layerId = "1E61A082-F045-49A7-AB52-DD1B03FD9B54";
paths = (
{
closed = 1;
nodes = (
"340 1400 LINE",
"840 1400 LINE SMOOTH",
"1100 1400 OFFCURVE",
"1264 1290 OFFCURVE",
"1264 1072 CURVE SMOOTH",
"1264 854 OFFCURVE",
"1100 744 OFFCURVE",
"840 744 CURVE SMOOTH",
"340 744 LINE",
"340 704 LINE",
"806 704 LINE",
"828 704 LINE",
"852 704 LINE SMOOTH",
"1124 704 OFFCURVE",
"1312 828 OFFCURVE",
"1312 1072 CURVE SMOOTH",
"1312 1316 OFFCURVE",
"1124 1440 OFFCURVE",
"852 1440 CURVE SMOOTH",
"340 1440 LINE"
);
},
{
closed = 1;
nodes = (
"340 704 LINE",
"716 704 LINE SMOOTH",
"878 704 OFFCURVE",
"968 608 OFFCURVE",
"968 436 CURVE SMOOTH",
"968 180 LINE SMOOTH",
"968 58 OFFCURVE",
"1024 -20 OFFCURVE",
"1144 -20 CURVE SMOOTH",
"1264 -20 OFFCURVE",
"1320 58 OFFCURVE",
"1320 180 CURVE SMOOTH",
"1320 560 LINE",
"1276 560 LINE",
"1276 180 LINE SMOOTH",
"1276 90 OFFCURVE",
"1240 20 OFFCURVE",
"1146 20 CURVE SMOOTH",
"1052 20 OFFCURVE",
"1016 90 OFFCURVE",
"1016 180 CURVE SMOOTH",
"1016 428 LINE SMOOTH",
"1016 622 OFFCURVE",
"926 730 OFFCURVE",
"734 730 CURVE SMOOTH",
"340 730 LINE"
);
},
{
closed = 1;
nodes = (
"292 0 LINE",
"340 0 LINE",
"340 1440 LINE",
"292 1440 LINE"
);
}
);
width = 1434;
},
{
hints = (
{
origin = "{2, 0}";
type = Corner;
name = _corner.Serif;
options = 1;
},
{
origin = "{2, 1}";
scale = "{-1, 1}";
type = Corner;
name = _corner.Serif;
},
{
origin = "{2, 3}";
scale = "{-0.96, 0.99}";
type = Corner;
name = _corner.Serif;
}
);
layerId = "642E5713-E15A-4A7E-A28E-9A6B75A6585C";
paths = (
{
closed = 1;
nodes = (
"560 1282 LINE",
"892 1282 LINE SMOOTH",
"1060 1282 OFFCURVE",
"1164 1202 OFFCURVE",
"1164 1042 CURVE SMOOTH",
"1164 882 OFFCURVE",
"1060 802 OFFCURVE",
"892 802 CURVE SMOOTH",
"560 802 LINE",
"560 644 LINE",
"817 644 LINE",
"817 660 LINE",
"958 660 LINE SMOOTH",
"1261 660 OFFCURVE",
"1462 792 OFFCURVE",
"1462 1050 CURVE SMOOTH",
"1462 1308 OFFCURVE",
"1265 1440 OFFCURVE",
"968 1440 CURVE SMOOTH",
"560 1440 LINE"
);
},
{
closed = 1;
nodes = (
"560 644 LINE",
"668 644 LINE SMOOTH",
"791 644 OFFCURVE",
"860 576 OFFCURVE",
"860 456 CURVE SMOOTH",
"860 282 LINE SMOOTH",
"860 99 OFFCURVE",
"954 -20 OFFCURVE",
"1164 -20 CURVE SMOOTH",
"1361 -20 OFFCURVE",
"1450 91 OFFCURVE",
"1450 262 CURVE SMOOTH",
"1450 580 LINE",
"1282 580 LINE",
"1282 256 LINE SMOOTH",
"1282 203 OFFCURVE",
"1262 166 OFFCURVE",
"1210 166 CURVE SMOOTH",
"1158 166 OFFCURVE",
"1138 203 OFFCURVE",
"1138 256 CURVE SMOOTH",
"1138 380 LINE SMOOTH",
"1138 565 OFFCURVE",
"1045 668 OFFCURVE",
"826 668 CURVE SMOOTH",
"560 668 LINE"
);
},
{
closed = 1;
nodes = (
"270 0 LINE",
"560 0 LINE",
"560 1440 LINE",
"270 1440 LINE"
);
}
);
width = 1532;
},
{
hints = (
{
origin = "{2, 0}";
type = Corner;
name = _corner.Serif;
options = 1;
},
{
origin = "{2, 1}";
scale = "{-1.2, 1}";
type = Corner;
name = _corner.Serif;
},
{
origin = "{2, 3}";
scale = "{-0.96, 0.98}";
type = Corner;
name = _corner.Serif;
}
);
layerId = "AF891779-7DE6-4679-9CA2-17B922C1DF84";
paths = (
{
closed = 1;
nodes = (
"578 1260 LINE",
"924 1260 LINE SMOOTH",
"1083 1260 OFFCURVE",
"1182 1184 OFFCURVE",
"1182 1038 CURVE SMOOTH",
"1182 892 OFFCURVE",
"1083 816 OFFCURVE",
"924 816 CURVE SMOOTH",
"578 816 LINE",
"578 636 LINE",
"834 636 LINE",
"874 654 LINE",
"980 654 LINE SMOOTH",
"1280 654 OFFCURVE",
"1480 788 OFFCURVE",
"1480 1048 CURVE SMOOTH",
"1480 1307 OFFCURVE",
"1280 1440 OFFCURVE",
"980 1440 CURVE SMOOTH",
"578 1440 LINE"
);
},
{
closed = 1;
nodes = (
"578 636 LINE",
"740 636 LINE SMOOTH",
"855 636 OFFCURVE",
"920 572 OFFCURVE",
"920 460 CURVE SMOOTH",
"920 280 LINE SMOOTH",
"920 97 OFFCURVE",
"1020 -20 OFFCURVE",
"1230 -20 CURVE SMOOTH",
"1426 -20 OFFCURVE",
"1516 89 OFFCURVE",
"1516 260 CURVE SMOOTH",
"1516 330 LINE",
"1340 330 LINE",
"1340 260 LINE SMOOTH",
"1340 214 OFFCURVE",
"1321 182 OFFCURVE",
"1273 182 CURVE SMOOTH",
"1225 182 OFFCURVE",
"1206 214 OFFCURVE",
"1206 260 CURVE SMOOTH",
"1206 386 LINE SMOOTH",
"1206 580 OFFCURVE",
"1107 688 OFFCURVE",
"874 688 CURVE SMOOTH",
"578 688 LINE"
);
},
{
closed = 1;
nodes = (
"288 0 LINE",
"578 0 LINE",
"578 1440 LINE",
"288 1440 LINE"
);
}
);
width = 1590;
}
);
leftKerningGroup = I;
leftMetricsKey = I;
rightKerningGroup = R;
unicode = 0052;
},
{
glyphname = S;
lastChange = "2020-08-20 10:50:34 +0000";
layers = (
{
layerId = "CA54B7DC-FBBB-40FE-ACF3-AABDD76D6A7B";
paths = (
{
closed = 1;
nodes = (
"230 839 OFFCURVE",
"431 765 OFFCURVE",
"658 732 CURVE SMOOTH",
"866 702 LINE SMOOTH",
"1091 669 OFFCURVE",
"1274 598 OFFCURVE",
"1274 366 CURVE SMOOTH",
"1274 150 OFFCURVE",
"1110 24 OFFCURVE",
"846 24 CURVE SMOOTH",
"582 24 OFFCURVE",
"366 148 OFFCURVE",
"262 420 CURVE",
"222 420 LINE",
"316 114 OFFCURVE",
"562 -16 OFFCURVE",
"846 -16 CURVE SMOOTH",
"1130 -16 OFFCURVE",
"1322 114 OFFCURVE",
"1322 366 CURVE SMOOTH",
"1322 625 OFFCURVE",
"1127 709 OFFCURVE",
"874 746 CURVE SMOOTH",
"666 776 LINE SMOOTH",
"453 807 OFFCURVE",
"278 875 OFFCURVE",
"278 1094 CURVE SMOOTH",
"278 1302 OFFCURVE",
"440 1416 OFFCURVE",
"696 1416 CURVE SMOOTH",
"952 1416 OFFCURVE",
"1152 1304 OFFCURVE",
"1246 1040 CURVE",
"1286 1040 LINE",
"1206 1340 OFFCURVE",
"968 1456 OFFCURVE",
"696 1456 CURVE SMOOTH",
"424 1456 OFFCURVE",
"230 1338 OFFCURVE",
"230 1094 CURVE SMOOTH"
);
},
{
closed = 1;
nodes = (
"1246 1440 LINE",
"1246 1114 LINE",
"1286 1040 LINE",
"1290 1040 LINE",
"1290 1440 LINE"
);
},
{
closed = 1;
nodes = (
"262 0 LINE",
"262 342 LINE",
"222 420 LINE",
"218 420 LINE",
"218 0 LINE"
);
}
);
width = 1520;
},
{
layerId = "1E61A082-F045-49A7-AB52-DD1B03FD9B54";
paths = (
{
closed = 1;
nodes = (
"180 854 OFFCURVE",
"366 780 OFFCURVE",
"608 736 CURVE SMOOTH",
"816 698 LINE SMOOTH",
"1041 657 OFFCURVE",
"1224 590 OFFCURVE",
"1224 360 CURVE SMOOTH",
"1224 144 OFFCURVE",
"1070 24 OFFCURVE",
"806 24 CURVE SMOOTH",
"542 24 OFFCURVE",
"316 180 OFFCURVE",
"212 520 CURVE",
"172 520 LINE",
"266 144 OFFCURVE",
"522 -16 OFFCURVE",
"806 -16 CURVE SMOOTH",
"1090 -16 OFFCURVE",
"1272 108 OFFCURVE",
"1272 360 CURVE SMOOTH",
"1272 614 OFFCURVE",
"1082 695 OFFCURVE",
"824 742 CURVE SMOOTH",
"616 780 LINE SMOOTH",
"393 821 OFFCURVE",
"228 886 OFFCURVE",
"228 1100 CURVE SMOOTH",
"228 1308 OFFCURVE",
"380 1416 OFFCURVE",
"636 1416 CURVE SMOOTH",
"892 1416 OFFCURVE",
"1102 1273 OFFCURVE",
"1196 940 CURVE",
"1236 940 LINE",
"1156 1311 OFFCURVE",
"908 1456 OFFCURVE",
"636 1456 CURVE SMOOTH",
"364 1456 OFFCURVE",
"180 1344 OFFCURVE",
"180 1100 CURVE SMOOTH"
);
},
{
closed = 1;
nodes = (
"1196 1440 LINE",
"1196 1014 LINE",
"1236 940 LINE",
"1240 940 LINE",
"1240 1440 LINE"
);
},
{
closed = 1;
nodes = (
"212 0 LINE",
"212 442 LINE",
"172 520 LINE",
"168 520 LINE",
"168 0 LINE"
);
}
);
width = 1436;
},
{
layerId = "642E5713-E15A-4A7E-A28E-9A6B75A6585C";
paths = (
{
closed = 1;
nodes = (
"112 762 OFFCURVE",
"331 648 OFFCURVE",
"631 600 CURVE SMOOTH",
"795 574 LINE SMOOTH",
"950 549 OFFCURVE",
"1076 500 OFFCURVE",
"1076 358 CURVE SMOOTH",
"1076 216 OFFCURVE",
"974 140 OFFCURVE",
"797 140 CURVE SMOOTH",
"565 140 OFFCURVE",
"370 274 OFFCURVE",
"284 530 CURVE",
"155 530 LINE",
"244 135 OFFCURVE",
"497 -20 OFFCURVE",
"807 -20 CURVE SMOOTH",
"1117 -20 OFFCURVE",
"1324 133 OFFCURVE",
"1324 427 CURVE SMOOTH",
"1324 713 OFFCURVE",
"1093 821 OFFCURVE",
"783 870 CURVE SMOOTH",
"619 896 LINE SMOOTH",
"470 920 OFFCURVE",
"358 973 OFFCURVE",
"358 1103 CURVE SMOOTH",
"358 1234 OFFCURVE",
"458 1300 OFFCURVE",
"631 1300 CURVE SMOOTH",
"842 1300 OFFCURVE",
"1027 1178 OFFCURVE",
"1107 940 CURVE",
"1236 940 LINE",
"1148 1314 OFFCURVE",
"909 1460 OFFCURVE",
"621 1460 CURVE SMOOTH",
"333 1460 OFFCURVE",
"112 1329 OFFCURVE",
"112 1048 CURVE SMOOTH"
);
},
{
closed = 1;
nodes = (
"1118 1440 LINE",
"1118 1014 LINE",
"1236 940 LINE",
"1280 940 LINE",
"1280 1440 LINE"
);
},
{
closed = 1;
nodes = (
"272 0 LINE",
"272 442 LINE",
"155 530 LINE",
"110 530 LINE",
"110 0 LINE"
);
}
);
width = 1420;
},
{
layerId = "AF891779-7DE6-4679-9CA2-17B922C1DF84";
paths = (
{
closed = 1;
nodes = (
"144 764 OFFCURVE",
"362 646 OFFCURVE",
"663 604 CURVE SMOOTH",
"827 581 LINE SMOOTH",
"974 560 OFFCURVE",
"1092 510 OFFCURVE",
"1092 378 CURVE SMOOTH",
"1092 247 OFFCURVE",
"990 162 OFFCURVE",
"809 162 CURVE SMOOTH",
"605 162 OFFCURVE",
"424 277 OFFCURVE",
"340 440 CURVE",
"173 440 LINE",
"282 107 OFFCURVE",
"537 -20 OFFCURVE",
"845 -20 CURVE SMOOTH",
"1153 -20 OFFCURVE",
"1356 134 OFFCURVE",
"1356 428 CURVE SMOOTH",
"1356 714 OFFCURVE",
"1126 821 OFFCURVE",
"815 865 CURVE SMOOTH",
"651 888 LINE SMOOTH",
"510 908 OFFCURVE",
"406 966 OFFCURVE",
"406 1086 CURVE SMOOTH",
"406 1206 OFFCURVE",
"512 1278 OFFCURVE",
"679 1278 CURVE SMOOTH",
"869 1278 OFFCURVE",
"1029 1189 OFFCURVE",
"1115 1030 CURVE",
"1292 1030 LINE",
"1179 1324 OFFCURVE",
"943 1460 OFFCURVE",
"655 1460 CURVE SMOOTH",
"367 1460 OFFCURVE",
"144 1329 OFFCURVE",
"144 1048 CURVE SMOOTH"
);
},
{
closed = 1;
nodes = (
"1122 1440 LINE",
"1122 1194 LINE",
"1292 1030 LINE",
"1308 1030 LINE",
"1308 1440 LINE"
);
},
{
closed = 1;
nodes = (
"332 0 LINE",
"332 262 LINE",
"173 440 LINE",
"146 440 LINE",
"146 0 LINE"
);
}
);
width = 1488;
}
);
leftKerningGroup = S;
rightKerningGroup = S;
unicode = 0053;
},
{
glyphname = T;
lastChange = "2020-08-20 10:49:54 +0000";
layers = (
{
hints = (
{
origin = "{0, 2}";
scale = "{1.2, 1}";
type = Corner;
name = _corner.Serif;
},
{
origin = "{0, 3}";
scale = "{-1.2, 1}";
type = Corner;
name = _corner.Serif;
options = 1;
}
);
layerId = "CA54B7DC-FBBB-40FE-ACF3-AABDD76D6A7B";
paths = (
{
closed = 1;
nodes = (
"794 1440 LINE",
"746 1440 LINE",
"746 0 LINE",
"794 0 LINE"
);
},
{
closed = 1;
nodes = (
"1414 1440 LINE",
"126 1440 LINE",
"126 1398 LINE",
"1414 1398 LINE"
);
},
{
closed = 1;
nodes = (
"1361 1398 OFFCURVE",
"1369 1370 OFFCURVE",
"1369 1258 CURVE SMOOTH",
"1369 1030 LINE",
"1414 1030 LINE",
"1414 1398 LINE",
"1249 1398 LINE"
);
},
{
closed = 1;
nodes = (
"126 1398 LINE",
"126 1030 LINE",
"171 1030 LINE",
"171 1258 LINE SMOOTH",
"171 1370 OFFCURVE",
"179 1398 OFFCURVE",
"291 1398 CURVE"
);
}
);
width = 1540;
},
{
hints = (
{
origin = "{0, 2}";
scale = "{1.4, 1}";
type = Corner;
name = _corner.Serif;
},
{
origin = "{0, 3}";
scale = "{-1.4, 1}";
type = Corner;
name = _corner.Serif;
options = 1;
}
);
layerId = "1E61A082-F045-49A7-AB52-DD1B03FD9B54";
paths = (
{
closed = 1;
nodes = (
"774 1440 LINE",
"726 1440 LINE",
"726 0 LINE",
"774 0 LINE"
);
},
{
closed = 1;
nodes = (
"1394 1440 LINE",
"106 1440 LINE",
"106 1400 LINE",
"1394 1400 LINE"
);
},
{
closed = 1;
nodes = (
"1342 1400 OFFCURVE",
"1350 1372 OFFCURVE",
"1350 1260 CURVE SMOOTH",
"1350 900 LINE",
"1394 900 LINE",
"1394 1400 LINE",
"1230 1400 LINE"
);
},
{
closed = 1;
nodes = (
"106 1400 LINE",
"106 900 LINE",
"150 900 LINE",
"150 1260 LINE SMOOTH",
"150 1372 OFFCURVE",
"158 1400 OFFCURVE",
"270 1400 CURVE"
);
}
);
width = 1500;
},
{
hints = (
{
origin = "{0, 2}";
scale = "{1.4, 1}";
type = Corner;
name = _corner.Serif;
},
{
origin = "{0, 3}";
scale = "{-1.4, 1}";
type = Corner;
name = _corner.Serif;
options = 1;
}
);
layerId = "642E5713-E15A-4A7E-A28E-9A6B75A6585C";
paths = (
{
closed = 1;
nodes = (
"902 1440 LINE",
"612 1440 LINE",
"612 0 LINE",
"902 0 LINE"
);
},
{
closed = 1;
nodes = (
"1448 1440 LINE",
"66 1440 LINE",
"66 1282 LINE",
"1448 1282 LINE"
);
},
{
closed = 1;
nodes = (
"1250 1282 OFFCURVE",
"1278 1234 OFFCURVE",
"1278 1102 CURVE SMOOTH",
"1278 900 LINE",
"1448 900 LINE",
"1448 1282 LINE",
"1118 1282 LINE"
);
},
{
closed = 1;
nodes = (
"66 1282 LINE",
"66 900 LINE",
"236 900 LINE",
"236 1102 LINE SMOOTH",
"236 1234 OFFCURVE",
"264 1282 OFFCURVE",
"396 1282 CURVE"
);
}
);
width = 1514;
},
{
hints = (
{
origin = "{0, 2}";
scale = "{1.2, 1}";
type = Corner;
name = _corner.Serif;
},
{
origin = "{0, 3}";
scale = "{-1.2, 1}";
type = Corner;
name = _corner.Serif;
options = 1;
}
);
layerId = "AF891779-7DE6-4679-9CA2-17B922C1DF84";
paths = (
{
closed = 1;
nodes = (
"926 1440 LINE",
"636 1440 LINE",
"636 0 LINE",
"926 0 LINE"
);
},
{
closed = 1;
nodes = (
"1472 1440 LINE",
"90 1440 LINE",
"90 1260 LINE",
"1472 1260 LINE"
);
},
{
closed = 1;
nodes = (
"1254 1260 OFFCURVE",
"1282 1212 OFFCURVE",
"1282 1080 CURVE SMOOTH",
"1282 990 LINE",
"1472 990 LINE",
"1472 1260 LINE",
"1122 1260 LINE"
);
},
{
closed = 1;
nodes = (
"90 1260 LINE",
"90 990 LINE",
"280 990 LINE",
"280 1080 LINE SMOOTH",
"280 1212 OFFCURVE",
"308 1260 OFFCURVE",
"440 1260 CURVE"
);
}
);
width = 1562;
}
);
leftKerningGroup = T;
rightKerningGroup = T;
unicode = 0054;
},
{
glyphname = U;
lastChange = "2020-08-20 10:47:32 +0000";
layers = (
{
hints = (
{
origin = "{0, 6}";
scale = "{0.96, 1}";
type = Corner;
name = _corner.Serif;
},
{
origin = "{0, 7}";
scale = "{-1.06, 1}";
type = Corner;
name = _corner.Serif;
options = 1;
},
{
origin = "{0, 15}";
scale = "{1.06, 1}";
type = Corner;
name = _corner.Serif;
options = 1;
},
{
origin = "{0, 16}";
scale = "{-0.96, 1}";
type = Corner;
name = _corner.Serif;
}
);
layerId = "CA54B7DC-FBBB-40FE-ACF3-AABDD76D6A7B";
leftMetricsKey = "=I-32";
rightMetricsKey = "=I-32";
paths = (
{
closed = 1;
nodes = (
"314 178 OFFCURVE",
"488 -20 OFFCURVE",
"830 -20 CURVE SMOOTH",
"1172 -20 OFFCURVE",
"1346 178 OFFCURVE",
"1346 528 CURVE SMOOTH",
"1346 1440 LINE",
"1300 1440 LINE",
"1300 528 LINE SMOOTH",
"1300 216 OFFCURVE",
"1151 20 OFFCURVE",
"831 20 CURVE SMOOTH",
"511 20 OFFCURVE",
"362 216 OFFCURVE",
"362 528 CURVE SMOOTH",
"362 1440 LINE",
"314 1440 LINE",
"314 528 LINE SMOOTH"
);
}
);
width = 1660;
},
{
hints = (
{
origin = "{0, 6}";
scale = "{0.96, 1}";
type = Corner;
name = _corner.Serif;
},
{
origin = "{0, 7}";
scale = "{-1.16, 1}";
type = Corner;
name = _corner.Serif;
options = 1;
},
{
origin = "{0, 15}";
scale = "{1.16, 1}";
type = Corner;
name = _corner.Serif;
options = 1;
},
{
origin = "{0, 16}";
scale = "{-0.96, 1}";
type = Corner;
name = _corner.Serif;
}
);
layerId = "1E61A082-F045-49A7-AB52-DD1B03FD9B54";
leftMetricsKey = "=I-20";
rightMetricsKey = "=I-20";
paths = (
{
closed = 1;
nodes = (
"263 178 OFFCURVE",
"437 -20 OFFCURVE",
"779 -20 CURVE SMOOTH",
"1121 -20 OFFCURVE",
"1295 178 OFFCURVE",
"1295 528 CURVE SMOOTH",
"1295 1440 LINE",
"1251 1440 LINE",
"1251 528 LINE SMOOTH",
"1251 216 OFFCURVE",
"1101 20 OFFCURVE",
"781 20 CURVE SMOOTH",
"461 20 OFFCURVE",
"311 216 OFFCURVE",
"311 528 CURVE SMOOTH",
"311 1440 LINE",
"263 1440 LINE",
"263 528 LINE SMOOTH"
);
}
);
width = 1558;
},
{
hints = (
{
origin = "{0, 6}";
scale = "{0.96, 0.99}";
type = Corner;
name = _corner.Serif;
},
{
origin = "{0, 7}";
scale = "{-1.16, 0.99}";
type = Corner;
name = _corner.Serif;
options = 1;
},
{
origin = "{0, 15}";
scale = "{1.16, 0.99}";
type = Corner;
name = _corner.Serif;
options = 1;
},
{
origin = "{0, 16}";
scale = "{-0.96, 0.99}";
type = Corner;
name = _corner.Serif;
}
);
layerId = "642E5713-E15A-4A7E-A28E-9A6B75A6585C";
leftMetricsKey = "=I-36";
rightMetricsKey = "=I-36";
paths = (
{
closed = 1;
nodes = (
"226 190 OFFCURVE",
"430 -20 OFFCURVE",
"820 -20 CURVE SMOOTH",
"1209 -20 OFFCURVE",
"1412 190 OFFCURVE",
"1412 562 CURVE SMOOTH",
"1412 1440 LINE",
"1240 1440 LINE",
"1240 546 LINE SMOOTH",
"1240 307 OFFCURVE",
"1125 156 OFFCURVE",
"878 156 CURVE SMOOTH",
"631 156 OFFCURVE",
"516 307 OFFCURVE",
"516 546 CURVE SMOOTH",
"516 1440 LINE",
"226 1440 LINE",
"226 562 LINE SMOOTH"
);
}
);
width = 1638;
},
{
hints = (
{
origin = "{0, 6}";
scale = "{0.96, 0.98}";
type = Corner;
name = _corner.Serif;
},
{
origin = "{0, 7}";
scale = "{-1.06, 0.98}";
type = Corner;
name = _corner.Serif;
options = 1;
},
{
origin = "{0, 15}";
scale = "{1.06, 0.98}";
type = Corner;
name = _corner.Serif;
options = 1;
},
{
origin = "{0, 16}";
scale = "{-0.96, 0.98}";
type = Corner;
name = _corner.Serif;
}
);
layerId = "AF891779-7DE6-4679-9CA2-17B922C1DF84";
leftMetricsKey = "=I-34";
rightMetricsKey = "=I-34";
paths = (
{
closed = 1;
nodes = (
"247 192 OFFCURVE",
"453 -20 OFFCURVE",
"847 -20 CURVE SMOOTH",
"1241 -20 OFFCURVE",
"1447 192 OFFCURVE",
"1447 568 CURVE SMOOTH",
"1447 1440 LINE",
"1233 1440 LINE",
"1233 548 LINE SMOOTH",
"1233 316 OFFCURVE",
"1127 170 OFFCURVE",
"885 170 CURVE SMOOTH",
"643 170 OFFCURVE",
"537 316 OFFCURVE",
"537 548 CURVE SMOOTH",
"537 1440 LINE",
"247 1440 LINE",
"247 568 LINE SMOOTH"
);
}
);
width = 1694;
}
);
leftKerningGroup = U;
leftMetricsKey = I;
rightKerningGroup = U;
rightMetricsKey = I;
unicode = 0055;
},
{
glyphname = V;
lastChange = "2020-08-20 10:35:33 +0000";
layers = (
{
hints = (
{
origin = "{0, 0}";
scale = "{-1.06, 1}";
type = Corner;
name = _corner.Serif;
options = 1;
},
{
origin = "{0, 3}";
scale = "{1.06, 1}";
type = Corner;
name = _corner.Serif;
},
{
origin = "{0, 4}";
scale = "{-0.6, 1}";
type = Corner;
name = _corner.Serif;
options = 1;
},
{
origin = "{0, 7}";
scale = "{0.6, 1}";
type = Corner;
name = _corner.Serif;
}
);
layerId = "CA54B7DC-FBBB-40FE-ACF3-AABDD76D6A7B";
paths = (
{
closed = 1;
nodes = (
"1319 1440 LINE",
"770 47 LINE",
"783 47 LINE",
"234 1440 LINE",
"182 1440 LINE",
"752 0 LINE",
"796 0 LINE",
"1366 1440 LINE"
);
}
);
width = 1548;
},
{
hints = (
{
origin = "{0, 0}";
scale = "{-1.16, 1}";
type = Corner;
name = _corner.Serif;
options = 1;
},
{
origin = "{0, 3}";
scale = "{1.16, 1}";
type = Corner;
name = _corner.Serif;
},
{
origin = "{0, 4}";
scale = "{-0.6, 1}";
type = Corner;
name = _corner.Serif;
options = 1;
},
{
origin = "{0, 7}";
scale = "{0.6, 1}";
type = Corner;
name = _corner.Serif;
}
);
layerId = "1E61A082-F045-49A7-AB52-DD1B03FD9B54";
paths = (
{
closed = 1;
nodes = (
"1324 1440 LINE",
"775 47 LINE",
"788 47 LINE",
"239 1440 LINE",
"187 1440 LINE",
"757 0 LINE",
"799 0 LINE",
"1369 1440 LINE"
);
}
);
width = 1554;
},
{
hints = (
{
origin = "{0, 0}";
scale = "{-1.46, 0.99}";
type = Corner;
name = _corner.Serif;
options = 1;
},
{
origin = "{0, 3}";
scale = "{1.46, 0.99}";
type = Corner;
name = _corner.Serif;
},
{
origin = "{0, 4}";
scale = "{-0.46, 0.99}";
type = Corner;
name = _corner.Serif;
options = 1;
},
{
origin = "{0, 7}";
scale = "{0.46, 0.99}";
type = Corner;
name = _corner.Serif;
}
);
layerId = "642E5713-E15A-4A7E-A28E-9A6B75A6585C";
paths = (
{
closed = 1;
nodes = (
"1331 1440 LINE",
"830 167 LINE",
"936 166 LINE",
"446 1440 LINE",
"132 1440 LINE",
"702 0 LINE",
"944 0 LINE",
"1514 1440 LINE"
);
}
);
width = 1644;
},
{
hints = (
{
origin = "{0, 0}";
scale = "{-1.36, 0.98}";
type = Corner;
name = _corner.Serif;
options = 1;
},
{
origin = "{0, 3}";
scale = "{1.36, 0.98}";
type = Corner;
name = _corner.Serif;
},
{
origin = "{0, 4}";
scale = "{-0.46, 0.98}";
type = Corner;
name = _corner.Serif;
options = 1;
},
{
origin = "{0, 7}";
scale = "{0.46, 0.98}";
type = Corner;
name = _corner.Serif;
}
);
layerId = "AF891779-7DE6-4679-9CA2-17B922C1DF84";
paths = (
{
closed = 1;
nodes = (
"1311 1440 LINE",
"810 167 LINE",
"930 166 LINE",
"441 1440 LINE",
"127 1440 LINE",
"697 0 LINE",
"952 0 LINE",
"1522 1440 LINE"
);
}
);
width = 1649;
}
);
leftKerningGroup = V;
leftMetricsKey = A;
rightKerningGroup = V;
rightMetricsKey = A;
unicode = 0056;
},
{
glyphname = W;
lastChange = "2020-08-20 10:35:33 +0000";
layers = (
{
hints = (
{
origin = "{0, 0}";
scale = "{-1.06, 1}";
type = Corner;
name = _corner.Serif;
options = 1;
},
{
origin = "{0, 3}";
scale = "{1.06, 1}";
type = Corner;
name = _corner.Serif;
},
{
origin = "{0, 4}";
scale = "{-0.6, 1}";
type = Corner;
name = _corner.Serif;
options = 1;
},
{
origin = "{0, 7}";
scale = "{0.6, 1}";
type = Corner;
name = _corner.Serif;
},
{
origin = "{1, 3}";
scale = "{1.06, 1}";
type = Corner;
name = _corner.Serif;
},
{
origin = "{1, 4}";
scale = "{-0.6, 1}";
type = Corner;
name = _corner.Serif;
options = 1;
}
);
layerId = "CA54B7DC-FBBB-40FE-ACF3-AABDD76D6A7B";
paths = (
{
closed = 1;
nodes = (
"1860 1440 LINE",
"1398 47 LINE",
"1415 47 LINE",
"953 1440 LINE",
"902 1440 LINE",
"1382 0 LINE",
"1426 0 LINE",
"1906 1440 LINE"
);
},
{
closed = 1;
nodes = (
"1036 1129 LINE",
"678 47 LINE",
"695 47 LINE",
"233 1440 LINE",
"182 1440 LINE",
"662 0 LINE",
"706 0 LINE",
"1057 1054 LINE"
);
}
);
width = 2088;
},
{
hints = (
{
origin = "{0, 0}";
scale = "{-1.06, 1}";
type = Corner;
name = _corner.Serif;
options = 1;
},
{
origin = "{0, 3}";
scale = "{1.06, 1}";
type = Corner;
name = _corner.Serif;
},
{
origin = "{0, 4}";
scale = "{-0.6, 1}";
type = Corner;
name = _corner.Serif;
options = 1;
},
{
origin = "{0, 7}";
scale = "{0.6, 1}";
type = Corner;
name = _corner.Serif;
},
{
origin = "{1, 3}";
scale = "{1.06, 1}";
type = Corner;
name = _corner.Serif;
},
{
origin = "{1, 4}";
scale = "{-0.6, 1}";
type = Corner;
name = _corner.Serif;
options = 1;
}
);
layerId = "1E61A082-F045-49A7-AB52-DD1B03FD9B54";
paths = (
{
closed = 1;
nodes = (
"1867 1440 LINE",
"1405 47 LINE",
"1420 47 LINE",
"958 1440 LINE",
"907 1440 LINE",
"1387 0 LINE",
"1431 0 LINE",
"1911 1440 LINE"
);
},
{
closed = 1;
nodes = (
"1044 1130 LINE",
"685 47 LINE",
"700 47 LINE",
"238 1440 LINE",
"187 1440 LINE",
"667 0 LINE",
"711 0 LINE",
"1062 1054 LINE"
);
}
);
width = 2096;
},
{
hints = (
{
origin = "{0, 0}";
scale = "{-1.24, 0.99}";
type = Corner;
name = _corner.Serif;
options = 1;
},
{
origin = "{0, 3}";
scale = "{1.24, 0.99}";
type = Corner;
name = _corner.Serif;
},
{
origin = "{0, 4}";
scale = "{-0.48, 0.99}";
type = Corner;
name = _corner.Serif;
options = 1;
},
{
origin = "{0, 7}";
scale = "{0.48, 0.99}";
type = Corner;
name = _corner.Serif;
},
{
origin = "{1, 3}";
scale = "{1.22, 0.99}";
type = Corner;
name = _corner.Serif;
},
{
origin = "{1, 4}";
scale = "{-0.48, 0.99}";
type = Corner;
name = _corner.Serif;
options = 1;
}
);
layerId = "642E5713-E15A-4A7E-A28E-9A6B75A6585C";
paths = (
{
closed = 1;
nodes = (
"1835 1440 LINE",
"1457 167 LINE",
"1574 166 LINE",
"1206 1440 LINE",
"914 1440 LINE",
"1344 0 LINE",
"1582 0 LINE",
"2012 1440 LINE"
);
},
{
closed = 1;
nodes = (
"1023 1282 LINE",
"691 167 LINE",
"806 166 LINE",
"441 1440 LINE",
"136 1440 LINE",
"566 0 LINE",
"810 0 LINE",
"1132 1078 LINE"
);
}
);
width = 2146;
},
{
hints = (
{
origin = "{0, 0}";
scale = "{-1.16, 0.99}";
type = Corner;
name = _corner.Serif;
options = 1;
},
{
origin = "{0, 3}";
scale = "{1.16, 0.99}";
type = Corner;
name = _corner.Serif;
},
{
origin = "{0, 4}";
scale = "{-0.42, 0.99}";
type = Corner;
name = _corner.Serif;
options = 1;
},
{
origin = "{0, 7}";
scale = "{0.48, 0.99}";
type = Corner;
name = _corner.Serif;
},
{
origin = "{1, 3}";
scale = "{1.1, 0.99}";
type = Corner;
name = _corner.Serif;
},
{
origin = "{1, 4}";
scale = "{-0.48, 0.99}";
type = Corner;
name = _corner.Serif;
options = 1;
}
);
layerId = "AF891779-7DE6-4679-9CA2-17B922C1DF84";
paths = (
{
closed = 1;
nodes = (
"1819 1440 LINE",
"1441 167 LINE",
"1562 166 LINE",
"1194 1440 LINE",
"902 1440 LINE",
"1332 0 LINE",
"1585 0 LINE",
"2015 1440 LINE"
);
},
{
closed = 1;
nodes = (
"1013 1282 LINE",
"681 167 LINE",
"800 166 LINE",
"435 1440 LINE",
"130 1440 LINE",
"560 0 LINE",
"819 0 LINE",
"1141 1078 LINE"
);
}
);
width = 2145;
}
);
leftKerningGroup = W;
leftMetricsKey = V;
rightKerningGroup = W;
rightMetricsKey = V;
unicode = 0057;
},
{
glyphname = X;
lastChange = "2020-08-20 10:52:19 +0000";
layers = (
{
hints = (
{
origin = "{0, 6}";
scale = "{1.06, 1}";
type = Corner;
name = _corner.Serif;
},
{
origin = "{0, 7}";
scale = "{-0.56, 1}";
type = Corner;
name = _corner.Serif;
options = 1;
},
{
origin = "{0, 2}";
scale = "{0.56, 1}";
type = Corner;
name = _corner.Serif;
},
{
origin = "{0, 3}";
scale = "{-1.06, 1}";
type = Corner;
name = _corner.Serif;
options = 1;
},
{
origin = "{1, 2}";
scale = "{0.6, 1}";
type = Corner;
name = _corner.Serif;
},
{
origin = "{1, 3}";
scale = "{-1.1, 1}";
type = Corner;
name = _corner.Serif;
options = 1;
},
{
origin = "{1, 6}";
scale = "{1.1, 1}";
type = Corner;
name = _corner.Serif;
},
{
origin = "{1, 7}";
scale = "{-0.6, 1}";
type = Corner;
name = _corner.Serif;
options = 1;
}
);
layerId = "CA54B7DC-FBBB-40FE-ACF3-AABDD76D6A7B";
paths = (
{
closed = 1;
nodes = (
"802 708 LINE",
"822 708 LINE",
"1380 1440 LINE",
"1325 1440 LINE",
"797 747 LINE",
"832 747 LINE",
"304 1440 LINE",
"244 1440 LINE"
);
},
{
closed = 1;
nodes = (
"822 764 LINE",
"802 764 LINE",
"220 0 LINE",
"275 0 LINE",
"827 725 LINE",
"792 725 LINE",
"1344 0 LINE",
"1404 0 LINE"
);
}
);
width = 1624;
},
{
hints = (
{
origin = "{0, 2}";
scale = "{0.56, 1}";
type = Corner;
name = _corner.Serif;
},
{
origin = "{0, 3}";
scale = "{-1.06, 1}";
type = Corner;
name = _corner.Serif;
options = 1;
},
{
origin = "{0, 6}";
scale = "{1.06, 1}";
type = Corner;
name = _corner.Serif;
},
{
origin = "{0, 7}";
scale = "{-0.56, 1}";
type = Corner;
name = _corner.Serif;
options = 1;
},
{
origin = "{1, 3}";
scale = "{-1.1, 1}";
type = Corner;
name = _corner.Serif;
options = 1;
},
{
origin = "{1, 6}";
scale = "{1.1, 1}";
type = Corner;
name = _corner.Serif;
},
{
origin = "{1, 7}";
scale = "{-0.6, 1}";
type = Corner;
name = _corner.Serif;
options = 1;
},
{
origin = "{1, 2}";
scale = "{0.6, 1}";
type = Corner;
name = _corner.Serif;
}
);
layerId = "1E61A082-F045-49A7-AB52-DD1B03FD9B54";
paths = (
{
closed = 1;
nodes = (
"773 708 LINE",
"794 708 LINE",
"1352 1440 LINE",
"1294 1440 LINE",
"766 747 LINE",
"803 747 LINE",
"275 1440 LINE",
"215 1440 LINE"
);
},
{
closed = 1;
nodes = (
"793 764 LINE",
"772 764 LINE",
"190 0 LINE",
"248 0 LINE",
"800 725 LINE",
"763 725 LINE",
"1315 0 LINE",
"1375 0 LINE"
);
}
);
width = 1565;
},
{
hints = (
{
origin = "{0, 2}";
scale = "{0.02, 0.99}";
type = Corner;
name = _corner.Serif;
},
{
origin = "{0, 3}";
scale = "{-1.66, 0.99}";
type = Corner;
name = _corner.Serif;
options = 1;
},
{
origin = "{0, 6}";
scale = "{1.62, 0.99}";
type = Corner;
name = _corner.Serif;
},
{
origin = "{0, 7}";
scale = "{-0.02, 0.99}";
type = Corner;
name = _corner.Serif;
options = 1;
},
{
origin = "{1, 2}";
scale = "{0.06, 1}";
type = Corner;
name = _corner.Serif;
},
{
origin = "{1, 3}";
scale = "{-1.77, 1}";
type = Corner;
name = _corner.Serif;
options = 1;
},
{
origin = "{1, 6}";
scale = "{1.73, 1}";
type = Corner;
name = _corner.Serif;
},
{
origin = "{1, 7}";
scale = "{-0.06, 1}";
type = Corner;
name = _corner.Serif;
options = 1;
}
);
layerId = "642E5713-E15A-4A7E-A28E-9A6B75A6585C";
paths = (
{
closed = 1;
nodes = (
"664 668 LINE",
"868 668 LINE",
"1489 1440 LINE",
"1276 1440 LINE",
"786 827 LINE",
"887 827 LINE",
"434 1440 LINE",
"74 1440 LINE"
);
},
{
closed = 1;
nodes = (
"921 802 LINE",
"719 802 LINE",
"74 0 LINE",
"287 0 LINE",
"801 643 LINE",
"699 643 LINE",
"1173 0 LINE",
"1534 0 LINE"
);
}
);
width = 1600;
},
{
hints = (
{
origin = "{0, 2}";
scale = "{0.02, 0.98}";
type = Corner;
name = _corner.Serif;
},
{
origin = "{0, 3}";
scale = "{-1.61, 0.98}";
type = Corner;
name = _corner.Serif;
options = 1;
},
{
origin = "{0, 6}";
scale = "{1.65, 0.98}";
type = Corner;
name = _corner.Serif;
},
{
origin = "{0, 7}";
scale = "{-0.02, 0.98}";
type = Corner;
name = _corner.Serif;
options = 1;
},
{
origin = "{1, 2}";
scale = "{0.06, 1}";
type = Corner;
name = _corner.Serif;
},
{
origin = "{1, 3}";
scale = "{-1.72, 1}";
type = Corner;
name = _corner.Serif;
options = 1;
},
{
origin = "{1, 6}";
scale = "{1.68, 1}";
type = Corner;
name = _corner.Serif;
},
{
origin = "{1, 7}";
scale = "{-0.06, 1}";
type = Corner;
name = _corner.Serif;
options = 1;
}
);
layerId = "AF891779-7DE6-4679-9CA2-17B922C1DF84";
paths = (
{
closed = 1;
nodes = (
"691 668 LINE",
"909 668 LINE",
"1530 1440 LINE",
"1286 1440 LINE",
"799 827 LINE",
"914 827 LINE",
"462 1440 LINE",
"101 1440 LINE"
);
},
{
closed = 1;
nodes = (
"952 802 LINE",
"748 802 LINE",
"103 0 LINE",
"347 0 LINE",
"859 643 LINE",
"730 643 LINE",
"1204 0 LINE",
"1565 0 LINE"
);
}
);
width = 1656;
}
);
leftKerningGroup = X;
rightKerningGroup = X;
unicode = 0058;
},
{
glyphname = Y;
lastChange = "2020-08-20 10:53:04 +0000";
layers = (
{
hints = (
{
origin = "{0, 2}";
scale = "{1.2, 1}";
type = Corner;
name = _corner.Serif;
},
{
origin = "{0, 3}";
scale = "{-1.2, 1}";
type = Corner;
name = _corner.Serif;
options = 1;
},
{
origin = "{1, 0}";
scale = "{-1.06, 1}";
type = Corner;
name = _corner.Serif;
options = 1;
},
{
origin = "{1, 3}";
scale = "{1.06, 1}";
type = Corner;
name = _corner.Serif;
},
{
origin = "{1, 4}";
scale = "{-0.5, 1}";
type = Corner;
name = _corner.Serif;
options = 1;
},
{
origin = "{1, 7}";
scale = "{0.5, 1}";
type = Corner;
name = _corner.Serif;
}
);
layerId = "CA54B7DC-FBBB-40FE-ACF3-AABDD76D6A7B";
leftMetricsKey = "=V-24";
rightMetricsKey = "=V-24";
paths = (
{
closed = 1;
nodes = (
"752 618 LINE",
"704 618 LINE",
"704 0 LINE",
"752 0 LINE"
);
},
{
closed = 1;
nodes = (
"1266 1440 LINE",
"720 613 LINE",
"740 613 LINE",
"194 1440 LINE",
"137 1440 LINE",
"707 577 LINE",
"749 577 LINE",
"1319 1440 LINE"
);
}
);
width = 1456;
},
{
hints = (
{
origin = "{0, 2}";
scale = "{1.4, 1}";
type = Corner;
name = _corner.Serif;
},
{
origin = "{0, 3}";
scale = "{-1.4, 1}";
type = Corner;
name = _corner.Serif;
options = 1;
},
{
origin = "{1, 0}";
scale = "{-1.16, 1}";
type = Corner;
name = _corner.Serif;
options = 1;
},
{
origin = "{1, 3}";
scale = "{1.16, 1}";
type = Corner;
name = _corner.Serif;
},
{
origin = "{1, 4}";
scale = "{-0.5, 1}";
type = Corner;
name = _corner.Serif;
options = 1;
},
{
origin = "{1, 7}";
scale = "{0.5, 1}";
type = Corner;
name = _corner.Serif;
}
);
layerId = "1E61A082-F045-49A7-AB52-DD1B03FD9B54";
leftMetricsKey = "=V-16";
rightMetricsKey = "=V-16";
paths = (
{
closed = 1;
nodes = (
"763 610 LINE",
"715 610 LINE",
"715 0 LINE",
"763 0 LINE"
);
},
{
closed = 1;
nodes = (
"1280 1440 LINE",
"734 613 LINE",
"751 613 LINE",
"205 1440 LINE",
"148 1440 LINE",
"718 577 LINE",
"760 577 LINE",
"1330 1440 LINE"
);
}
);
width = 1476;
},
{
hints = (
{
origin = "{0, 2}";
scale = "{1.4, 1}";
type = Corner;
name = _corner.Serif;
},
{
origin = "{0, 3}";
scale = "{-1.4, 1}";
type = Corner;
name = _corner.Serif;
options = 1;
},
{
origin = "{1, 0}";
scale = "{-1.52, 0.99}";
type = Corner;
name = _corner.Serif;
options = 1;
},
{
origin = "{1, 3}";
scale = "{1.52, 0.99}";
type = Corner;
name = _corner.Serif;
},
{
origin = "{1, 4}";
scale = "{-0.22, 0.99}";
type = Corner;
name = _corner.Serif;
options = 1;
},
{
origin = "{1, 7}";
scale = "{0.22, 0.99}";
type = Corner;
name = _corner.Serif;
}
);
layerId = "642E5713-E15A-4A7E-A28E-9A6B75A6585C";
paths = (
{
closed = 1;
nodes = (
"906 719 LINE",
"616 719 LINE",
"616 0 LINE",
"906 0 LINE"
);
},
{
closed = 1;
nodes = (
"1247 1440 LINE",
"800 706 LINE",
"863 706 LINE",
"423 1440 LINE",
"84 1440 LINE",
"634 548 LINE",
"890 548 LINE",
"1440 1440 LINE"
);
}
);
width = 1522;
},
{
hints = (
{
origin = "{0, 2}";
scale = "{1.2, 1}";
type = Corner;
name = _corner.Serif;
},
{
origin = "{0, 3}";
scale = "{-1.2, 1}";
type = Corner;
name = _corner.Serif;
options = 1;
},
{
origin = "{1, 0}";
scale = "{-1.46, 0.98}";
type = Corner;
name = _corner.Serif;
options = 1;
},
{
origin = "{1, 3}";
scale = "{1.46, 0.98}";
type = Corner;
name = _corner.Serif;
},
{
origin = "{1, 4}";
scale = "{-0.2, 0.98}";
type = Corner;
name = _corner.Serif;
options = 1;
},
{
origin = "{1, 7}";
scale = "{0.2, 0.98}";
type = Corner;
name = _corner.Serif;
}
);
layerId = "AF891779-7DE6-4679-9CA2-17B922C1DF84";
leftMetricsKey = "=V-10";
rightMetricsKey = "=V-10";
paths = (
{
closed = 1;
nodes = (
"892 719 LINE",
"602 719 LINE",
"602 0 LINE",
"892 0 LINE"
);
},
{
closed = 1;
nodes = (
"1203 1440 LINE",
"755 706 LINE",
"849 706 LINE",
"410 1440 LINE",
"70 1440 LINE",
"620 548 LINE",
"876 548 LINE",
"1426 1440 LINE"
);
}
);
width = 1496;
}
);
leftKerningGroup = Y;
leftMetricsKey = V;
rightKerningGroup = Y;
rightMetricsKey = V;
unicode = 0059;
},
{
glyphname = Z;
lastChange = "2020-08-20 10:51:38 +0000";
layers = (
{
layerId = "CA54B7DC-FBBB-40FE-ACF3-AABDD76D6A7B";
paths = (
{
closed = 1;
nodes = (
"220 1398 LINE",
"1208 1398 LINE",
"1268 1402 LINE",
"1268 1440 LINE",
"220 1440 LINE"
);
},
{
closed = 1;
nodes = (
"188 0 LINE",
"1268 0 LINE",
"1268 42 LINE",
"248 42 LINE",
"188 38 LINE"
);
},
{
closed = 1;
nodes = (
"248 42 LINE",
"1268 1402 LINE",
"1208 1398 LINE",
"188 38 LINE"
);
},
{
closed = 1;
nodes = (
"220 1398 LINE",
"220 1050 LINE",
"265 1050 LINE",
"265 1258 LINE SMOOTH",
"265 1370 OFFCURVE",
"273 1398 OFFCURVE",
"385 1398 CURVE"
);
},
{
closed = 1;
nodes = (
"1268 42 LINE",
"1268 410 LINE",
"1223 410 LINE",
"1223 182 LINE SMOOTH",
"1223 70 OFFCURVE",
"1215 42 OFFCURVE",
"1103 42 CURVE"
);
}
);
width = 1450;
},
{
layerId = "1E61A082-F045-49A7-AB52-DD1B03FD9B54";
paths = (
{
closed = 1;
nodes = (
"186 1400 LINE",
"1174 1400 LINE",
"1234 1404 LINE",
"1234 1440 LINE",
"186 1440 LINE"
);
},
{
closed = 1;
nodes = (
"154 0 LINE",
"1234 0 LINE",
"1234 40 LINE",
"214 40 LINE",
"154 36 LINE"
);
},
{
closed = 1;
nodes = (
"214 40 LINE",
"1234 1404 LINE",
"1174 1400 LINE",
"154 36 LINE"
);
},
{
closed = 1;
nodes = (
"186 1400 LINE",
"186 900 LINE",
"230 900 LINE",
"230 1260 LINE SMOOTH",
"230 1372 OFFCURVE",
"238 1400 OFFCURVE",
"350 1400 CURVE"
);
},
{
closed = 1;
nodes = (
"1234 40 LINE",
"1234 560 LINE",
"1190 560 LINE",
"1190 180 LINE SMOOTH",
"1190 68 OFFCURVE",
"1182 40 OFFCURVE",
"1070 40 CURVE"
);
}
);
width = 1404;
},
{
layerId = "642E5713-E15A-4A7E-A28E-9A6B75A6585C";
paths = (
{
closed = 1;
nodes = (
"134 1282 LINE",
"911 1282 LINE",
"1280 1306 LINE",
"1280 1440 LINE",
"134 1440 LINE"
);
},
{
closed = 1;
nodes = (
"90 0 LINE",
"1274 0 LINE",
"1274 160 LINE",
"459 160 LINE",
"90 136 LINE"
);
},
{
closed = 1;
nodes = (
"459 160 LINE",
"1280 1306 LINE",
"911 1282 LINE",
"90 136 LINE"
);
},
{
closed = 1;
nodes = (
"134 1282 LINE",
"134 900 LINE",
"304 900 LINE",
"304 1102 LINE SMOOTH",
"304 1234 OFFCURVE",
"332 1282 OFFCURVE",
"464 1282 CURVE"
);
},
{
closed = 1;
nodes = (
"1274 160 LINE",
"1274 560 LINE",
"1104 560 LINE",
"1104 340 LINE SMOOTH",
"1104 208 OFFCURVE",
"1076 160 OFFCURVE",
"944 160 CURVE"
);
}
);
width = 1378;
},
{
layerId = "AF891779-7DE6-4679-9CA2-17B922C1DF84";
paths = (
{
closed = 1;
nodes = (
"164 1260 LINE",
"940 1260 LINE",
"1316 1284 LINE",
"1316 1440 LINE",
"164 1440 LINE"
);
},
{
closed = 1;
nodes = (
"126 0 LINE",
"1316 0 LINE",
"1316 184 LINE",
"502 184 LINE",
"126 160 LINE"
);
},
{
closed = 1;
nodes = (
"502 184 LINE",
"1316 1284 LINE",
"940 1260 LINE",
"126 160 LINE"
);
},
{
closed = 1;
nodes = (
"164 1260 LINE",
"164 1000 LINE",
"354 1000 LINE",
"354 1080 LINE SMOOTH",
"354 1212 OFFCURVE",
"382 1260 OFFCURVE",
"514 1260 CURVE"
);
},
{
closed = 1;
nodes = (
"1316 184 LINE",
"1316 470 LINE",
"1126 470 LINE",
"1126 364 LINE SMOOTH",
"1126 232 OFFCURVE",
"1098 184 OFFCURVE",
"966 184 CURVE"
);
}
);
width = 1444;
}
);
leftKerningGroup = Z;
rightKerningGroup = Z;
unicode = 005A;
},
{
glyphname = a;
lastChange = "2020-08-20 11:25:03 +0000";
layers = (
{
layerId = "CA54B7DC-FBBB-40FE-ACF3-AABDD76D6A7B";
paths = (
{
closed = 1;
nodes = (
"226 784 OFFCURVE",
"238 742 OFFCURVE",
"272 742 CURVE SMOOTH",
"293 742 OFFCURVE",
"303 756 OFFCURVE",
"303 777 CURVE SMOOTH",
"303 812 OFFCURVE",
"285 822 OFFCURVE",
"285 882 CURVE SMOOTH",
"285 996 OFFCURVE",
"419 1076 OFFCURVE",
"616 1076 CURVE SMOOTH",
"813 1076 OFFCURVE",
"910 996 OFFCURVE",
"910 848 CURVE",
"958 830 LINE",
"958 1026 OFFCURVE",
"829 1116 OFFCURVE",
"618 1116 CURVE SMOOTH",
"402 1116 OFFCURVE",
"226 1026 OFFCURVE",
"226 844 CURVE SMOOTH"
);
},
{
closed = 1;
nodes = (
"650 568 LINE SMOOTH",
"805 606 OFFCURVE",
"875 632 OFFCURVE",
"910 706 CURVE",
"910 840 LINE",
"910 683 OFFCURVE",
"800 647 OFFCURVE",
"642 608 CURVE SMOOTH",
"488 570 LINE SMOOTH",
"279 518 OFFCURVE",
"166 436 OFFCURVE",
"166 257 CURVE SMOOTH",
"166 85 OFFCURVE",
"298 -16 OFFCURVE",
"492 -16 CURVE SMOOTH",
"752 -16 OFFCURVE",
"950 143 OFFCURVE",
"948 546 CURVE",
"910 546 LINE",
"910 166 OFFCURVE",
"722 24 OFFCURVE",
"498 24 CURVE SMOOTH",
"332 24 OFFCURVE",
"214 107 OFFCURVE",
"214 257 CURVE SMOOTH",
"214 424 OFFCURVE",
"323 487 OFFCURVE",
"504 532 CURVE SMOOTH"
);
},
{
closed = 1;
nodes = (
"910 330 LINE",
"914 330 LINE",
"914 158 LINE SMOOTH",
"914 47 OFFCURVE",
"973 -16 OFFCURVE",
"1070 -16 CURVE SMOOTH",
"1167 -16 OFFCURVE",
"1226 47 OFFCURVE",
"1226 158 CURVE SMOOTH",
"1226 240 LINE",
"1182 240 LINE",
"1182 158 LINE SMOOTH",
"1182 79 OFFCURVE",
"1144 24 OFFCURVE",
"1070 24 CURVE SMOOTH",
"996 24 OFFCURVE",
"958 79 OFFCURVE",
"958 158 CURVE SMOOTH",
"958 830 LINE",
"910 848 LINE"
);
}
);
width = 1282;
},
{
layerId = "1E61A082-F045-49A7-AB52-DD1B03FD9B54";
paths = (
{
closed = 1;
nodes = (
"188 726 OFFCURVE",
"204 674 OFFCURVE",
"239 674 CURVE SMOOTH",
"258 674 OFFCURVE",
"269 686 OFFCURVE",
"269 706 CURVE SMOOTH",
"269 740 OFFCURVE",
"243 752 OFFCURVE",
"243 818 CURVE SMOOTH",
"243 972 OFFCURVE",
"405 1056 OFFCURVE",
"584 1056 CURVE SMOOTH",
"782 1056 OFFCURVE",
"868 970 OFFCURVE",
"868 838 CURVE",
"916 820 LINE",
"916 1007 OFFCURVE",
"796 1096 OFFCURVE",
"586 1096 CURVE SMOOTH",
"378 1096 OFFCURVE",
"188 999 OFFCURVE",
"188 790 CURVE SMOOTH"
);
},
{
closed = 1;
nodes = (
"608 557 LINE SMOOTH",
"763 593 OFFCURVE",
"833 622 OFFCURVE",
"868 696 CURVE",
"868 830 LINE",
"868 672 OFFCURVE",
"758 634 OFFCURVE",
"600 597 CURVE SMOOTH",
"446 561 LINE SMOOTH",
"256 517 OFFCURVE",
"124 441 OFFCURVE",
"124 253 CURVE SMOOTH",
"124 84 OFFCURVE",
"256 -16 OFFCURVE",
"450 -16 CURVE SMOOTH",
"710 -16 OFFCURVE",
"908 140 OFFCURVE",
"906 536 CURVE",
"868 536 LINE",
"868 163 OFFCURVE",
"680 24 OFFCURVE",
"456 24 CURVE SMOOTH",
"290 24 OFFCURVE",
"172 106 OFFCURVE",
"172 253 CURVE SMOOTH",
"172 413 OFFCURVE",
"276 480 OFFCURVE",
"462 523 CURVE SMOOTH"
);
},
{
closed = 1;
nodes = (
"868 320 LINE",
"872 320 LINE",
"872 176 LINE SMOOTH",
"872 54 OFFCURVE",
"938 -16 OFFCURVE",
"1046 -16 CURVE SMOOTH",
"1154 -16 OFFCURVE",
"1220 54 OFFCURVE",
"1220 176 CURVE SMOOTH",
"1220 570 LINE",
"1176 570 LINE",
"1176 176 LINE SMOOTH",
"1176 86 OFFCURVE",
"1132 24 OFFCURVE",
"1046 24 CURVE SMOOTH",
"960 24 OFFCURVE",
"916 86 OFFCURVE",
"916 176 CURVE SMOOTH",
"916 820 LINE",
"868 838 LINE"
);
}
);
width = 1268;
},
{
layerId = "642E5713-E15A-4A7E-A28E-9A6B75A6585C";
paths = (
{
closed = 1;
nodes = (
"138 750 OFFCURVE",
"198 671 OFFCURVE",
"295 671 CURVE SMOOTH",
"380 671 OFFCURVE",
"421 714 OFFCURVE",
"421 773 CURVE SMOOTH",
"421 824 OFFCURVE",
"395 839 OFFCURVE",
"395 884 CURVE SMOOTH",
"395 960 OFFCURVE",
"474 996 OFFCURVE",
"564 996 CURVE SMOOTH",
"670 996 OFFCURVE",
"728 930 OFFCURVE",
"728 842 CURVE",
"994 817 LINE",
"996 1034 OFFCURVE",
"861 1140 OFFCURVE",
"602 1140 CURVE SMOOTH",
"356 1140 OFFCURVE",
"138 1032 OFFCURVE",
"138 834 CURVE SMOOTH"
);
},
{
closed = 1;
nodes = (
"611 538 LINE SMOOTH",
"661 556 OFFCURVE",
"702 580 OFFCURVE",
"728 611 CURVE",
"728 840 LINE",
"728 754 OFFCURVE",
"688 705 OFFCURVE",
"581 674 CURVE SMOOTH",
"456 638 LINE SMOOTH",
"300 593 OFFCURVE",
"82 531 OFFCURVE",
"82 298 CURVE SMOOTH",
"82 83 OFFCURVE",
"249 -20 OFFCURVE",
"442 -20 CURVE SMOOTH",
"680 -20 OFFCURVE",
"820 113 OFFCURVE",
"818 450 CURVE",
"728 450 LINE",
"728 248 OFFCURVE",
"638 174 OFFCURVE",
"518 174 CURVE SMOOTH",
"427 174 OFFCURVE",
"364 230 OFFCURVE",
"364 321 CURVE SMOOTH",
"364 431 OFFCURVE",
"443 478 OFFCURVE",
"563 521 CURVE SMOOTH"
);
},
{
closed = 1;
nodes = (
"728 320 LINE",
"774 320 LINE",
"774 240 LINE SMOOTH",
"774 80 OFFCURVE",
"871 -23 OFFCURVE",
"1039 -23 CURVE SMOOTH",
"1207 -23 OFFCURVE",
"1302 77 OFFCURVE",
"1302 237 CURVE SMOOTH",
"1302 577 LINE",
"1138 577 LINE",
"1138 233 LINE SMOOTH",
"1138 185 OFFCURVE",
"1115 153 OFFCURVE",
"1066 153 CURVE SMOOTH",
"1017 153 OFFCURVE",
"994 185 OFFCURVE",
"994 233 CURVE SMOOTH",
"994 817 LINE",
"728 842 LINE"
);
}
);
width = 1316;
},
{
layerId = "AF891779-7DE6-4679-9CA2-17B922C1DF84";
paths = (
{
closed = 1;
nodes = (
"169 807 OFFCURVE",
"223 741 OFFCURVE",
"322 741 CURVE SMOOTH",
"402 741 OFFCURVE",
"444 782 OFFCURVE",
"444 837 CURVE SMOOTH",
"444 865 OFFCURVE",
"438 877 OFFCURVE",
"438 904 CURVE SMOOTH",
"438 975 OFFCURVE",
"522 1008 OFFCURVE",
"613 1008 CURVE SMOOTH",
"718 1008 OFFCURVE",
"779 949 OFFCURVE",
"779 858 CURVE",
"1045 840 LINE",
"1045 1071 OFFCURVE",
"903 1180 OFFCURVE",
"625 1180 CURVE SMOOTH",
"384 1180 OFFCURVE",
"169 1073 OFFCURVE",
"169 896 CURVE SMOOTH"
);
},
{
closed = 1;
nodes = (
"657 547 LINE SMOOTH",
"714 565 OFFCURVE",
"754 590 OFFCURVE",
"779 616 CURVE",
"779 856 LINE",
"779 777 OFFCURVE",
"739 732 OFFCURVE",
"625 700 CURVE SMOOTH",
"543 677 LINE SMOOTH",
"346 622 OFFCURVE",
"109 560 OFFCURVE",
"109 316 CURVE SMOOTH",
"109 72 OFFCURVE",
"298 -20 OFFCURVE",
"505 -20 CURVE SMOOTH",
"746 -20 OFFCURVE",
"893 127 OFFCURVE",
"893 480 CURVE",
"779 480 LINE",
"779 275 OFFCURVE",
"681 194 OFFCURVE",
"553 194 CURVE SMOOTH",
"461 194 OFFCURVE",
"393 243 OFFCURVE",
"393 337 CURVE SMOOTH",
"393 439 OFFCURVE",
"469 487 OFFCURVE",
"604 530 CURVE SMOOTH"
);
},
{
closed = 1;
nodes = (
"779 340 LINE",
"823 340 LINE",
"823 254 LINE SMOOTH",
"823 80 OFFCURVE",
"919 -20 OFFCURVE",
"1080 -20 CURVE SMOOTH",
"1245 -20 OFFCURVE",
"1327 76 OFFCURVE",
"1327 234 CURVE SMOOTH",
"1327 330 LINE",
"1157 330 LINE",
"1157 250 LINE SMOOTH",
"1157 210 OFFCURVE",
"1138 184 OFFCURVE",
"1101 184 CURVE SMOOTH",
"1064 184 OFFCURVE",
"1045 210 OFFCURVE",
"1045 250 CURVE SMOOTH",
"1045 840 LINE",
"779 858 LINE"
);
}
);
width = 1331;
}
);
leftKerningGroup = a;
rightKerningGroup = a;
unicode = 0061;
},
{
glyphname = b;
lastChange = "2020-08-20 10:43:31 +0000";
layers = (
{
hints = (
{
origin = "{0, 5}";
scale = "{-0.9, 1}";
type = Corner;
name = _corner.Serif;
}
);
layerId = "CA54B7DC-FBBB-40FE-ACF3-AABDD76D6A7B";
paths = (
{
closed = 1;
nodes = (
"303 0 LINE",
"303 334 LINE",
"277 550 LINE",
"307 746 LINE",
"307 1530 LINE",
"259 1530 LINE",
"259 0 LINE"
);
},
{
closed = 1;
nodes = (
"1009 -16 OFFCURVE",
"1207 198 OFFCURVE",
"1207 550 CURVE SMOOTH",
"1207 902 OFFCURVE",
"1009 1116 OFFCURVE",
"735 1116 CURVE SMOOTH",
"441 1116 OFFCURVE",
"263 902 OFFCURVE",
"263 550 CURVE SMOOTH",
"263 198 OFFCURVE",
"441 -16 OFFCURVE",
"735 -16 CURVE SMOOTH"
);
},
{
closed = 1;
nodes = (
"483 24 OFFCURVE",
"303 220 OFFCURVE",
"303 550 CURVE SMOOTH",
"303 880 OFFCURVE",
"483 1076 OFFCURVE",
"735 1076 CURVE SMOOTH",
"983 1076 OFFCURVE",
"1159 880 OFFCURVE",
"1159 550 CURVE SMOOTH",
"1159 220 OFFCURVE",
"983 24 OFFCURVE",
"735 24 CURVE SMOOTH"
);
}
);
width = 1347;
},
{
hints = (
{
origin = "{0, 5}";
scale = "{-0.9, 1}";
type = Corner;
name = _corner.Serif;
}
);
layerId = "1E61A082-F045-49A7-AB52-DD1B03FD9B54";
paths = (
{
closed = 1;
nodes = (
"273 0 LINE",
"273 324 LINE",
"247 540 LINE",
"277 736 LINE",
"277 1480 LINE",
"229 1480 LINE",
"229 0 LINE"
);
},
{
closed = 1;
nodes = (
"979 -16 OFFCURVE",
"1177 194 OFFCURVE",
"1177 540 CURVE SMOOTH",
"1177 886 OFFCURVE",
"979 1096 OFFCURVE",
"705 1096 CURVE SMOOTH",
"411 1096 OFFCURVE",
"233 886 OFFCURVE",
"233 540 CURVE SMOOTH",
"233 194 OFFCURVE",
"411 -16 OFFCURVE",
"705 -16 CURVE SMOOTH"
);
},
{
closed = 1;
nodes = (
"453 24 OFFCURVE",
"273 216 OFFCURVE",
"273 540 CURVE SMOOTH",
"273 864 OFFCURVE",
"453 1056 OFFCURVE",
"705 1056 CURVE SMOOTH",
"953 1056 OFFCURVE",
"1129 864 OFFCURVE",
"1129 540 CURVE SMOOTH",
"1129 216 OFFCURVE",
"953 24 OFFCURVE",
"705 24 CURVE SMOOTH"
);
}
);
width = 1301;
},
{
hints = (
{
origin = "{0, 5}";
scale = "{-0.9, 0.99}";
type = Corner;
name = _corner.Serif;
}
);
layerId = "642E5713-E15A-4A7E-A28E-9A6B75A6585C";
paths = (
{
closed = 1;
nodes = (
"412 0 LINE",
"412 270 LINE",
"374 560 LINE",
"448 776 LINE",
"448 1480 LINE",
"170 1480 LINE",
"170 0 LINE"
);
},
{
closed = 1;
nodes = (
"1114 -16 OFFCURVE",
"1338 201 OFFCURVE",
"1338 560 CURVE SMOOTH",
"1338 919 OFFCURVE",
"1114 1136 OFFCURVE",
"796 1136 CURVE SMOOTH",
"480 1136 OFFCURVE",
"323 919 OFFCURVE",
"323 560 CURVE SMOOTH",
"323 201 OFFCURVE",
"480 -16 OFFCURVE",
"796 -16 CURVE SMOOTH"
);
},
{
closed = 1;
nodes = (
"555 152 OFFCURVE",
"434 300 OFFCURVE",
"434 560 CURVE SMOOTH",
"434 820 OFFCURVE",
"555 970 OFFCURVE",
"738 970 CURVE SMOOTH",
"917 970 OFFCURVE",
"1038 820 OFFCURVE",
"1038 560 CURVE SMOOTH",
"1038 300 OFFCURVE",
"917 152 OFFCURVE",
"738 152 CURVE SMOOTH"
);
}
);
width = 1412;
},
{
hints = (
{
origin = "{0, 5}";
scale = "{-0.9, 0.98}";
type = Corner;
name = _corner.Serif;
}
);
layerId = "AF891779-7DE6-4679-9CA2-17B922C1DF84";
paths = (
{
closed = 1;
nodes = (
"456 0 LINE",
"456 297 LINE",
"416 580 LINE",
"490 816 LINE",
"490 1530 LINE",
"212 1530 LINE",
"212 0 LINE"
);
},
{
closed = 1;
nodes = (
"1156 -16 OFFCURVE",
"1388 209 OFFCURVE",
"1388 580 CURVE SMOOTH",
"1388 951 OFFCURVE",
"1156 1176 OFFCURVE",
"836 1176 CURVE SMOOTH",
"513 1176 OFFCURVE",
"358 951 OFFCURVE",
"358 580 CURVE SMOOTH",
"358 209 OFFCURVE",
"513 -16 OFFCURVE",
"836 -16 CURVE SMOOTH"
);
},
{
closed = 1;
nodes = (
"595 176 OFFCURVE",
"476 319 OFFCURVE",
"476 580 CURVE SMOOTH",
"476 841 OFFCURVE",
"595 988 OFFCURVE",
"784 988 CURVE SMOOTH",
"969 988 OFFCURVE",
"1088 841 OFFCURVE",
"1088 580 CURVE SMOOTH",
"1088 319 OFFCURVE",
"969 176 OFFCURVE",
"784 176 CURVE SMOOTH"
);
}
);
width = 1492;
}
);
leftKerningGroup = b;
rightKerningGroup = o;
rightMetricsKey = o;
unicode = 0062;
},
{
glyphname = c;
lastChange = "2020-08-20 10:40:17 +0000";
layers = (
{
layerId = "CA54B7DC-FBBB-40FE-ACF3-AABDD76D6A7B";
paths = (
{
closed = 1;
nodes = (
"648 1076 LINE",
"891 1076 OFFCURVE",
"997 932 OFFCURVE",
"997 811 CURVE SMOOTH",
"997 759 OFFCURVE",
"983 738 OFFCURVE",
"983 713 CURVE SMOOTH",
"983 692 OFFCURVE",
"996 679 OFFCURVE",
"1014 679 CURVE SMOOTH",
"1047 679 OFFCURVE",
"1055 725 OFFCURVE",
"1055 771 CURVE SMOOTH",
"1055 955 OFFCURVE",
"916 1116 OFFCURVE",
"648 1116 CURVE"
);
},
{
closed = 1;
nodes = (
"1020 333 LINE",
"996 212 OFFCURVE",
"895 24 OFFCURVE",
"644 24 CURVE SMOOTH",
"371 24 OFFCURVE",
"190 222 OFFCURVE",
"190 550 CURVE SMOOTH",
"190 878 OFFCURVE",
"372 1076 OFFCURVE",
"648 1076 CURVE",
"648 1116 LINE",
"346 1116 OFFCURVE",
"140 910 OFFCURVE",
"140 550 CURVE SMOOTH",
"140 190 OFFCURVE",
"346 -16 OFFCURVE",
"644 -16 CURVE SMOOTH",
"917 -16 OFFCURVE",
"1034 177 OFFCURVE",
"1062 323 CURVE"
);
}
);
width = 1202;
},
{
layerId = "1E61A082-F045-49A7-AB52-DD1B03FD9B54";
paths = (
{
closed = 1;
nodes = (
"624 1056 LINE",
"884 1056 OFFCURVE",
"979 897 OFFCURVE",
"979 778 CURVE SMOOTH",
"979 707 OFFCURVE",
"949 681 OFFCURVE",
"949 648 CURVE SMOOTH",
"949 630 OFFCURVE",
"959 618 OFFCURVE",
"979 618 CURVE SMOOTH",
"1014 618 OFFCURVE",
"1032 687 OFFCURVE",
"1032 750 CURVE SMOOTH",
"1032 929 OFFCURVE",
"906 1096 OFFCURVE",
"624 1096 CURVE"
);
},
{
closed = 1;
nodes = (
"1005 366 LINE",
"975 217 OFFCURVE",
"866 24 OFFCURVE",
"620 24 CURVE SMOOTH",
"348 24 OFFCURVE",
"174 218 OFFCURVE",
"174 540 CURVE SMOOTH",
"174 862 OFFCURVE",
"350 1056 OFFCURVE",
"624 1056 CURVE",
"624 1096 LINE",
"324 1096 OFFCURVE",
"124 894 OFFCURVE",
"124 540 CURVE SMOOTH",
"124 186 OFFCURVE",
"323 -16 OFFCURVE",
"620 -16 CURVE SMOOTH",
"890 -16 OFFCURVE",
"1011 182 OFFCURVE",
"1046 356 CURVE"
);
}
);
width = 1170;
},
{
layerId = "642E5713-E15A-4A7E-A28E-9A6B75A6585C";
paths = (
{
closed = 1;
nodes = (
"634 988 LINE",
"759 990 OFFCURVE",
"809 923 OFFCURVE",
"809 845 CURVE SMOOTH",
"809 812 OFFCURVE",
"806 793 OFFCURVE",
"806 763 CURVE SMOOTH",
"806 673 OFFCURVE",
"854 613 OFFCURVE",
"947 613 CURVE SMOOTH",
"1048 613 OFFCURVE",
"1100 685 OFFCURVE",
"1100 789 CURVE SMOOTH",
"1100 977 OFFCURVE",
"924 1140 OFFCURVE",
"628 1140 CURVE"
);
},
{
closed = 1;
nodes = (
"957 466 LINE",
"927 337 OFFCURVE",
"846 218 OFFCURVE",
"656 218 CURVE SMOOTH",
"453 218 OFFCURVE",
"324 374 OFFCURVE",
"324 616 CURVE SMOOTH",
"324 838 OFFCURVE",
"440 990 OFFCURVE",
"634 988 CURVE",
"628 1140 LINE",
"305 1140 OFFCURVE",
"74 936 OFFCURVE",
"74 560 CURVE SMOOTH",
"74 184 OFFCURVE",
"304 -20 OFFCURVE",
"616 -20 CURVE SMOOTH",
"934 -20 OFFCURVE",
"1073 200 OFFCURVE",
"1104 434 CURVE"
);
}
);
width = 1178;
},
{
layerId = "AF891779-7DE6-4679-9CA2-17B922C1DF84";
rightMetricsKey = "=o-2";
paths = (
{
closed = 1;
nodes = (
"670 1004 LINE",
"792 1004 OFFCURVE",
"857 945 OFFCURVE",
"857 851 CURVE SMOOTH",
"857 826 OFFCURVE",
"855 815 OFFCURVE",
"855 791 CURVE SMOOTH",
"855 717 OFFCURVE",
"901 649 OFFCURVE",
"1001 649 CURVE SMOOTH",
"1100 649 OFFCURVE",
"1154 713 OFFCURVE",
"1154 821 CURVE SMOOTH",
"1154 1026 OFFCURVE",
"965 1180 OFFCURVE",
"662 1180 CURVE"
);
},
{
closed = 1;
nodes = (
"981 422 LINE",
"958 338 OFFCURVE",
"872 234 OFFCURVE",
"692 234 CURVE SMOOTH",
"496 234 OFFCURVE",
"364 393 OFFCURVE",
"364 624 CURVE SMOOTH",
"364 852 OFFCURVE",
"482 1004 OFFCURVE",
"670 1004 CURVE",
"662 1180 LINE",
"334 1180 OFFCURVE",
"104 970 OFFCURVE",
"104 580 CURVE SMOOTH",
"104 190 OFFCURVE",
"334 -20 OFFCURVE",
"656 -20 CURVE SMOOTH",
"979 -20 OFFCURVE",
"1124 173 OFFCURVE",
"1160 374 CURVE"
);
}
);
width = 1262;
}
);
leftKerningGroup = o;
leftMetricsKey = o;
rightKerningGroup = o;
rightMetricsKey = o;
unicode = 0063;
},
{
glyphname = d;
lastChange = "2020-08-20 10:40:17 +0000";
layers = (
{
hints = (
{
origin = "{0, 1}";
scale = "{-0.9, 1}";
type = Corner;
name = _corner.Serif;
},
{
origin = "{0, 6}";
scale = "{-0.9, 1}";
type = Corner;
name = _corner.Serif;
}
);
layerId = "CA54B7DC-FBBB-40FE-ACF3-AABDD76D6A7B";
paths = (
{
closed = 1;
nodes = (
"1088 1530 LINE",
"1040 1530 LINE",
"1040 746 LINE",
"1070 550 LINE",
"1044 334 LINE",
"1044 0 LINE",
"1088 0 LINE"
);
},
{
closed = 1;
nodes = (
"906 -16 OFFCURVE",
"1084 198 OFFCURVE",
"1084 550 CURVE SMOOTH",
"1084 902 OFFCURVE",
"906 1116 OFFCURVE",
"612 1116 CURVE SMOOTH",
"338 1116 OFFCURVE",
"140 902 OFFCURVE",
"140 550 CURVE SMOOTH",
"140 198 OFFCURVE",
"338 -16 OFFCURVE",
"612 -16 CURVE SMOOTH"
);
},
{
closed = 1;
nodes = (
"364 24 OFFCURVE",
"188 220 OFFCURVE",
"188 550 CURVE SMOOTH",
"188 880 OFFCURVE",
"364 1076 OFFCURVE",
"612 1076 CURVE SMOOTH",
"864 1076 OFFCURVE",
"1044 880 OFFCURVE",
"1044 550 CURVE SMOOTH",
"1044 220 OFFCURVE",
"864 24 OFFCURVE",
"612 24 CURVE SMOOTH"
);
}
);
width = 1381;
},
{
hints = (
{
origin = "{0, 6}";
scale = "{-0.9, 1}";
type = Corner;
name = _corner.Serif;
},
{
origin = "{0, 1}";
scale = "{-0.9, 1}";
type = Corner;
name = _corner.Serif;
}
);
layerId = "1E61A082-F045-49A7-AB52-DD1B03FD9B54";
paths = (
{
closed = 1;
nodes = (
"1072 1480 LINE",
"1024 1480 LINE",
"1024 736 LINE",
"1054 540 LINE",
"1028 324 LINE",
"1028 0 LINE",
"1072 0 LINE"
);
},
{
closed = 1;
nodes = (
"890 -16 OFFCURVE",
"1068 194 OFFCURVE",
"1068 540 CURVE SMOOTH",
"1068 886 OFFCURVE",
"890 1096 OFFCURVE",
"596 1096 CURVE SMOOTH",
"322 1096 OFFCURVE",
"124 886 OFFCURVE",
"124 540 CURVE SMOOTH",
"124 194 OFFCURVE",
"322 -16 OFFCURVE",
"596 -16 CURVE SMOOTH"
);
},
{
closed = 1;
nodes = (
"348 24 OFFCURVE",
"172 216 OFFCURVE",
"172 540 CURVE SMOOTH",
"172 864 OFFCURVE",
"348 1056 OFFCURVE",
"596 1056 CURVE SMOOTH",
"848 1056 OFFCURVE",
"1028 864 OFFCURVE",
"1028 540 CURVE SMOOTH",
"1028 216 OFFCURVE",
"848 24 OFFCURVE",
"596 24 CURVE SMOOTH"
);
}
);
width = 1333;
},
{
hints = (
{
origin = "{0, 6}";
scale = "{-0.9, 1}";
type = Corner;
name = _corner.Serif;
},
{
origin = "{0, 1}";
scale = "{-0.9, 0.99}";
type = Corner;
name = _corner.Serif;
}
);
layerId = "642E5713-E15A-4A7E-A28E-9A6B75A6585C";
paths = (
{
closed = 1;
nodes = (
"1242 1480 LINE",
"964 1480 LINE",
"964 776 LINE",
"1038 560 LINE",
"1006 319 LINE",
"1006 0 LINE",
"1242 0 LINE"
);
},
{
closed = 1;
nodes = (
"932 -16 OFFCURVE",
"1089 201 OFFCURVE",
"1089 560 CURVE SMOOTH",
"1089 919 OFFCURVE",
"932 1136 OFFCURVE",
"616 1136 CURVE SMOOTH",
"298 1136 OFFCURVE",
"74 919 OFFCURVE",
"74 560 CURVE SMOOTH",
"74 201 OFFCURVE",
"298 -16 OFFCURVE",
"616 -16 CURVE SMOOTH"
);
},
{
closed = 1;
nodes = (
"495 152 OFFCURVE",
"374 300 OFFCURVE",
"374 560 CURVE SMOOTH",
"374 820 OFFCURVE",
"495 970 OFFCURVE",
"674 970 CURVE SMOOTH",
"857 970 OFFCURVE",
"978 820 OFFCURVE",
"978 560 CURVE SMOOTH",
"978 300 OFFCURVE",
"857 152 OFFCURVE",
"674 152 CURVE SMOOTH"
);
}
);
width = 1464;
},
{
hints = (
{
origin = "{0, 1}";
scale = "{-0.9, 0.98}";
type = Corner;
name = _corner.Serif;
},
{
origin = "{0, 6}";
scale = "{-0.9, 1}";
type = Corner;
name = _corner.Serif;
}
);
layerId = "AF891779-7DE6-4679-9CA2-17B922C1DF84";
paths = (
{
closed = 1;
nodes = (
"1280 1530 LINE",
"1002 1530 LINE",
"1002 816 LINE",
"1076 580 LINE",
"1044 309 LINE",
"1044 0 LINE",
"1280 0 LINE"
);
},
{
closed = 1;
nodes = (
"979 -16 OFFCURVE",
"1134 209 OFFCURVE",
"1134 580 CURVE SMOOTH",
"1134 951 OFFCURVE",
"979 1176 OFFCURVE",
"656 1176 CURVE SMOOTH",
"336 1176 OFFCURVE",
"104 951 OFFCURVE",
"104 580 CURVE SMOOTH",
"104 209 OFFCURVE",
"336 -16 OFFCURVE",
"656 -16 CURVE SMOOTH"
);
},
{
closed = 1;
nodes = (
"523 176 OFFCURVE",
"404 319 OFFCURVE",
"404 580 CURVE SMOOTH",
"404 841 OFFCURVE",
"523 988 OFFCURVE",
"708 988 CURVE SMOOTH",
"897 988 OFFCURVE",
"1016 841 OFFCURVE",
"1016 580 CURVE SMOOTH",
"1016 319 OFFCURVE",
"897 176 OFFCURVE",
"708 176 CURVE SMOOTH"
);
}
);
width = 1524;
}
);
leftKerningGroup = o;
leftMetricsKey = o;
rightKerningGroup = l;
rightMetricsKey = l;
unicode = 0064;
},
{
glyphname = e;
lastChange = "2020-08-20 10:40:17 +0000";
layers = (
{
layerId = "CA54B7DC-FBBB-40FE-ACF3-AABDD76D6A7B";
paths = (
{
closed = 1;
nodes = (
"1030 324 LINE",
"999 205 OFFCURVE",
"891 26 OFFCURVE",
"634 26 CURVE SMOOTH",
"368 26 OFFCURVE",
"190 222 OFFCURVE",
"190 550 CURVE SMOOTH",
"190 878 OFFCURVE",
"370 1076 OFFCURVE",
"636 1076 CURVE",
"636 1116 LINE",
"346 1116 OFFCURVE",
"140 910 OFFCURVE",
"140 550 CURVE SMOOTH",
"140 190 OFFCURVE",
"344 -16 OFFCURVE",
"634 -16 CURVE SMOOTH",
"916 -16 OFFCURVE",
"1041 177 OFFCURVE",
"1072 314 CURVE"
);
},
{
closed = 1;
nodes = (
"1090 612 LINE",
"1090 908 OFFCURVE",
"924 1116 OFFCURVE",
"636 1116 CURVE",
"636 1076 LINE",
"900 1076 OFFCURVE",
"1034 880 OFFCURVE",
"1046 636 CURVE"
);
},
{
closed = 1;
nodes = (
"174 594 LINE",
"1090 594 LINE",
"1090 612 LINE",
"1046 636 LINE",
"174 636 LINE"
);
}
);
width = 1230;
},
{
layerId = "1E61A082-F045-49A7-AB52-DD1B03FD9B54";
paths = (
{
closed = 1;
nodes = (
"1020 380 LINE",
"988 238 OFFCURVE",
"885 26 OFFCURVE",
"618 26 CURVE SMOOTH",
"354 26 OFFCURVE",
"174 218 OFFCURVE",
"174 540 CURVE SMOOTH",
"174 862 OFFCURVE",
"354 1056 OFFCURVE",
"618 1056 CURVE",
"618 1096 LINE",
"330 1096 OFFCURVE",
"124 894 OFFCURVE",
"124 540 CURVE SMOOTH",
"124 186 OFFCURVE",
"330 -16 OFFCURVE",
"618 -16 CURVE SMOOTH",
"909 -16 OFFCURVE",
"1030 210 OFFCURVE",
"1062 370 CURVE"
);
},
{
closed = 1;
nodes = (
"1068 600 LINE",
"1068 892 OFFCURVE",
"904 1096 OFFCURVE",
"618 1096 CURVE",
"618 1056 LINE",
"880 1056 OFFCURVE",
"1012 863 OFFCURVE",
"1024 624 CURVE"
);
},
{
closed = 1;
nodes = (
"158 584 LINE",
"1068 584 LINE",
"1068 600 LINE",
"1024 624 LINE",
"158 624 LINE"
);
}
);
width = 1192;
},
{
layerId = "642E5713-E15A-4A7E-A28E-9A6B75A6585C";
paths = (
{
closed = 1;
nodes = (
"971 431 LINE",
"942 334 OFFCURVE",
"868 220 OFFCURVE",
"672 220 CURVE SMOOTH",
"456 220 OFFCURVE",
"330 382 OFFCURVE",
"330 626 CURVE SMOOTH",
"330 853 OFFCURVE",
"423 988 OFFCURVE",
"610 988 CURVE",
"618 1140 LINE",
"301 1140 OFFCURVE",
"74 930 OFFCURVE",
"74 560 CURVE SMOOTH",
"74 190 OFFCURVE",
"301 -20 OFFCURVE",
"618 -20 CURVE SMOOTH",
"944 -20 OFFCURVE",
"1093 201 OFFCURVE",
"1121 399 CURVE"
);
},
{
closed = 1;
nodes = (
"1138 626 LINE",
"1138 930 OFFCURVE",
"947 1140 OFFCURVE",
"618 1140 CURVE",
"610 988 LINE",
"779 987 OFFCURVE",
"854 862 OFFCURVE",
"856 714 CURVE"
);
},
{
closed = 1;
nodes = (
"174 556 LINE",
"1138 556 LINE",
"1138 626 LINE",
"856 714 LINE",
"174 714 LINE"
);
}
);
width = 1212;
},
{
layerId = "AF891779-7DE6-4679-9CA2-17B922C1DF84";
paths = (
{
closed = 1;
nodes = (
"997 395 LINE",
"969 323 OFFCURVE",
"895 226 OFFCURVE",
"710 226 CURVE SMOOTH",
"494 226 OFFCURVE",
"364 385 OFFCURVE",
"364 626 CURVE SMOOTH",
"364 860 OFFCURVE",
"464 1004 OFFCURVE",
"660 1004 CURVE",
"660 1180 LINE",
"332 1180 OFFCURVE",
"104 963 OFFCURVE",
"104 580 CURVE SMOOTH",
"104 197 OFFCURVE",
"332 -20 OFFCURVE",
"660 -20 CURVE SMOOTH",
"995 -20 OFFCURVE",
"1125 172 OFFCURVE",
"1170 325 CURVE"
);
},
{
closed = 1;
nodes = (
"1190 636 LINE",
"1190 960 OFFCURVE",
"998 1180 OFFCURVE",
"660 1180 CURVE",
"660 1004 LINE",
"829 1003 OFFCURVE",
"910 880 OFFCURVE",
"910 742 CURVE"
);
},
{
closed = 1;
nodes = (
"220 562 LINE",
"1190 562 LINE",
"1190 636 LINE",
"910 742 LINE",
"220 742 LINE"
);
}
);
width = 1294;
}
);
leftKerningGroup = o;
leftMetricsKey = o;
rightKerningGroup = o;
rightMetricsKey = o;
unicode = 0065;
},
{
glyphname = f;
lastChange = "2020-08-20 10:44:26 +0000";
layers = (
{
hints = (
{
origin = "{1, 0}";
type = Corner;
name = _corner.Serif;
},
{
origin = "{1, 1}";
scale = "{-1.2, 1}";
type = Corner;
name = _corner.Serif;
options = 1;
}
);
layerId = "CA54B7DC-FBBB-40FE-ACF3-AABDD76D6A7B";
paths = (
{
closed = 1;
nodes = (
"70 1058 LINE",
"798 1058 LINE",
"798 1100 LINE",
"70 1100 LINE"
);
},
{
closed = 1;
nodes = (
"370 0 LINE",
"418 0 LINE",
"418 1180 LINE",
"370 1176 LINE"
);
},
{
closed = 1;
nodes = (
"497 1590 OFFCURVE",
"370 1449 OFFCURVE",
"370 1176 CURVE",
"418 1180 LINE",
"418 1429 OFFCURVE",
"527 1550 OFFCURVE",
"724 1550 CURVE SMOOTH",
"855 1550 OFFCURVE",
"923 1492 OFFCURVE",
"917 1379 CURVE SMOOTH",
"915 1342 OFFCURVE",
"921 1320 OFFCURVE",
"946 1320 CURVE SMOOTH",
"976 1320 OFFCURVE",
"980 1343 OFFCURVE",
"980 1388 CURVE SMOOTH",
"980 1521 OFFCURVE",
"870 1590 OFFCURVE",
"724 1590 CURVE SMOOTH"
);
}
);
width = 900;
},
{
hints = (
{
origin = "{1, 0}";
type = Corner;
name = _corner.Serif;
},
{
origin = "{1, 1}";
scale = "{-1.4, 1}";
type = Corner;
name = _corner.Serif;
options = 1;
}
);
layerId = "1E61A082-F045-49A7-AB52-DD1B03FD9B54";
paths = (
{
closed = 1;
nodes = (
"72 1040 LINE",
"800 1040 LINE",
"800 1080 LINE",
"72 1080 LINE"
);
},
{
closed = 1;
nodes = (
"372 0 LINE",
"420 0 LINE",
"420 1140 LINE",
"372 1136 LINE"
);
},
{
closed = 1;
nodes = (
"493 1540 OFFCURVE",
"372 1402 OFFCURVE",
"372 1136 CURVE",
"420 1140 LINE",
"420 1382 OFFCURVE",
"523 1500 OFFCURVE",
"710 1500 CURVE SMOOTH",
"823 1500 OFFCURVE",
"891 1442 OFFCURVE",
"881 1339 CURVE SMOOTH",
"877 1297 OFFCURVE",
"886 1274 OFFCURVE",
"912 1274 CURVE SMOOTH",
"937 1274 OFFCURVE",
"946 1298 OFFCURVE",
"946 1346 CURVE SMOOTH",
"946 1478 OFFCURVE",
"848 1540 OFFCURVE",
"710 1540 CURVE SMOOTH"
);
}
);
width = 886;
},
{
hints = (
{
origin = "{1, 0}";
type = Corner;
name = _corner.Serif;
},
{
origin = "{1, 1}";
scale = "{-1.4, 1}";
type = Corner;
name = _corner.Serif;
}
);
layerId = "642E5713-E15A-4A7E-A28E-9A6B75A6585C";
paths = (
{
closed = 1;
nodes = (
"42 962 LINE",
"920 962 LINE",
"920 1120 LINE",
"42 1120 LINE"
);
},
{
closed = 1;
nodes = (
"292 0 LINE",
"572 0 LINE",
"572 1240 LINE",
"292 1130 LINE"
);
},
{
closed = 1;
nodes = (
"452 1580 OFFCURVE",
"292 1427 OFFCURVE",
"292 1130 CURVE",
"572 1240 LINE",
"572 1381 OFFCURVE",
"628 1440 OFFCURVE",
"696 1440 CURVE SMOOTH",
"755 1440 OFFCURVE",
"776 1407 OFFCURVE",
"798 1346 CURVE SMOOTH",
"822 1280 OFFCURVE",
"862 1253 OFFCURVE",
"930 1253 CURVE SMOOTH",
"1002 1253 OFFCURVE",
"1052 1302 OFFCURVE",
"1052 1378 CURVE SMOOTH",
"1052 1502 OFFCURVE",
"924 1580 OFFCURVE",
"736 1580 CURVE SMOOTH"
);
}
);
width = 980;
},
{
hints = (
{
origin = "{1, 0}";
type = Corner;
name = _corner.Serif;
},
{
origin = "{1, 1}";
scale = "{-1.2, 1}";
type = Corner;
name = _corner.Serif;
}
);
layerId = "AF891779-7DE6-4679-9CA2-17B922C1DF84";
paths = (
{
closed = 1;
nodes = (
"66 980 LINE",
"924 980 LINE",
"924 1160 LINE",
"66 1160 LINE"
);
},
{
closed = 1;
nodes = (
"316 0 LINE",
"596 0 LINE",
"596 1270 LINE",
"316 1170 LINE"
);
},
{
closed = 1;
nodes = (
"479 1630 OFFCURVE",
"316 1474 OFFCURVE",
"316 1170 CURVE",
"596 1270 LINE",
"596 1411 OFFCURVE",
"655 1470 OFFCURVE",
"730 1470 CURVE SMOOTH",
"784 1470 OFFCURVE",
"811 1446 OFFCURVE",
"844 1404 CURVE SMOOTH",
"891 1345 OFFCURVE",
"922 1309 OFFCURVE",
"994 1309 CURVE SMOOTH",
"1071 1309 OFFCURVE",
"1116 1352 OFFCURVE",
"1116 1432 CURVE SMOOTH",
"1116 1556 OFFCURVE",
"965 1630 OFFCURVE",
"770 1630 CURVE SMOOTH"
);
}
);
width = 1012;
}
);
leftKerningGroup = f;
rightKerningGroup = f;
unicode = 0066;
},
{
glyphname = g;
lastChange = "2020-08-20 10:42:49 +0000";
layers = (
{
layerId = "CA54B7DC-FBBB-40FE-ACF3-AABDD76D6A7B";
paths = (
{
closed = 1;
nodes = (
"846 368 OFFCURVE",
"1010 514 OFFCURVE",
"1010 738 CURVE SMOOTH",
"1010 918 OFFCURVE",
"908 1026 OFFCURVE",
"784 1068 CURVE",
"626 1108 LINE",
"382 1108 OFFCURVE",
"218 962 OFFCURVE",
"218 738 CURVE SMOOTH",
"218 514 OFFCURVE",
"382 368 OFFCURVE",
"614 368 CURVE SMOOTH"
);
},
{
closed = 1;
nodes = (
"412 408 OFFCURVE",
"266 538 OFFCURVE",
"266 738 CURVE SMOOTH",
"266 938 OFFCURVE",
"412 1068 OFFCURVE",
"614 1068 CURVE SMOOTH",
"816 1068 OFFCURVE",
"962 938 OFFCURVE",
"962 738 CURVE SMOOTH",
"962 538 OFFCURVE",
"816 408 OFFCURVE",
"614 408 CURVE SMOOTH"
);
},
{
closed = 1;
nodes = (
"784 1068 LINE",
"1178 1068 LINE",
"1178 1108 LINE",
"626 1108 LINE"
);
},
{
closed = 1;
nodes = (
"208 514 OFFCURVE",
"98 442 OFFCURVE",
"98 306 CURVE SMOOTH",
"98 182 OFFCURVE",
"196 98 OFFCURVE",
"344 98 CURVE SMOOTH",
"914 98 LINE SMOOTH",
"1056 98 OFFCURVE",
"1116 32 OFFCURVE",
"1116 -90 CURVE SMOOTH",
"1116 -213 OFFCURVE",
"1033 -338 OFFCURVE",
"800 -338 CURVE SMOOTH",
"506 -338 LINE SMOOTH",
"301 -338 OFFCURVE",
"212 -252 OFFCURVE",
"212 -114 CURVE SMOOTH",
"212 7 OFFCURVE",
"300 75 OFFCURVE",
"350 100 CURVE",
"330 131 LINE",
"256 94 OFFCURVE",
"164 17 OFFCURVE",
"164 -114 CURVE SMOOTH",
"164 -280 OFFCURVE",
"274 -380 OFFCURVE",
"506 -380 CURVE SMOOTH",
"800 -380 LINE SMOOTH",
"1063 -380 OFFCURVE",
"1162 -232 OFFCURVE",
"1162 -88 CURVE SMOOTH",
"1162 55 OFFCURVE",
"1084 140 OFFCURVE",
"916 140 CURVE SMOOTH",
"348 140 LINE SMOOTH",
"226 140 OFFCURVE",
"146 210 OFFCURVE",
"146 306 CURVE SMOOTH",
"146 414 OFFCURVE",
"220 468 OFFCURVE",
"320 478 CURVE",
"316 518 LINE"
);
}
);
width = 1264;
},
{
layerId = "1E61A082-F045-49A7-AB52-DD1B03FD9B54";
paths = (
{
closed = 1;
nodes = (
"802 360 OFFCURVE",
"966 503 OFFCURVE",
"966 724 CURVE SMOOTH",
"966 901 OFFCURVE",
"867 1007 OFFCURVE",
"746 1048 CURVE",
"582 1088 LINE",
"338 1088 OFFCURVE",
"174 945 OFFCURVE",
"174 724 CURVE SMOOTH",
"174 503 OFFCURVE",
"338 360 OFFCURVE",
"570 360 CURVE SMOOTH"
);
},
{
closed = 1;
nodes = (
"368 400 OFFCURVE",
"222 527 OFFCURVE",
"222 724 CURVE SMOOTH",
"222 921 OFFCURVE",
"368 1048 OFFCURVE",
"570 1048 CURVE SMOOTH",
"772 1048 OFFCURVE",
"918 921 OFFCURVE",
"918 724 CURVE SMOOTH",
"918 527 OFFCURVE",
"772 400 OFFCURVE",
"570 400 CURVE SMOOTH"
);
},
{
closed = 1;
nodes = (
"746 1048 LINE",
"1134 1048 LINE",
"1134 1088 LINE",
"582 1088 LINE"
);
},
{
closed = 1;
nodes = (
"169 510 OFFCURVE",
"54 438 OFFCURVE",
"54 303 CURVE SMOOTH",
"54 181 OFFCURVE",
"152 100 OFFCURVE",
"300 100 CURVE SMOOTH",
"870 100 LINE SMOOTH",
"1012 100 OFFCURVE",
"1072 32 OFFCURVE",
"1072 -90 CURVE SMOOTH",
"1072 -213 OFFCURVE",
"989 -340 OFFCURVE",
"756 -340 CURVE SMOOTH",
"462 -340 LINE SMOOTH",
"257 -340 OFFCURVE",
"168 -252 OFFCURVE",
"168 -114 CURVE SMOOTH",
"168 7 OFFCURVE",
"256 75 OFFCURVE",
"306 100 CURVE",
"286 131 LINE",
"212 94 OFFCURVE",
"120 17 OFFCURVE",
"120 -114 CURVE SMOOTH",
"120 -280 OFFCURVE",
"230 -380 OFFCURVE",
"462 -380 CURVE SMOOTH",
"756 -380 LINE SMOOTH",
"1019 -380 OFFCURVE",
"1118 -232 OFFCURVE",
"1118 -88 CURVE SMOOTH",
"1118 55 OFFCURVE",
"1040 140 OFFCURVE",
"872 140 CURVE SMOOTH",
"304 140 LINE SMOOTH",
"182 140 OFFCURVE",
"102 209 OFFCURVE",
"102 303 CURVE SMOOTH",
"102 410 OFFCURVE",
"180 464 OFFCURVE",
"286 474 CURVE",
"282 514 LINE"
);
}
);
width = 1190;
},
{
layerId = "642E5713-E15A-4A7E-A28E-9A6B75A6585C";
paths = (
{
closed = 1;
nodes = (
"932 394 OFFCURVE",
"1121 528 OFFCURVE",
"1121 742 CURVE SMOOTH",
"1121 867 OFFCURVE",
"1052 940 OFFCURVE",
"964 974 CURVE",
"642 1130 LINE",
"348 1130 OFFCURVE",
"156 986 OFFCURVE",
"156 762 CURVE SMOOTH",
"156 538 OFFCURVE",
"348 394 OFFCURVE",
"640 394 CURVE SMOOTH"
);
},
{
closed = 1;
nodes = (
"525 540 OFFCURVE",
"448 630 OFFCURVE",
"448 764 CURVE SMOOTH",
"448 898 OFFCURVE",
"525 988 OFFCURVE",
"640 988 CURVE SMOOTH",
"755 988 OFFCURVE",
"832 898 OFFCURVE",
"832 764 CURVE SMOOTH",
"832 630 OFFCURVE",
"755 540 OFFCURVE",
"640 540 CURVE SMOOTH"
);
},
{
closed = 1;
nodes = (
"964 974 LINE",
"1250 974 LINE",
"1250 1130 LINE",
"642 1130 LINE"
);
},
{
closed = 1;
nodes = (
"227 552 OFFCURVE",
"76 470 OFFCURVE",
"76 289 CURVE SMOOTH",
"76 123 OFFCURVE",
"217 26 OFFCURVE",
"402 26 CURVE SMOOTH",
"896 26 LINE SMOOTH",
"975 26 OFFCURVE",
"1008 -11 OFFCURVE",
"1008 -70 CURVE SMOOTH",
"1008 -152 OFFCURVE",
"935 -222 OFFCURVE",
"773 -222 CURVE SMOOTH",
"551 -222 LINE SMOOTH",
"401 -222 OFFCURVE",
"355 -155 OFFCURVE",
"355 -63 CURVE SMOOTH",
"355 -9 OFFCURVE",
"372 24 OFFCURVE",
"405 68 CURVE",
"389 92 LINE",
"271 56 OFFCURVE",
"143 7 OFFCURVE",
"143 -148 CURVE SMOOTH",
"143 -295 OFFCURVE",
"282 -380 OFFCURVE",
"523 -380 CURVE SMOOTH",
"765 -380 LINE SMOOTH",
"1080 -380 OFFCURVE",
"1262 -247 OFFCURVE",
"1262 -18 CURVE SMOOTH",
"1262 156 OFFCURVE",
"1151 270 OFFCURVE",
"916 270 CURVE SMOOTH",
"396 270 LINE SMOOTH",
"330 270 OFFCURVE",
"284 302 OFFCURVE",
"284 362 CURVE SMOOTH",
"284 422 OFFCURVE",
"330 454 OFFCURVE",
"396 454 CURVE",
"402 552 LINE"
);
}
);
width = 1300;
},
{
layerId = "AF891779-7DE6-4679-9CA2-17B922C1DF84";
paths = (
{
closed = 1;
nodes = (
"966 410 OFFCURVE",
"1155 550 OFFCURVE",
"1155 770 CURVE SMOOTH",
"1155 890 OFFCURVE",
"1093 961 OFFCURVE",
"1020 997 CURVE",
"676 1170 LINE",
"382 1170 OFFCURVE",
"190 1020 OFFCURVE",
"190 790 CURVE SMOOTH",
"190 560 OFFCURVE",
"382 410 OFFCURVE",
"674 410 CURVE SMOOTH"
);
},
{
closed = 1;
nodes = (
"557 574 OFFCURVE",
"480 662 OFFCURVE",
"480 792 CURVE SMOOTH",
"480 922 OFFCURVE",
"557 1010 OFFCURVE",
"674 1010 CURVE SMOOTH",
"791 1010 OFFCURVE",
"868 922 OFFCURVE",
"868 792 CURVE SMOOTH",
"868 662 OFFCURVE",
"791 574 OFFCURVE",
"674 574 CURVE SMOOTH"
);
},
{
closed = 1;
nodes = (
"1020 997 LINE",
"1296 997 LINE",
"1296 1170 LINE",
"676 1170 LINE"
);
},
{
closed = 1;
nodes = (
"260 602 OFFCURVE",
"100 515 OFFCURVE",
"100 316 CURVE SMOOTH",
"100 150 OFFCURVE",
"230 32 OFFCURVE",
"426 32 CURVE SMOOTH",
"960 32 LINE SMOOTH",
"1039 32 OFFCURVE",
"1072 -4 OFFCURVE",
"1072 -62 CURVE SMOOTH",
"1072 -138 OFFCURVE",
"999 -202 OFFCURVE",
"837 -202 CURVE SMOOTH",
"575 -202 LINE SMOOTH",
"425 -202 OFFCURVE",
"379 -139 OFFCURVE",
"379 -53 CURVE SMOOTH",
"379 -3 OFFCURVE",
"396 27 OFFCURVE",
"429 68 CURVE",
"393 112 LINE",
"301 77 OFFCURVE",
"167 28 OFFCURVE",
"167 -124 CURVE SMOOTH",
"167 -286 OFFCURVE",
"306 -380 OFFCURVE",
"547 -380 CURVE SMOOTH",
"829 -380 LINE SMOOTH",
"1144 -380 OFFCURVE",
"1326 -249 OFFCURVE",
"1326 -24 CURVE SMOOTH",
"1326 158 OFFCURVE",
"1215 278 OFFCURVE",
"980 278 CURVE SMOOTH",
"440 278 LINE SMOOTH",
"362 278 OFFCURVE",
"308 315 OFFCURVE",
"308 384 CURVE SMOOTH",
"308 453 OFFCURVE",
"362 490 OFFCURVE",
"440 490 CURVE",
"446 602 LINE"
);
}
);
width = 1398;
}
);
leftKerningGroup = g;
rightKerningGroup = g;
unicode = 0067;
},
{
glyphname = h;
lastChange = "2020-08-20 10:40:17 +0000";
layers = (
{
hints = (
{
origin = "{0, 3}";
scale = "{-0.9, 1}";
type = Corner;
name = _corner.Serif;
},
{
origin = "{0, 0}";
type = Corner;
name = _corner.Serif;
options = 1;
},
{
origin = "{0, 1}";
scale = "{-1, 1}";
type = Corner;
name = _corner.Serif;
},
{
origin = "{1, 7}";
type = Corner;
name = _corner.Serif;
},
{
origin = "{1, 8}";
scale = "{-0.86, 1}";
type = Corner;
name = _corner.Serif;
options = 1;
}
);
layerId = "CA54B7DC-FBBB-40FE-ACF3-AABDD76D6A7B";
paths = (
{
closed = 1;
nodes = (
"308 0 LINE",
"356 0 LINE",
"356 1530 LINE",
"308 1530 LINE"
);
},
{
closed = 1;
nodes = (
"356 552 LINE",
"356 914 OFFCURVE",
"560 1076 OFFCURVE",
"778 1076 CURVE SMOOTH",
"940 1076 OFFCURVE",
"1040 1002 OFFCURVE",
"1040 824 CURVE SMOOTH",
"1040 0 LINE",
"1088 0 LINE",
"1088 824 LINE SMOOTH",
"1088 1034 OFFCURVE",
"960 1116 OFFCURVE",
"780 1116 CURVE SMOOTH",
"542 1116 OFFCURVE",
"318 954 OFFCURVE",
"318 552 CURVE"
);
}
);
width = 1367;
},
{
hints = (
{
origin = "{0, 3}";
scale = "{-0.9, 1}";
type = Corner;
name = _corner.Serif;
},
{
origin = "{0, 0}";
type = Corner;
name = _corner.Serif;
options = 1;
},
{
origin = "{0, 1}";
scale = "{-1, 1}";
type = Corner;
name = _corner.Serif;
},
{
origin = "{1, 7}";
type = Corner;
name = _corner.Serif;
},
{
origin = "{1, 8}";
scale = "{-0.86, 1}";
type = Corner;
name = _corner.Serif;
options = 1;
}
);
layerId = "1E61A082-F045-49A7-AB52-DD1B03FD9B54";
paths = (
{
closed = 1;
nodes = (
"274 0 LINE",
"322 0 LINE",
"322 1480 LINE",
"274 1480 LINE"
);
},
{
closed = 1;
nodes = (
"322 552 LINE",
"322 900 OFFCURVE",
"526 1056 OFFCURVE",
"744 1056 CURVE SMOOTH",
"906 1056 OFFCURVE",
"1006 985 OFFCURVE",
"1006 814 CURVE SMOOTH",
"1006 0 LINE",
"1054 0 LINE",
"1054 814 LINE SMOOTH",
"1054 1017 OFFCURVE",
"926 1096 OFFCURVE",
"746 1096 CURVE SMOOTH",
"508 1096 OFFCURVE",
"284 940 OFFCURVE",
"284 552 CURVE"
);
}
);
width = 1300;
},
{
hints = (
{
origin = "{0, 0}";
type = Corner;
name = _corner.Serif;
},
{
origin = "{0, 1}";
scale = "{-0.76, 1}";
type = Corner;
name = _corner.Serif;
options = 1;
},
{
origin = "{1, 7}";
scale = "{0.76, 1}";
type = Corner;
name = _corner.Serif;
options = 1;
},
{
origin = "{1, 8}";
scale = "{-0.8, 1}";
type = Corner;
name = _corner.Serif;
},
{
origin = "{0, 3}";
scale = "{-0.9, 0.99}";
type = Corner;
name = _corner.Serif;
}
);
layerId = "642E5713-E15A-4A7E-A28E-9A6B75A6585C";
paths = (
{
closed = 1;
nodes = (
"240 0 LINE",
"518 0 LINE",
"518 1480 LINE",
"240 1480 LINE"
);
},
{
closed = 1;
nodes = (
"518 654 LINE",
"518 883 OFFCURVE",
"642 946 OFFCURVE",
"754 946 CURVE SMOOTH",
"854 946 OFFCURVE",
"910 894 OFFCURVE",
"910 796 CURVE SMOOTH",
"910 0 LINE",
"1188 0 LINE",
"1188 802 LINE SMOOTH",
"1188 1039 OFFCURVE",
"1044 1140 OFFCURVE",
"838 1140 CURVE SMOOTH",
"596 1140 OFFCURVE",
"456 1008 OFFCURVE",
"456 654 CURVE"
);
}
);
width = 1392;
},
{
hints = (
{
origin = "{0, 0}";
type = Corner;
name = _corner.Serif;
},
{
origin = "{0, 1}";
scale = "{-0.7, 1}";
type = Corner;
name = _corner.Serif;
options = 1;
},
{
origin = "{1, 7}";
scale = "{0.7, 1}";
type = Corner;
name = _corner.Serif;
options = 1;
},
{
origin = "{1, 8}";
scale = "{-0.8, 1}";
type = Corner;
name = _corner.Serif;
},
{
origin = "{0, 3}";
scale = "{-0.9, 0.98}";
type = Corner;
name = _corner.Serif;
}
);
layerId = "AF891779-7DE6-4679-9CA2-17B922C1DF84";
paths = (
{
closed = 1;
nodes = (
"256 0 LINE",
"534 0 LINE",
"534 1530 LINE",
"256 1530 LINE"
);
},
{
closed = 1;
nodes = (
"534 694 LINE",
"534 904 OFFCURVE",
"652 974 OFFCURVE",
"782 974 CURVE SMOOTH",
"885 974 OFFCURVE",
"946 926 OFFCURVE",
"946 832 CURVE SMOOTH",
"946 0 LINE",
"1224 0 LINE",
"1224 854 LINE SMOOTH",
"1224 1083 OFFCURVE",
"1077 1180 OFFCURVE",
"866 1180 CURVE SMOOTH",
"583 1180 OFFCURVE",
"452 1010 OFFCURVE",
"452 694 CURVE"
);
}
);
width = 1444;
}
);
leftKerningGroup = l;
leftMetricsKey = l;
rightKerningGroup = n;
rightMetricsKey = n;
unicode = 0068;
},
{
glyphname = idotless;
lastChange = "2020-08-20 11:23:34 +0000";
layers = (
{
anchors = (
{
name = top;
position = "{324, 1100}";
}
);
hints = (
{
origin = "{0, 3}";
scale = "{-0.9, 1}";
type = Corner;
name = _corner.Serif;
},
{
origin = "{0, 0}";
type = Corner;
name = _corner.Serif;
options = 1;
},
{
origin = "{0, 1}";
scale = "{-0.9, 1}";
type = Corner;
name = _corner.Serif;
}
);
layerId = "CA54B7DC-FBBB-40FE-ACF3-AABDD76D6A7B";
paths = (
{
closed = 1;
nodes = (
"308 0 LINE",
"356 0 LINE",
"356 1100 LINE",
"308 1100 LINE"
);
}
);
width = 649;
},
{
anchors = (
{
name = top;
position = "{292, 1080}";
}
);
hints = (
{
origin = "{0, 3}";
scale = "{-0.9, 1}";
type = Corner;
name = _corner.Serif;
},
{
origin = "{0, 0}";
type = Corner;
name = _corner.Serif;
options = 1;
},
{
origin = "{0, 1}";
scale = "{-0.9, 1}";
type = Corner;
name = _corner.Serif;
}
);
layerId = "1E61A082-F045-49A7-AB52-DD1B03FD9B54";
paths = (
{
closed = 1;
nodes = (
"274 0 LINE",
"322 0 LINE",
"322 1080 LINE",
"274 1080 LINE"
);
}
);
width = 583;
},
{
anchors = (
{
name = top;
position = "{368, 1120}";
}
);
hints = (
{
origin = "{0, 3}";
scale = "{-0.9, 0.99}";
type = Corner;
name = _corner.Serif;
},
{
origin = "{0, 0}";
type = Corner;
name = _corner.Serif;
options = 1;
},
{
origin = "{0, 1}";
scale = "{-0.9, 1}";
type = Corner;
name = _corner.Serif;
}
);
layerId = "642E5713-E15A-4A7E-A28E-9A6B75A6585C";
paths = (
{
closed = 1;
nodes = (
"240 0 LINE",
"518 0 LINE",
"518 1120 LINE",
"240 1120 LINE"
);
}
);
width = 740;
},
{
anchors = (
{
name = top;
position = "{390, 1160}";
}
);
hints = (
{
origin = "{0, 3}";
scale = "{-0.9, 0.98}";
type = Corner;
name = _corner.Serif;
},
{
origin = "{0, 0}";
type = Corner;
name = _corner.Serif;
options = 1;
},
{
origin = "{0, 1}";
scale = "{-0.9, 1}";
type = Corner;
name = _corner.Serif;
}
);
layerId = "AF891779-7DE6-4679-9CA2-17B922C1DF84";
paths = (
{
closed = 1;
nodes = (
"256 0 LINE",
"534 0 LINE",
"534 1160 LINE",
"256 1160 LINE"
);
}
);
width = 778;
}
);
leftKerningGroup = n;
leftMetricsKey = l;
rightKerningGroup = l;
rightMetricsKey = l;
unicode = 0131;
},
{
glyphname = jdotless;
lastChange = "2020-08-20 11:23:41 +0000";
layers = (
{
anchors = (
{
name = top;
position = "{324, 1100}";
}
);
hints = (
{
origin = "{0, 3}";
scale = "{-0.9, 1}";
type = Corner;
name = _corner.Serif;
}
);
layerId = "CA54B7DC-FBBB-40FE-ACF3-AABDD76D6A7B";
paths = (
{
closed = 1;
nodes = (
"308 -110 LINE",
"356 -106 LINE",
"356 1100 LINE",
"308 1100 LINE"
);
},
{
closed = 1;
nodes = (
"270 -400 OFFCURVE",
"356 -300 OFFCURVE",
"356 -106 CURVE",
"308 -110 LINE",
"308 -278 OFFCURVE",
"240 -360 OFFCURVE",
"118 -360 CURVE SMOOTH",
"10 -360 OFFCURVE",
"-44 -306 OFFCURVE",
"-42 -203 CURVE SMOOTH",
"-41 -164 OFFCURVE",
"-47 -144 OFFCURVE",
"-71 -144 CURVE SMOOTH",
"-96 -144 OFFCURVE",
"-106 -164 OFFCURVE",
"-106 -204 CURVE SMOOTH",
"-106 -334 OFFCURVE",
"-6 -400 OFFCURVE",
"117 -400 CURVE SMOOTH"
);
}
);
width = 552;
},
{
anchors = (
{
name = top;
position = "{296, 1080}";
}
);
hints = (
{
origin = "{0, 3}";
scale = "{-0.9, 1}";
type = Corner;
name = _corner.Serif;
}
);
layerId = "1E61A082-F045-49A7-AB52-DD1B03FD9B54";
paths = (
{
closed = 1;
nodes = (
"278 -110 LINE",
"326 -106 LINE",
"326 1080 LINE",
"278 1080 LINE"
);
},
{
closed = 1;
nodes = (
"240 -400 OFFCURVE",
"326 -300 OFFCURVE",
"326 -106 CURVE",
"278 -110 LINE",
"278 -278 OFFCURVE",
"210 -360 OFFCURVE",
"88 -360 CURVE SMOOTH",
"-20 -360 OFFCURVE",
"-79 -306 OFFCURVE",
"-72 -203 CURVE SMOOTH",
"-69 -164 OFFCURVE",
"-75 -144 OFFCURVE",
"-99 -144 CURVE SMOOTH",
"-124 -144 OFFCURVE",
"-136 -166 OFFCURVE",
"-136 -210 CURVE SMOOTH",
"-136 -336 OFFCURVE",
"-36 -400 OFFCURVE",
"87 -400 CURVE SMOOTH"
);
}
);
width = 534;
},
{
anchors = (
{
name = top;
position = "{350, 1120}";
}
);
hints = (
{
origin = "{0, 3}";
scale = "{-0.9, 0.99}";
type = Corner;
name = _corner.Serif;
}
);
layerId = "642E5713-E15A-4A7E-A28E-9A6B75A6585C";
paths = (
{
closed = 1;
nodes = (
"220 -125 LINE",
"500 -18 LINE",
"500 1120 LINE",
"220 1120 LINE"
);
},
{
closed = 1;
nodes = (
"365 -400 OFFCURVE",
"500 -270 OFFCURVE",
"500 -18 CURVE",
"220 -125 LINE",
"220 -220 OFFCURVE",
"186 -254 OFFCURVE",
"137 -254 CURVE SMOOTH",
"90 -254 OFFCURVE",
"73 -235 OFFCURVE",
"45 -188 CURVE SMOOTH",
"10 -130 OFFCURVE",
"-21 -100 OFFCURVE",
"-84 -100 CURVE SMOOTH",
"-145 -100 OFFCURVE",
"-194 -137 OFFCURVE",
"-194 -208 CURVE SMOOTH",
"-194 -327 OFFCURVE",
"-80 -400 OFFCURVE",
"126 -400 CURVE SMOOTH"
);
}
);
width = 628;
},
{
anchors = (
{
name = top;
position = "{388, 1160}";
}
);
hints = (
{
origin = "{0, 3}";
scale = "{-0.9, 0.98}";
type = Corner;
name = _corner.Serif;
}
);
layerId = "AF891779-7DE6-4679-9CA2-17B922C1DF84";
paths = (
{
closed = 1;
nodes = (
"252 -105 LINE",
"532 -18 LINE",
"532 1160 LINE",
"252 1160 LINE"
);
},
{
closed = 1;
nodes = (
"397 -400 OFFCURVE",
"532 -270 OFFCURVE",
"532 -18 CURVE",
"252 -105 LINE",
"252 -200 OFFCURVE",
"218 -234 OFFCURVE",
"169 -234 CURVE SMOOTH",
"124 -234 OFFCURVE",
"102 -218 OFFCURVE",
"69 -183 CURVE SMOOTH",
"25 -136 OFFCURVE",
"-4 -100 OFFCURVE",
"-64 -100 CURVE SMOOTH",
"-123 -100 OFFCURVE",
"-170 -139 OFFCURVE",
"-170 -208 CURVE SMOOTH",
"-170 -327 OFFCURVE",
"-40 -400 OFFCURVE",
"158 -400 CURVE SMOOTH"
);
}
);
width = 727;
}
);
leftKerningGroup = p;
rightKerningGroup = q;
unicode = 0237;
},
{
glyphname = k;
lastChange = "2020-08-20 10:46:17 +0000";
layers = (
{
hints = (
{
origin = "{0, 0}";
type = Corner;
name = _corner.Serif;
options = 1;
},
{
origin = "{0, 1}";
scale = "{-0.9, 1}";
type = Corner;
name = _corner.Serif;
},
{
origin = "{0, 3}";
scale = "{-0.9, 1}";
type = Corner;
name = _corner.Serif;
},
{
origin = "{1, 0}";
scale = "{-1.16, 1}";
type = Corner;
name = _corner.Serif;
options = 1;
},
{
origin = "{1, 3}";
scale = "{0.46, 1}";
type = Corner;
name = _corner.Serif;
},
{
origin = "{2, 2}";
scale = "{1.2, 1}";
type = Corner;
name = _corner.Serif;
},
{
origin = "{2, 3}";
scale = "{-0.5, 1}";
type = Corner;
name = _corner.Serif;
options = 1;
}
);
layerId = "CA54B7DC-FBBB-40FE-ACF3-AABDD76D6A7B";
paths = (
{
closed = 1;
nodes = (
"308 0 LINE",
"356 0 LINE",
"356 1530 LINE",
"308 1530 LINE"
);
},
{
closed = 1;
nodes = (
"1045 1100 LINE",
"322 436 LINE",
"347 402 LINE",
"1110 1100 LINE"
);
},
{
closed = 1;
nodes = (
"595 646 LINE",
"562 614 LINE",
"1084 0 LINE",
"1147 0 LINE"
);
}
);
width = 1330;
},
{
hints = (
{
origin = "{0, 0}";
type = Corner;
name = _corner.Serif;
options = 1;
},
{
origin = "{0, 1}";
scale = "{-0.9, 1}";
type = Corner;
name = _corner.Serif;
},
{
origin = "{0, 3}";
scale = "{-0.9, 1}";
type = Corner;
name = _corner.Serif;
},
{
origin = "{1, 0}";
scale = "{-1.16, 1}";
type = Corner;
name = _corner.Serif;
options = 1;
},
{
origin = "{1, 3}";
scale = "{0.46, 1}";
type = Corner;
name = _corner.Serif;
},
{
origin = "{2, 2}";
scale = "{1.2, 1}";
type = Corner;
name = _corner.Serif;
},
{
origin = "{2, 3}";
scale = "{-0.5, 1}";
type = Corner;
name = _corner.Serif;
options = 1;
}
);
layerId = "1E61A082-F045-49A7-AB52-DD1B03FD9B54";
paths = (
{
closed = 1;
nodes = (
"274 0 LINE",
"322 0 LINE",
"322 1520 LINE",
"274 1520 LINE"
);
},
{
closed = 1;
nodes = (
"1013 1080 LINE",
"288 426 LINE",
"310 392 LINE",
"1076 1080 LINE"
);
},
{
closed = 1;
nodes = (
"561 646 LINE",
"528 614 LINE",
"1050 0 LINE",
"1113 0 LINE"
);
}
);
width = 1246;
},
{
hints = (
{
origin = "{0, 0}";
type = Corner;
name = _corner.Serif;
options = 1;
},
{
origin = "{0, 1}";
scale = "{-0.74, 1}";
type = Corner;
name = _corner.Serif;
},
{
origin = "{0, 3}";
scale = "{-0.9, 0.99}";
type = Corner;
name = _corner.Serif;
},
{
origin = "{1, 0}";
scale = "{-1.93, 0.99}";
type = Corner;
name = _corner.Serif;
options = 1;
},
{
origin = "{1, 3}";
scale = "{0.02, 0.99}";
type = Corner;
name = _corner.Serif;
},
{
origin = "{2, 2}";
scale = "{1.34, 1}";
type = Corner;
name = _corner.Serif;
},
{
origin = "{2, 3}";
scale = "{-0.02, 1}";
type = Corner;
name = _corner.Serif;
options = 1;
}
);
layerId = "642E5713-E15A-4A7E-A28E-9A6B75A6585C";
paths = (
{
closed = 1;
nodes = (
"240 0 LINE",
"518 0 LINE",
"518 1480 LINE",
"240 1480 LINE"
);
},
{
closed = 1;
nodes = (
"1084 1120 LINE",
"388 415 LINE",
"499 298 LINE",
"1315 1120 LINE"
);
},
{
closed = 1;
nodes = (
"808 739 LINE",
"622 564 LINE",
"1024 0 LINE",
"1345 0 LINE"
);
}
);
width = 1383;
},
{
hints = (
{
origin = "{0, 0}";
type = Corner;
name = _corner.Serif;
options = 1;
},
{
origin = "{0, 1}";
scale = "{-0.7, 1}";
type = Corner;
name = _corner.Serif;
},
{
origin = "{0, 3}";
scale = "{-0.9, 0.98}";
type = Corner;
name = _corner.Serif;
},
{
origin = "{1, 0}";
scale = "{-2.1, 0.98}";
type = Corner;
name = _corner.Serif;
options = 1;
},
{
origin = "{1, 3}";
scale = "{0.02, 0.98}";
type = Corner;
name = _corner.Serif;
},
{
origin = "{2, 2}";
scale = "{1.46, 1}";
type = Corner;
name = _corner.Serif;
},
{
origin = "{2, 3}";
scale = "{-0.02, 1}";
type = Corner;
name = _corner.Serif;
options = 1;
}
);
layerId = "AF891779-7DE6-4679-9CA2-17B922C1DF84";
paths = (
{
closed = 1;
nodes = (
"256 0 LINE",
"534 0 LINE",
"534 1530 LINE",
"256 1530 LINE"
);
},
{
closed = 1;
nodes = (
"1097 1160 LINE",
"401 442 LINE",
"519 318 LINE",
"1345 1160 LINE"
);
},
{
closed = 1;
nodes = (
"826 762 LINE",
"642 584 LINE",
"1060 0 LINE",
"1381 0 LINE"
);
}
);
width = 1451;
}
);
leftKerningGroup = l;
leftMetricsKey = l;
rightKerningGroup = k;
rightMetricsKey = x;
unicode = 006B;
},
{
glyphname = l;
lastChange = "2020-08-20 10:39:50 +0000";
layers = (
{
hints = (
{
origin = "{0, 3}";
scale = "{-0.9, 1}";
type = Corner;
name = _corner.Serif;
},
{
origin = "{0, 0}";
type = Corner;
name = _corner.Serif;
options = 1;
},
{
origin = "{0, 1}";
scale = "{-0.9, 1}";
type = Corner;
name = _corner.Serif;
}
);
layerId = "CA54B7DC-FBBB-40FE-ACF3-AABDD76D6A7B";
paths = (
{
closed = 1;
nodes = (
"308 0 LINE",
"356 0 LINE",
"356 1530 LINE",
"308 1530 LINE"
);
}
);
width = 649;
},
{
hints = (
{
origin = "{0, 0}";
type = Corner;
name = _corner.Serif;
},
{
origin = "{0, 1}";
scale = "{-0.9, 1}";
type = Corner;
name = _corner.Serif;
options = 1;
},
{
origin = "{0, 3}";
scale = "{-0.9, 1}";
type = Corner;
name = _corner.Serif;
}
);
layerId = "1E61A082-F045-49A7-AB52-DD1B03FD9B54";
paths = (
{
closed = 1;
nodes = (
"274 0 LINE",
"322 0 LINE",
"322 1480 LINE",
"274 1480 LINE"
);
}
);
width = 583;
},
{
hints = (
{
origin = "{0, 3}";
scale = "{-0.9, 0.99}";
type = Corner;
name = _corner.Serif;
},
{
origin = "{0, 0}";
type = Corner;
name = _corner.Serif;
options = 1;
},
{
origin = "{0, 1}";
scale = "{-0.9, 1}";
type = Corner;
name = _corner.Serif;
}
);
layerId = "642E5713-E15A-4A7E-A28E-9A6B75A6585C";
paths = (
{
closed = 1;
nodes = (
"240 0 LINE",
"520 0 LINE",
"520 1480 LINE",
"240 1480 LINE"
);
}
);
width = 742;
},
{
hints = (
{
origin = "{0, 3}";
scale = "{-0.9, 0.98}";
type = Corner;
name = _corner.Serif;
},
{
origin = "{0, 0}";
type = Corner;
name = _corner.Serif;
options = 1;
},
{
origin = "{0, 1}";
scale = "{-0.9, 1}";
type = Corner;
name = _corner.Serif;
}
);
layerId = "AF891779-7DE6-4679-9CA2-17B922C1DF84";
paths = (
{
closed = 1;
nodes = (
"256 0 LINE",
"536 0 LINE",
"536 1530 LINE",
"256 1530 LINE"
);
}
);
width = 780;
}
);
leftKerningGroup = l;
rightKerningGroup = l;
unicode = 006C;
},
{
glyphname = m;
lastChange = "2020-08-20 10:40:17 +0000";
layers = (
{
hints = (
{
origin = "{0, 5}";
scale = "{-0.9, 1}";
type = Corner;
name = _corner.Serif;
},
{
origin = "{0, 0}";
type = Corner;
name = _corner.Serif;
options = 1;
},
{
origin = "{0, 1}";
scale = "{-0.86, 1}";
type = Corner;
name = _corner.Serif;
},
{
origin = "{1, 7}";
scale = "{0.86, 1}";
type = Corner;
name = _corner.Serif;
},
{
origin = "{1, 8}";
scale = "{-0.86, 1}";
type = Corner;
name = _corner.Serif;
options = 1;
},
{
origin = "{2, 7}";
scale = "{0.86, 1}";
type = Corner;
name = _corner.Serif;
options = 1;
},
{
origin = "{2, 8}";
scale = "{-0.86, 1}";
type = Corner;
name = _corner.Serif;
}
);
layerId = "CA54B7DC-FBBB-40FE-ACF3-AABDD76D6A7B";
paths = (
{
closed = 1;
nodes = (
"334 0 LINE",
"382 0 LINE",
"382 734 LINE",
"378 734 LINE",
"378 1100 LINE",
"334 1100 LINE"
);
},
{
closed = 1;
nodes = (
"382 674 LINE",
"382 952 OFFCURVE",
"536 1076 OFFCURVE",
"698 1076 CURVE SMOOTH",
"814 1076 OFFCURVE",
"884 1022 OFFCURVE",
"884 892 CURVE SMOOTH",
"884 0 LINE",
"932 0 LINE",
"932 892 LINE SMOOTH",
"932 1054 OFFCURVE",
"834 1116 OFFCURVE",
"700 1116 CURVE SMOOTH",
"512 1116 OFFCURVE",
"346 982 OFFCURVE",
"346 674 CURVE"
);
},
{
closed = 1;
nodes = (
"932 674 LINE",
"932 952 OFFCURVE",
"1086 1076 OFFCURVE",
"1248 1076 CURVE SMOOTH",
"1364 1076 OFFCURVE",
"1434 1022 OFFCURVE",
"1434 892 CURVE SMOOTH",
"1434 0 LINE",
"1482 0 LINE",
"1482 892 LINE SMOOTH",
"1482 1054 OFFCURVE",
"1386 1116 OFFCURVE",
"1250 1116 CURVE SMOOTH",
"1062 1116 OFFCURVE",
"896 982 OFFCURVE",
"896 674 CURVE"
);
}
);
width = 1761;
},
{
hints = (
{
origin = "{0, 5}";
scale = "{-0.9, 1}";
type = Corner;
name = _corner.Serif;
},
{
origin = "{0, 0}";
type = Corner;
name = _corner.Serif;
options = 1;
},
{
origin = "{0, 1}";
scale = "{-0.86, 1}";
type = Corner;
name = _corner.Serif;
},
{
origin = "{1, 7}";
scale = "{0.86, 1}";
type = Corner;
name = _corner.Serif;
},
{
origin = "{1, 8}";
scale = "{-0.86, 1}";
type = Corner;
name = _corner.Serif;
options = 1;
},
{
origin = "{2, 7}";
scale = "{0.86, 1}";
type = Corner;
name = _corner.Serif;
options = 1;
},
{
origin = "{2, 8}";
scale = "{-0.86, 1}";
type = Corner;
name = _corner.Serif;
}
);
layerId = "1E61A082-F045-49A7-AB52-DD1B03FD9B54";
paths = (
{
closed = 1;
nodes = (
"302 0 LINE",
"350 0 LINE",
"350 724 LINE",
"346 724 LINE",
"346 1080 LINE",
"302 1080 LINE"
);
},
{
closed = 1;
nodes = (
"350 664 LINE",
"350 935 OFFCURVE",
"504 1056 OFFCURVE",
"666 1056 CURVE SMOOTH",
"782 1056 OFFCURVE",
"852 1005 OFFCURVE",
"852 882 CURVE SMOOTH",
"852 0 LINE",
"900 0 LINE",
"900 882 LINE SMOOTH",
"900 1037 OFFCURVE",
"802 1096 OFFCURVE",
"668 1096 CURVE SMOOTH",
"480 1096 OFFCURVE",
"314 965 OFFCURVE",
"314 664 CURVE"
);
},
{
closed = 1;
nodes = (
"900 664 LINE",
"900 935 OFFCURVE",
"1054 1056 OFFCURVE",
"1216 1056 CURVE SMOOTH",
"1332 1056 OFFCURVE",
"1402 1005 OFFCURVE",
"1402 882 CURVE SMOOTH",
"1402 0 LINE",
"1450 0 LINE",
"1450 882 LINE SMOOTH",
"1450 1037 OFFCURVE",
"1354 1096 OFFCURVE",
"1218 1096 CURVE SMOOTH",
"1030 1096 OFFCURVE",
"864 965 OFFCURVE",
"864 664 CURVE"
);
}
);
width = 1696;
},
{
hints = (
{
origin = "{0, 5}";
scale = "{-0.9, 0.99}";
type = Corner;
name = _corner.Serif;
},
{
origin = "{0, 0}";
type = Corner;
name = _corner.Serif;
options = 1;
},
{
origin = "{0, 1}";
scale = "{-0.58, 1}";
type = Corner;
name = _corner.Serif;
},
{
origin = "{1, 7}";
scale = "{0.58, 1}";
type = Corner;
name = _corner.Serif;
},
{
origin = "{1, 8}";
scale = "{-0.58, 1}";
type = Corner;
name = _corner.Serif;
options = 1;
},
{
origin = "{2, 7}";
scale = "{0.58, 1}";
type = Corner;
name = _corner.Serif;
options = 1;
},
{
origin = "{2, 8}";
scale = "{-0.8, 1}";
type = Corner;
name = _corner.Serif;
}
);
layerId = "642E5713-E15A-4A7E-A28E-9A6B75A6585C";
paths = (
{
closed = 1;
nodes = (
"258 0 LINE",
"530 0 LINE",
"530 740 LINE",
"480 740 LINE",
"480 1120 LINE",
"258 1120 LINE"
);
},
{
closed = 1;
nodes = (
"530 716 LINE",
"530 886 OFFCURVE",
"630 946 OFFCURVE",
"722 946 CURVE SMOOTH",
"804 946 OFFCURVE",
"848 902 OFFCURVE",
"848 826 CURVE SMOOTH",
"848 0 LINE",
"1120 0 LINE",
"1120 822 LINE SMOOTH",
"1120 1031 OFFCURVE",
"995 1140 OFFCURVE",
"804 1140 CURVE SMOOTH",
"560 1140 OFFCURVE",
"448 989 OFFCURVE",
"448 716 CURVE"
);
},
{
closed = 1;
nodes = (
"1120 716 LINE",
"1120 886 OFFCURVE",
"1220 946 OFFCURVE",
"1312 946 CURVE SMOOTH",
"1394 946 OFFCURVE",
"1438 902 OFFCURVE",
"1438 826 CURVE SMOOTH",
"1438 0 LINE",
"1710 0 LINE",
"1710 834 LINE SMOOTH",
"1710 1035 OFFCURVE",
"1585 1140 OFFCURVE",
"1394 1140 CURVE SMOOTH",
"1157 1140 OFFCURVE",
"1050 989 OFFCURVE",
"1050 716 CURVE"
);
}
);
width = 1914;
},
{
hints = (
{
origin = "{0, 5}";
scale = "{-0.9, 0.98}";
type = Corner;
name = _corner.Serif;
},
{
origin = "{0, 0}";
type = Corner;
name = _corner.Serif;
options = 1;
},
{
origin = "{0, 1}";
scale = "{-0.54, 1}";
type = Corner;
name = _corner.Serif;
},
{
origin = "{1, 7}";
scale = "{0.54, 1}";
type = Corner;
name = _corner.Serif;
},
{
origin = "{1, 8}";
scale = "{-0.54, 1}";
type = Corner;
name = _corner.Serif;
options = 1;
},
{
origin = "{2, 7}";
scale = "{0.54, 1}";
type = Corner;
name = _corner.Serif;
options = 1;
},
{
origin = "{2, 8}";
scale = "{-0.8, 1}";
type = Corner;
name = _corner.Serif;
}
);
layerId = "AF891779-7DE6-4679-9CA2-17B922C1DF84";
paths = (
{
closed = 1;
nodes = (
"280 0 LINE",
"552 0 LINE",
"552 810 LINE",
"504 810 LINE",
"504 1160 LINE",
"280 1160 LINE"
);
},
{
closed = 1;
nodes = (
"552 742 LINE",
"552 909 OFFCURVE",
"655 976 OFFCURVE",
"758 976 CURVE SMOOTH",
"840 976 OFFCURVE",
"888 935 OFFCURVE",
"888 854 CURVE SMOOTH",
"888 0 LINE",
"1160 0 LINE",
"1160 862 LINE SMOOTH",
"1160 1081 OFFCURVE",
"1041 1180 OFFCURVE",
"842 1180 CURVE SMOOTH",
"586 1180 OFFCURVE",
"460 1026 OFFCURVE",
"460 742 CURVE"
);
},
{
closed = 1;
nodes = (
"1160 742 LINE",
"1160 909 OFFCURVE",
"1263 976 OFFCURVE",
"1366 976 CURVE SMOOTH",
"1448 976 OFFCURVE",
"1496 935 OFFCURVE",
"1496 854 CURVE SMOOTH",
"1496 0 LINE",
"1768 0 LINE",
"1768 862 LINE SMOOTH",
"1768 1081 OFFCURVE",
"1649 1180 OFFCURVE",
"1450 1180 CURVE SMOOTH",
"1200 1180 OFFCURVE",
"1080 1026 OFFCURVE",
"1078 742 CURVE"
);
}
);
width = 1988;
}
);
leftKerningGroup = n;
leftMetricsKey = n;
rightKerningGroup = n;
rightMetricsKey = n;
unicode = 006D;
},
{
glyphname = n;
lastChange = "2020-08-20 10:39:45 +0000";
layers = (
{
hints = (
{
origin = "{0, 0}";
type = Corner;
name = _corner.Serif;
},
{
origin = "{0, 1}";
scale = "{-1, 1}";
type = Corner;
name = _corner.Serif;
options = 1;
},
{
origin = "{1, 7}";
type = Corner;
name = _corner.Serif;
options = 1;
},
{
origin = "{1, 8}";
scale = "{-0.86, 1}";
type = Corner;
name = _corner.Serif;
},
{
origin = "{0, 5}";
scale = "{-0.9, 1}";
type = Corner;
name = _corner.Serif;
}
);
layerId = "CA54B7DC-FBBB-40FE-ACF3-AABDD76D6A7B";
paths = (
{
closed = 1;
nodes = (
"334 0 LINE",
"382 0 LINE",
"382 710 LINE",
"378 710 LINE",
"378 1100 LINE",
"334 1100 LINE"
);
},
{
closed = 1;
nodes = (
"382 552 LINE",
"382 914 OFFCURVE",
"586 1076 OFFCURVE",
"804 1076 CURVE SMOOTH",
"966 1076 OFFCURVE",
"1066 1002 OFFCURVE",
"1066 824 CURVE SMOOTH",
"1066 0 LINE",
"1114 0 LINE",
"1114 824 LINE SMOOTH",
"1114 1034 OFFCURVE",
"986 1116 OFFCURVE",
"806 1116 CURVE SMOOTH",
"566 1116 OFFCURVE",
"344 954 OFFCURVE",
"344 552 CURVE"
);
}
);
width = 1393;
},
{
hints = (
{
origin = "{0, 0}";
type = Corner;
name = _corner.Serif;
},
{
origin = "{0, 1}";
scale = "{-1, 1}";
type = Corner;
name = _corner.Serif;
},
{
origin = "{1, 7}";
type = Corner;
name = _corner.Serif;
},
{
origin = "{1, 8}";
scale = "{-0.86, 1}";
type = Corner;
name = _corner.Serif;
},
{
origin = "{0, 5}";
scale = "{-0.9, 1}";
type = Corner;
name = _corner.Serif;
}
);
layerId = "1E61A082-F045-49A7-AB52-DD1B03FD9B54";
paths = (
{
closed = 1;
nodes = (
"302 0 LINE",
"350 0 LINE",
"350 700 LINE",
"346 700 LINE",
"346 1080 LINE",
"302 1080 LINE"
);
},
{
closed = 1;
nodes = (
"350 542 LINE",
"350 897 OFFCURVE",
"554 1056 OFFCURVE",
"772 1056 CURVE SMOOTH",
"934 1056 OFFCURVE",
"1034 985 OFFCURVE",
"1034 814 CURVE SMOOTH",
"1034 0 LINE",
"1082 0 LINE",
"1082 814 LINE SMOOTH",
"1082 1017 OFFCURVE",
"954 1096 OFFCURVE",
"774 1096 CURVE SMOOTH",
"534 1096 OFFCURVE",
"312 937 OFFCURVE",
"312 542 CURVE"
);
}
);
width = 1328;
},
{
hints = (
{
origin = "{0, 0}";
type = Corner;
name = _corner.Serif;
},
{
origin = "{0, 1}";
scale = "{-0.76, 1}";
type = Corner;
name = _corner.Serif;
options = 1;
},
{
origin = "{1, 7}";
scale = "{0.76, 1}";
type = Corner;
name = _corner.Serif;
options = 1;
},
{
origin = "{1, 8}";
scale = "{-0.8, 1}";
type = Corner;
name = _corner.Serif;
},
{
origin = "{0, 5}";
scale = "{-0.9, 0.99}";
type = Corner;
name = _corner.Serif;
}
);
layerId = "642E5713-E15A-4A7E-A28E-9A6B75A6585C";
paths = (
{
closed = 1;
nodes = (
"258 0 LINE",
"536 0 LINE",
"536 732 LINE",
"486 732 LINE",
"486 1120 LINE",
"258 1119 LINE"
);
},
{
closed = 1;
nodes = (
"536 654 LINE",
"536 864 OFFCURVE",
"660 946 OFFCURVE",
"772 946 CURVE SMOOTH",
"872 946 OFFCURVE",
"928 894 OFFCURVE",
"928 796 CURVE SMOOTH",
"928 0 LINE",
"1206 0 LINE",
"1206 802 LINE SMOOTH",
"1206 1039 OFFCURVE",
"1056 1140 OFFCURVE",
"844 1140 CURVE SMOOTH",
"601 1140 OFFCURVE",
"458 1016 OFFCURVE",
"458 654 CURVE"
);
}
);
width = 1410;
},
{
hints = (
{
origin = "{0, 0}";
type = Corner;
name = _corner.Serif;
},
{
origin = "{0, 1}";
scale = "{-0.7, 1}";
type = Corner;
name = _corner.Serif;
options = 1;
},
{
origin = "{1, 7}";
scale = "{0.7, 1}";
type = Corner;
name = _corner.Serif;
options = 1;
},
{
origin = "{1, 8}";
scale = "{-0.8, 1}";
type = Corner;
name = _corner.Serif;
},
{
origin = "{0, 5}";
scale = "{-0.9, 0.98}";
type = Corner;
name = _corner.Serif;
}
);
layerId = "AF891779-7DE6-4679-9CA2-17B922C1DF84";
paths = (
{
closed = 1;
nodes = (
"280 0 LINE",
"558 0 LINE",
"558 770 LINE",
"510 770 LINE",
"510 1160 LINE",
"280 1159 LINE"
);
},
{
closed = 1;
nodes = (
"558 684 LINE",
"558 902 OFFCURVE",
"676 974 OFFCURVE",
"806 974 CURVE SMOOTH",
"909 974 OFFCURVE",
"970 923 OFFCURVE",
"970 822 CURVE SMOOTH",
"970 0 LINE",
"1248 0 LINE",
"1248 844 LINE SMOOTH",
"1248 1080 OFFCURVE",
"1096 1180 OFFCURVE",
"884 1180 CURVE SMOOTH",
"590 1180 OFFCURVE",
"452 1007 OFFCURVE",
"452 684 CURVE"
);
}
);
width = 1468;
}
);
leftKerningGroup = n;
rightKerningGroup = n;
unicode = 006E;
},
{
glyphname = o;
lastChange = "2020-08-20 10:40:14 +0000";
layers = (
{
layerId = "CA54B7DC-FBBB-40FE-ACF3-AABDD76D6A7B";
paths = (
{
closed = 1;
nodes = (
"948 -16 OFFCURVE",
"1160 190 OFFCURVE",
"1160 550 CURVE SMOOTH",
"1160 910 OFFCURVE",
"948 1116 OFFCURVE",
"650 1116 CURVE SMOOTH",
"352 1116 OFFCURVE",
"140 910 OFFCURVE",
"140 550 CURVE SMOOTH",
"140 190 OFFCURVE",
"352 -16 OFFCURVE",
"650 -16 CURVE SMOOTH"
);
},
{
closed = 1;
nodes = (
"378 24 OFFCURVE",
"190 222 OFFCURVE",
"190 550 CURVE SMOOTH",
"190 878 OFFCURVE",
"378 1076 OFFCURVE",
"650 1076 CURVE SMOOTH",
"922 1076 OFFCURVE",
"1110 878 OFFCURVE",
"1110 550 CURVE SMOOTH",
"1110 222 OFFCURVE",
"922 24 OFFCURVE",
"650 24 CURVE SMOOTH"
);
}
);
width = 1300;
},
{
layerId = "1E61A082-F045-49A7-AB52-DD1B03FD9B54";
paths = (
{
closed = 1;
nodes = (
"932 -16 OFFCURVE",
"1144 186 OFFCURVE",
"1144 540 CURVE SMOOTH",
"1144 894 OFFCURVE",
"932 1096 OFFCURVE",
"634 1096 CURVE SMOOTH",
"336 1096 OFFCURVE",
"124 894 OFFCURVE",
"124 540 CURVE SMOOTH",
"124 186 OFFCURVE",
"336 -16 OFFCURVE",
"634 -16 CURVE SMOOTH"
);
},
{
closed = 1;
nodes = (
"362 24 OFFCURVE",
"174 218 OFFCURVE",
"174 540 CURVE SMOOTH",
"174 862 OFFCURVE",
"362 1056 OFFCURVE",
"634 1056 CURVE SMOOTH",
"906 1056 OFFCURVE",
"1094 862 OFFCURVE",
"1094 540 CURVE SMOOTH",
"1094 218 OFFCURVE",
"906 24 OFFCURVE",
"634 24 CURVE SMOOTH"
);
}
);
width = 1268;
},
{
layerId = "642E5713-E15A-4A7E-A28E-9A6B75A6585C";
paths = (
{
closed = 1;
nodes = (
"1052 -20 OFFCURVE",
"1302 190 OFFCURVE",
"1302 560 CURVE SMOOTH",
"1302 930 OFFCURVE",
"1052 1140 OFFCURVE",
"688 1140 CURVE SMOOTH",
"324 1140 OFFCURVE",
"74 930 OFFCURVE",
"74 560 CURVE SMOOTH",
"74 190 OFFCURVE",
"324 -20 OFFCURVE",
"688 -20 CURVE SMOOTH"
);
},
{
closed = 1;
nodes = (
"495 138 OFFCURVE",
"374 287 OFFCURVE",
"374 550 CURVE SMOOTH",
"374 825 OFFCURVE",
"495 986 OFFCURVE",
"688 986 CURVE SMOOTH",
"881 986 OFFCURVE",
"1002 829 OFFCURVE",
"1002 560 CURVE SMOOTH",
"1002 291 OFFCURVE",
"881 138 OFFCURVE",
"688 138 CURVE SMOOTH"
);
}
);
width = 1376;
},
{
layerId = "AF891779-7DE6-4679-9CA2-17B922C1DF84";
paths = (
{
closed = 1;
nodes = (
"1086 -20 OFFCURVE",
"1344 197 OFFCURVE",
"1344 580 CURVE SMOOTH",
"1344 963 OFFCURVE",
"1086 1180 OFFCURVE",
"724 1180 CURVE SMOOTH",
"362 1180 OFFCURVE",
"104 963 OFFCURVE",
"104 580 CURVE SMOOTH",
"104 197 OFFCURVE",
"362 -20 OFFCURVE",
"724 -20 CURVE SMOOTH"
);
},
{
closed = 1;
nodes = (
"529 164 OFFCURVE",
"404 315 OFFCURVE",
"404 570 CURVE SMOOTH",
"404 837 OFFCURVE",
"529 1000 OFFCURVE",
"724 1000 CURVE SMOOTH",
"919 1000 OFFCURVE",
"1044 841 OFFCURVE",
"1044 580 CURVE SMOOTH",
"1044 319 OFFCURVE",
"919 164 OFFCURVE",
"724 164 CURVE SMOOTH"
);
}
);
width = 1448;
}
);
leftKerningGroup = o;
rightKerningGroup = o;
unicode = 006F;
},
{
glyphname = p;
lastChange = "2020-08-20 10:40:17 +0000";
layers = (
{
hints = (
{
origin = "{0, 4}";
scale = "{-0.9, 1}";
type = Corner;
name = _corner.Serif;
},
{
origin = "{0, 5}";
type = Corner;
name = _corner.Serif;
options = 1;
},
{
origin = "{0, 6}";
scale = "{-1.2, 1}";
type = Corner;
name = _corner.Serif;
}
);
layerId = "CA54B7DC-FBBB-40FE-ACF3-AABDD76D6A7B";
paths = (
{
closed = 1;
nodes = (
"356 334 LINE",
"326 550 LINE",
"352 746 LINE",
"352 1100 LINE",
"308 1100 LINE",
"308 -380 LINE",
"356 -380 LINE"
);
},
{
closed = 1;
nodes = (
"1058 -16 OFFCURVE",
"1256 198 OFFCURVE",
"1256 550 CURVE SMOOTH",
"1256 902 OFFCURVE",
"1058 1116 OFFCURVE",
"784 1116 CURVE SMOOTH",
"490 1116 OFFCURVE",
"312 902 OFFCURVE",
"312 550 CURVE SMOOTH",
"312 198 OFFCURVE",
"490 -16 OFFCURVE",
"784 -16 CURVE SMOOTH"
);
},
{
closed = 1;
nodes = (
"532 24 OFFCURVE",
"352 220 OFFCURVE",
"352 550 CURVE SMOOTH",
"352 880 OFFCURVE",
"532 1076 OFFCURVE",
"784 1076 CURVE SMOOTH",
"1032 1076 OFFCURVE",
"1208 880 OFFCURVE",
"1208 550 CURVE SMOOTH",
"1208 220 OFFCURVE",
"1032 24 OFFCURVE",
"784 24 CURVE SMOOTH"
);
}
);
width = 1396;
},
{
hints = (
{
origin = "{0, 4}";
scale = "{-0.9, 1}";
type = Corner;
name = _corner.Serif;
options = 1;
},
{
origin = "{0, 5}";
type = Corner;
name = _corner.Serif;
},
{
origin = "{0, 6}";
scale = "{-1.4, 1}";
type = Corner;
name = _corner.Serif;
options = 1;
}
);
layerId = "1E61A082-F045-49A7-AB52-DD1B03FD9B54";
paths = (
{
closed = 1;
nodes = (
"322 324 LINE",
"292 540 LINE",
"318 736 LINE",
"318 1080 LINE",
"274 1080 LINE",
"274 -380 LINE",
"322 -380 LINE"
);
},
{
closed = 1;
nodes = (
"1024 -16 OFFCURVE",
"1222 194 OFFCURVE",
"1222 540 CURVE SMOOTH",
"1222 886 OFFCURVE",
"1024 1096 OFFCURVE",
"750 1096 CURVE SMOOTH",
"456 1096 OFFCURVE",
"278 886 OFFCURVE",
"278 540 CURVE SMOOTH",
"278 194 OFFCURVE",
"456 -16 OFFCURVE",
"750 -16 CURVE SMOOTH"
);
},
{
closed = 1;
nodes = (
"498 24 OFFCURVE",
"318 216 OFFCURVE",
"318 540 CURVE SMOOTH",
"318 864 OFFCURVE",
"498 1056 OFFCURVE",
"750 1056 CURVE SMOOTH",
"998 1056 OFFCURVE",
"1174 864 OFFCURVE",
"1174 540 CURVE SMOOTH",
"1174 216 OFFCURVE",
"998 24 OFFCURVE",
"750 24 CURVE SMOOTH"
);
}
);
width = 1346;
},
{
hints = (
{
origin = "{0, 4}";
scale = "{-0.9, 0.99}";
type = Corner;
name = _corner.Serif;
},
{
origin = "{0, 5}";
type = Corner;
name = _corner.Serif;
options = 1;
},
{
origin = "{0, 6}";
scale = "{-1.4, 1}";
type = Corner;
name = _corner.Serif;
}
);
layerId = "642E5713-E15A-4A7E-A28E-9A6B75A6585C";
paths = (
{
closed = 1;
nodes = (
"518 344 LINE",
"476 344 LINE",
"476 756 LINE",
"476 1120 LINE",
"240 1120 LINE",
"240 -380 LINE",
"518 -380 LINE"
);
},
{
closed = 1;
nodes = (
"1184 -16 OFFCURVE",
"1408 201 OFFCURVE",
"1408 560 CURVE SMOOTH",
"1408 919 OFFCURVE",
"1184 1136 OFFCURVE",
"866 1136 CURVE SMOOTH",
"550 1136 OFFCURVE",
"393 919 OFFCURVE",
"393 560 CURVE SMOOTH",
"393 201 OFFCURVE",
"550 -16 OFFCURVE",
"866 -16 CURVE SMOOTH"
);
},
{
closed = 1;
nodes = (
"625 152 OFFCURVE",
"504 300 OFFCURVE",
"504 560 CURVE SMOOTH",
"504 820 OFFCURVE",
"625 970 OFFCURVE",
"808 970 CURVE SMOOTH",
"987 970 OFFCURVE",
"1108 820 OFFCURVE",
"1108 560 CURVE SMOOTH",
"1108 300 OFFCURVE",
"987 152 OFFCURVE",
"808 152 CURVE SMOOTH"
);
}
);
width = 1482;
},
{
hints = (
{
origin = "{0, 4}";
scale = "{-0.9, 0.98}";
type = Corner;
name = _corner.Serif;
},
{
origin = "{0, 5}";
type = Corner;
name = _corner.Serif;
options = 1;
},
{
origin = "{0, 6}";
scale = "{-1.2, 1}";
type = Corner;
name = _corner.Serif;
}
);
layerId = "AF891779-7DE6-4679-9CA2-17B922C1DF84";
paths = (
{
closed = 1;
nodes = (
"534 344 LINE",
"460 580 LINE",
"492 756 LINE",
"492 1160 LINE",
"256 1160 LINE",
"256 -380 LINE",
"534 -380 LINE"
);
},
{
closed = 1;
nodes = (
"1200 -16 OFFCURVE",
"1432 209 OFFCURVE",
"1432 580 CURVE SMOOTH",
"1432 951 OFFCURVE",
"1200 1176 OFFCURVE",
"880 1176 CURVE SMOOTH",
"557 1176 OFFCURVE",
"402 951 OFFCURVE",
"402 580 CURVE SMOOTH",
"402 209 OFFCURVE",
"557 -16 OFFCURVE",
"880 -16 CURVE SMOOTH"
);
},
{
closed = 1;
nodes = (
"639 176 OFFCURVE",
"520 319 OFFCURVE",
"520 580 CURVE SMOOTH",
"520 841 OFFCURVE",
"639 988 OFFCURVE",
"828 988 CURVE SMOOTH",
"1013 988 OFFCURVE",
"1132 841 OFFCURVE",
"1132 580 CURVE SMOOTH",
"1132 319 OFFCURVE",
"1013 176 OFFCURVE",
"828 176 CURVE SMOOTH"
);
}
);
width = 1536;
}
);
leftKerningGroup = p;
leftMetricsKey = l;
rightKerningGroup = o;
rightMetricsKey = o;
unicode = 0070;
},
{
glyphname = q;
lastChange = "2020-08-20 10:43:39 +0000";
layers = (
{
hints = (
{
origin = "{0, 6}";
scale = "{1.2, 1}";
type = Corner;
name = _corner.Serif;
},
{
origin = "{0, 0}";
scale = "{-0.9, 1}";
type = Corner;
name = _corner.Serif;
options = 1;
}
);
layerId = "CA54B7DC-FBBB-40FE-ACF3-AABDD76D6A7B";
paths = (
{
closed = 1;
nodes = (
"1088 -380 LINE",
"1088 1100 LINE",
"1044 1100 LINE",
"1044 750 LINE",
"1070 550 LINE",
"1040 334 LINE",
"1040 -380 LINE"
);
},
{
closed = 1;
nodes = (
"906 -16 OFFCURVE",
"1084 198 OFFCURVE",
"1084 550 CURVE SMOOTH",
"1084 902 OFFCURVE",
"906 1116 OFFCURVE",
"612 1116 CURVE SMOOTH",
"338 1116 OFFCURVE",
"140 902 OFFCURVE",
"140 550 CURVE SMOOTH",
"140 198 OFFCURVE",
"338 -16 OFFCURVE",
"612 -16 CURVE SMOOTH"
);
},
{
closed = 1;
nodes = (
"364 24 OFFCURVE",
"188 220 OFFCURVE",
"188 550 CURVE SMOOTH",
"188 880 OFFCURVE",
"364 1076 OFFCURVE",
"612 1076 CURVE SMOOTH",
"864 1076 OFFCURVE",
"1044 880 OFFCURVE",
"1044 550 CURVE SMOOTH",
"1044 220 OFFCURVE",
"864 24 OFFCURVE",
"612 24 CURVE SMOOTH"
);
}
);
width = 1327;
},
{
hints = (
{
origin = "{0, 6}";
scale = "{1.4, 1}";
type = Corner;
name = _corner.Serif;
},
{
origin = "{0, 0}";
scale = "{-0.9, 1}";
type = Corner;
name = _corner.Serif;
options = 1;
}
);
layerId = "1E61A082-F045-49A7-AB52-DD1B03FD9B54";
paths = (
{
closed = 1;
nodes = (
"1072 -380 LINE",
"1072 1080 LINE",
"1028 1080 LINE",
"1028 740 LINE",
"1054 540 LINE",
"1024 324 LINE",
"1024 -380 LINE"
);
},
{
closed = 1;
nodes = (
"890 -16 OFFCURVE",
"1068 194 OFFCURVE",
"1068 540 CURVE SMOOTH",
"1068 886 OFFCURVE",
"890 1096 OFFCURVE",
"596 1096 CURVE SMOOTH",
"322 1096 OFFCURVE",
"124 886 OFFCURVE",
"124 540 CURVE SMOOTH",
"124 194 OFFCURVE",
"322 -16 OFFCURVE",
"596 -16 CURVE SMOOTH"
);
},
{
closed = 1;
nodes = (
"348 24 OFFCURVE",
"172 216 OFFCURVE",
"172 540 CURVE SMOOTH",
"172 864 OFFCURVE",
"348 1056 OFFCURVE",
"596 1056 CURVE SMOOTH",
"848 1056 OFFCURVE",
"1028 864 OFFCURVE",
"1028 540 CURVE SMOOTH",
"1028 216 OFFCURVE",
"848 24 OFFCURVE",
"596 24 CURVE SMOOTH"
);
}
);
width = 1291;
},
{
hints = (
{
origin = "{0, 6}";
scale = "{1.4, 1}";
type = Corner;
name = _corner.Serif;
},
{
origin = "{0, 0}";
scale = "{-0.9, 1}";
type = Corner;
name = _corner.Serif;
options = 1;
}
);
layerId = "642E5713-E15A-4A7E-A28E-9A6B75A6585C";
paths = (
{
closed = 1;
nodes = (
"1242 -380 LINE",
"1242 1120 LINE",
"1000 1120 LINE",
"1000 756 LINE",
"1038 560 LINE",
"964 344 LINE",
"964 -380 LINE"
);
},
{
closed = 1;
nodes = (
"932 -16 OFFCURVE",
"1089 201 OFFCURVE",
"1089 560 CURVE SMOOTH",
"1089 919 OFFCURVE",
"932 1136 OFFCURVE",
"616 1136 CURVE SMOOTH",
"298 1136 OFFCURVE",
"74 919 OFFCURVE",
"74 560 CURVE SMOOTH",
"74 201 OFFCURVE",
"298 -16 OFFCURVE",
"616 -16 CURVE SMOOTH"
);
},
{
closed = 1;
nodes = (
"495 152 OFFCURVE",
"374 300 OFFCURVE",
"374 560 CURVE SMOOTH",
"374 820 OFFCURVE",
"495 970 OFFCURVE",
"674 970 CURVE SMOOTH",
"857 970 OFFCURVE",
"978 820 OFFCURVE",
"978 560 CURVE SMOOTH",
"978 300 OFFCURVE",
"857 152 OFFCURVE",
"674 152 CURVE SMOOTH"
);
}
);
width = 1408;
},
{
hints = (
{
origin = "{0, 6}";
scale = "{1.2, 1}";
type = Corner;
name = _corner.Serif;
},
{
origin = "{0, 0}";
scale = "{-0.9, 1}";
type = Corner;
name = _corner.Serif;
options = 1;
}
);
layerId = "AF891779-7DE6-4679-9CA2-17B922C1DF84";
paths = (
{
closed = 1;
nodes = (
"1280 -380 LINE",
"1280 1160 LINE",
"1036 1160 LINE",
"1036 756 LINE",
"1076 580 LINE",
"1002 344 LINE",
"1002 -380 LINE"
);
},
{
closed = 1;
nodes = (
"979 -16 OFFCURVE",
"1134 209 OFFCURVE",
"1134 580 CURVE SMOOTH",
"1134 951 OFFCURVE",
"979 1176 OFFCURVE",
"656 1176 CURVE SMOOTH",
"336 1176 OFFCURVE",
"104 951 OFFCURVE",
"104 580 CURVE SMOOTH",
"104 209 OFFCURVE",
"336 -16 OFFCURVE",
"656 -16 CURVE SMOOTH"
);
},
{
closed = 1;
nodes = (
"523 176 OFFCURVE",
"404 319 OFFCURVE",
"404 580 CURVE SMOOTH",
"404 841 OFFCURVE",
"523 988 OFFCURVE",
"708 988 CURVE SMOOTH",
"897 988 OFFCURVE",
"1016 841 OFFCURVE",
"1016 580 CURVE SMOOTH",
"1016 319 OFFCURVE",
"897 176 OFFCURVE",
"708 176 CURVE SMOOTH"
);
}
);
width = 1474;
}
);
leftKerningGroup = o;
leftMetricsKey = o;
rightKerningGroup = q;
unicode = 0071;
},
{
glyphname = r;
lastChange = "2020-08-20 11:27:21 +0000";
layers = (
{
hints = (
{
origin = "{0, 5}";
scale = "{-0.9, 1}";
type = Corner;
name = _corner.Serif;
},
{
origin = "{0, 0}";
type = Corner;
name = _corner.Serif;
},
{
origin = "{0, 1}";
scale = "{-1.2, 1}";
type = Corner;
name = _corner.Serif;
options = 1;
}
);
layerId = "CA54B7DC-FBBB-40FE-ACF3-AABDD76D6A7B";
paths = (
{
closed = 1;
nodes = (
"334 0 LINE",
"382 0 LINE",
"382 730 LINE",
"374 730 LINE",
"374 1100 LINE",
"334 1100 LINE"
);
},
{
closed = 1;
nodes = (
"492 1114 OFFCURVE",
"348 940 OFFCURVE",
"348 644 CURVE",
"382 644 LINE",
"382 915 OFFCURVE",
"513 1074 OFFCURVE",
"724 1074 CURVE SMOOTH",
"852 1074 OFFCURVE",
"917 1012 OFFCURVE",
"911 899 CURVE SMOOTH",
"909 862 OFFCURVE",
"915 840 OFFCURVE",
"940 840 CURVE SMOOTH",
"970 840 OFFCURVE",
"974 863 OFFCURVE",
"974 908 CURVE SMOOTH",
"974 1041 OFFCURVE",
"870 1114 OFFCURVE",
"724 1114 CURVE SMOOTH"
);
}
);
width = 1070;
},
{
hints = (
{
origin = "{0, 5}";
scale = "{-0.9, 1}";
type = Corner;
name = _corner.Serif;
},
{
origin = "{0, 0}";
type = Corner;
name = _corner.Serif;
},
{
origin = "{0, 1}";
scale = "{-1.4, 1}";
type = Corner;
name = _corner.Serif;
options = 1;
}
);
layerId = "1E61A082-F045-49A7-AB52-DD1B03FD9B54";
paths = (
{
closed = 1;
nodes = (
"302 0 LINE",
"350 0 LINE",
"350 740 LINE",
"342 740 LINE",
"342 1080 LINE",
"302 1080 LINE"
);
},
{
closed = 1;
nodes = (
"447 1094 OFFCURVE",
"316 928 OFFCURVE",
"316 644 CURVE",
"350 644 LINE",
"350 907 OFFCURVE",
"475 1054 OFFCURVE",
"669 1054 CURVE SMOOTH",
"790 1054 OFFCURVE",
"859 988 OFFCURVE",
"851 875 CURVE SMOOTH",
"848 833 OFFCURVE",
"854 810 OFFCURVE",
"880 810 CURVE SMOOTH",
"905 810 OFFCURVE",
"915 835 OFFCURVE",
"915 882 CURVE SMOOTH",
"915 1025 OFFCURVE",
"813 1094 OFFCURVE",
"669 1094 CURVE SMOOTH"
);
}
);
width = 991;
},
{
hints = (
{
origin = "{0, 0}";
type = Corner;
name = _corner.Serif;
},
{
origin = "{0, 1}";
scale = "{-1.4, 1}";
type = Corner;
name = _corner.Serif;
options = 1;
},
{
origin = "{0, 5}";
scale = "{-0.9, 0.99}";
type = Corner;
name = _corner.Serif;
}
);
layerId = "642E5713-E15A-4A7E-A28E-9A6B75A6585C";
paths = (
{
closed = 1;
nodes = (
"258 0 LINE",
"536 0 LINE",
"536 800 LINE",
"486 800 LINE",
"486 1120 LINE",
"258 1119 LINE"
);
},
{
closed = 1;
nodes = (
"584 1135 OFFCURVE",
"456 1005 OFFCURVE",
"456 748 CURVE",
"536 748 LINE",
"536 883 OFFCURVE",
"587 958 OFFCURVE",
"674 959 CURVE SMOOTH",
"734 960 OFFCURVE",
"752 929 OFFCURVE",
"772 889 CURVE SMOOTH",
"794 845 OFFCURVE",
"826 809 OFFCURVE",
"893 809 CURVE SMOOTH",
"981 809 OFFCURVE",
"1038 876 OFFCURVE",
"1038 961 CURVE SMOOTH",
"1038 1065 OFFCURVE",
"949 1137 OFFCURVE",
"812 1136 CURVE SMOOTH"
);
}
);
width = 1062;
},
{
hints = (
{
origin = "{0, 0}";
type = Corner;
name = _corner.Serif;
},
{
origin = "{0, 1}";
scale = "{-1.2, 1}";
type = Corner;
name = _corner.Serif;
options = 1;
},
{
origin = "{0, 5}";
scale = "{-0.9, 0.98}";
type = Corner;
name = _corner.Serif;
}
);
layerId = "AF891779-7DE6-4679-9CA2-17B922C1DF84";
paths = (
{
closed = 1;
nodes = (
"280 0 LINE",
"558 0 LINE",
"558 840 LINE",
"510 840 LINE",
"510 1160 LINE",
"280 1159 LINE"
);
},
{
closed = 1;
nodes = (
"585 1178 OFFCURVE",
"468 1030 OFFCURVE",
"468 754 CURVE",
"558 754 LINE",
"558 909 OFFCURVE",
"618 992 OFFCURVE",
"699 992 CURVE SMOOTH",
"746 992 OFFCURVE",
"774 966 OFFCURVE",
"800 939 CURVE SMOOTH",
"833 904 OFFCURVE",
"872 879 OFFCURVE",
"928 879 CURVE SMOOTH",
"998 879 OFFCURVE",
"1056 921 OFFCURVE",
"1056 1013 CURVE SMOOTH",
"1056 1115 OFFCURVE",
"958 1178 OFFCURVE",
"818 1178 CURVE SMOOTH"
);
}
);
width = 1113;
}
);
leftKerningGroup = n;
leftMetricsKey = n;
rightKerningGroup = r;
unicode = 0072;
},
{
glyphname = s;
lastChange = "2020-08-20 10:41:34 +0000";
layers = (
{
layerId = "CA54B7DC-FBBB-40FE-ACF3-AABDD76D6A7B";
paths = (
{
closed = 1;
nodes = (
"184 663 OFFCURVE",
"340 598 OFFCURVE",
"514 556 CURVE SMOOTH",
"656 522 LINE SMOOTH",
"808 486 OFFCURVE",
"952 427 OFFCURVE",
"952 268 CURVE SMOOTH",
"952 112 OFFCURVE",
"838 24 OFFCURVE",
"648 24 CURVE SMOOTH",
"464 24 OFFCURVE",
"298 101 OFFCURVE",
"228 320 CURVE",
"192 320 LINE",
"254 75 OFFCURVE",
"440 -16 OFFCURVE",
"652 -16 CURVE SMOOTH",
"862 -16 OFFCURVE",
"1000 88 OFFCURVE",
"1000 268 CURVE SMOOTH",
"1000 458 OFFCURVE",
"831 524 OFFCURVE",
"664 565 CURVE SMOOTH",
"524 599 LINE SMOOTH",
"365 638 OFFCURVE",
"232 688 OFFCURVE",
"232 848 CURVE SMOOTH",
"232 998 OFFCURVE",
"344 1076 OFFCURVE",
"516 1076 CURVE SMOOTH",
"678 1076 OFFCURVE",
"856 1000 OFFCURVE",
"916 790 CURVE",
"952 790 LINE",
"898 1024 OFFCURVE",
"714 1116 OFFCURVE",
"516 1116 CURVE SMOOTH",
"316 1116 OFFCURVE",
"184 1018 OFFCURVE",
"184 848 CURVE SMOOTH"
);
},
{
closed = 1;
nodes = (
"916 1100 LINE",
"916 848 LINE",
"952 790 LINE",
"960 790 LINE",
"960 1100 LINE"
);
},
{
closed = 1;
nodes = (
"228 0 LINE",
"228 250 LINE",
"192 320 LINE",
"184 320 LINE",
"184 0 LINE"
);
}
);
width = 1170;
},
{
layerId = "1E61A082-F045-49A7-AB52-DD1B03FD9B54";
paths = (
{
closed = 1;
nodes = (
"154 661 OFFCURVE",
"293 590 OFFCURVE",
"484 546 CURVE SMOOTH",
"630 512 LINE SMOOTH",
"782 477 OFFCURVE",
"926 419 OFFCURVE",
"926 263 CURVE SMOOTH",
"926 110 OFFCURVE",
"814 24 OFFCURVE",
"622 24 CURVE SMOOTH",
"436 24 OFFCURVE",
"268 121 OFFCURVE",
"198 390 CURVE",
"162 390 LINE",
"221 95 OFFCURVE",
"412 -16 OFFCURVE",
"626 -16 CURVE SMOOTH",
"838 -16 OFFCURVE",
"974 86 OFFCURVE",
"974 263 CURVE SMOOTH",
"974 446 OFFCURVE",
"813 514 OFFCURVE",
"638 555 CURVE SMOOTH",
"494 589 LINE SMOOTH",
"350 623 OFFCURVE",
"202 669 OFFCURVE",
"202 833 CURVE SMOOTH",
"202 979 OFFCURVE",
"312 1056 OFFCURVE",
"486 1056 CURVE SMOOTH",
"650 1056 OFFCURVE",
"830 963 OFFCURVE",
"890 710 CURVE",
"926 710 LINE",
"872 986 OFFCURVE",
"686 1096 OFFCURVE",
"486 1096 CURVE SMOOTH",
"284 1096 OFFCURVE",
"154 1000 OFFCURVE",
"154 833 CURVE SMOOTH"
);
},
{
closed = 1;
nodes = (
"890 1080 LINE",
"890 768 LINE",
"926 710 LINE",
"934 710 LINE",
"934 1080 LINE"
);
},
{
closed = 1;
nodes = (
"198 0 LINE",
"198 320 LINE",
"162 390 LINE",
"154 390 LINE",
"154 0 LINE"
);
}
);
width = 1112;
},
{
layerId = "642E5713-E15A-4A7E-A28E-9A6B75A6585C";
paths = (
{
closed = 1;
nodes = (
"108 610 OFFCURVE",
"259 500 OFFCURVE",
"482 453 CURVE SMOOTH",
"634 421 LINE SMOOTH",
"739 399 OFFCURVE",
"810 365 OFFCURVE",
"810 273 CURVE SMOOTH",
"810 181 OFFCURVE",
"742 132 OFFCURVE",
"636 132 CURVE SMOOTH",
"518 132 OFFCURVE",
"355 217 OFFCURVE",
"284 440 CURVE",
"172 440 LINE",
"217 126 OFFCURVE",
"406 -20 OFFCURVE",
"656 -20 CURVE SMOOTH",
"884 -20 OFFCURVE",
"1040 112 OFFCURVE",
"1040 332 CURVE SMOOTH",
"1040 552 OFFCURVE",
"877 650 OFFCURVE",
"658 696 CURVE SMOOTH",
"506 728 LINE SMOOTH",
"401 750 OFFCURVE",
"336 784 OFFCURVE",
"336 868 CURVE SMOOTH",
"336 952 OFFCURVE",
"398 988 OFFCURVE",
"492 988 CURVE SMOOTH",
"596 988 OFFCURVE",
"753 917 OFFCURVE",
"826 716 CURVE",
"938 716 LINE",
"877 1025 OFFCURVE",
"686 1140 OFFCURVE",
"472 1140 CURVE SMOOTH",
"264 1140 OFFCURVE",
"108 1034 OFFCURVE",
"108 820 CURVE SMOOTH"
);
},
{
closed = 1;
nodes = (
"830 1120 LINE",
"830 824 LINE",
"938 716 LINE",
"988 716 LINE",
"988 1120 LINE"
);
},
{
closed = 1;
nodes = (
"280 0 LINE",
"280 300 LINE",
"172 440 LINE",
"122 440 LINE",
"122 0 LINE"
);
}
);
width = 1134;
},
{
layerId = "AF891779-7DE6-4679-9CA2-17B922C1DF84";
paths = (
{
closed = 1;
nodes = (
"142 625 OFFCURVE",
"318 520 OFFCURVE",
"581 456 CURVE SMOOTH",
"663 436 LINE SMOOTH",
"774 409 OFFCURVE",
"839 374 OFFCURVE",
"839 290 CURVE SMOOTH",
"839 206 OFFCURVE",
"776 152 OFFCURVE",
"658 152 CURVE SMOOTH",
"538 152 OFFCURVE",
"423 211 OFFCURVE",
"348 380 CURVE",
"214 380 LINE",
"285 103 OFFCURVE",
"456 -20 OFFCURVE",
"691 -20 CURVE SMOOTH",
"920 -20 OFFCURVE",
"1091 105 OFFCURVE",
"1091 341 CURVE SMOOTH",
"1091 574 OFFCURVE",
"899 663 OFFCURVE",
"645 726 CURVE SMOOTH",
"564 746 LINE SMOOTH",
"455 773 OFFCURVE",
"394 810 OFFCURVE",
"394 890 CURVE SMOOTH",
"394 970 OFFCURVE",
"457 1008 OFFCURVE",
"555 1008 CURVE SMOOTH",
"657 1008 OFFCURVE",
"781 964 OFFCURVE",
"847 815 CURVE",
"981 815 LINE",
"898 1082 OFFCURVE",
"740 1180 OFFCURVE",
"524 1180 CURVE SMOOTH",
"308 1180 OFFCURVE",
"142 1079 OFFCURVE",
"142 850 CURVE SMOOTH"
);
},
{
closed = 1;
nodes = (
"851 1159 LINE",
"851 923 LINE",
"981 815 LINE",
"1031 815 LINE",
"1031 1159 LINE"
);
},
{
closed = 1;
nodes = (
"344 0 LINE",
"344 240 LINE",
"214 380 LINE",
"164 380 LINE",
"164 0 LINE"
);
}
);
width = 1215;
}
);
leftKerningGroup = s;
rightKerningGroup = s;
unicode = 0073;
},
{
glyphname = t;
lastChange = "2020-08-20 10:45:13 +0000";
layers = (
{
layerId = "CA54B7DC-FBBB-40FE-ACF3-AABDD76D6A7B";
paths = (
{
closed = 1;
nodes = (
"331 1240 LINE SMOOTH",
"331 1128 OFFCURVE",
"323 1100 OFFCURVE",
"211 1100 CURVE SMOOTH",
"-2 1100 LINE",
"-2 1058 LINE",
"328 1058 LINE",
"328 298 LINE SMOOTH",
"328 87 OFFCURVE",
"421 -20 OFFCURVE",
"596 -20 CURVE SMOOTH",
"771 -20 OFFCURVE",
"864 89 OFFCURVE",
"864 298 CURVE SMOOTH",
"864 340 LINE",
"820 340 LINE",
"820 298 LINE SMOOTH",
"820 121 OFFCURVE",
"747 24 OFFCURVE",
"598 24 CURVE SMOOTH",
"449 24 OFFCURVE",
"376 119 OFFCURVE",
"376 298 CURVE SMOOTH",
"376 1400 LINE",
"331 1400 LINE"
);
},
{
closed = 1;
nodes = (
"376 1058 LINE",
"958 1058 LINE",
"958 1100 LINE",
"376 1100 LINE"
);
}
);
width = 1016;
},
{
layerId = "1E61A082-F045-49A7-AB52-DD1B03FD9B54";
paths = (
{
closed = 1;
nodes = (
"338 1220 LINE SMOOTH",
"338 1108 OFFCURVE",
"330 1080 OFFCURVE",
"218 1080 CURVE SMOOTH",
"-6 1080 LINE",
"-6 1040 LINE",
"334 1040 LINE",
"334 312 LINE SMOOTH",
"334 92 OFFCURVE",
"432 -20 OFFCURVE",
"616 -20 CURVE SMOOTH",
"800 -20 OFFCURVE",
"898 94 OFFCURVE",
"898 312 CURVE SMOOTH",
"898 590 LINE",
"854 590 LINE",
"854 312 LINE SMOOTH",
"854 126 OFFCURVE",
"776 24 OFFCURVE",
"618 24 CURVE SMOOTH",
"460 24 OFFCURVE",
"382 124 OFFCURVE",
"382 312 CURVE SMOOTH",
"382 1380 LINE",
"338 1380 LINE"
);
},
{
closed = 1;
nodes = (
"382 1040 LINE",
"978 1040 LINE",
"978 1080 LINE",
"382 1080 LINE"
);
}
);
width = 1036;
},
{
layerId = "642E5713-E15A-4A7E-A28E-9A6B75A6585C";
paths = (
{
closed = 1;
nodes = (
"414 1374 LINE SMOOTH",
"414 1185 OFFCURVE",
"336 1114 OFFCURVE",
"104 1114 CURVE SMOOTH",
"4 1114 LINE",
"4 962 LINE",
"304 962 LINE",
"304 320 LINE SMOOTH",
"304 102 OFFCURVE",
"425 -20 OFFCURVE",
"648 -20 CURVE SMOOTH",
"867 -20 OFFCURVE",
"984 104 OFFCURVE",
"984 320 CURVE SMOOTH",
"984 600 LINE",
"820 600 LINE",
"820 336 LINE SMOOTH",
"820 247 OFFCURVE",
"784 192 OFFCURVE",
"702 192 CURVE SMOOTH",
"620 192 OFFCURVE",
"584 246 OFFCURVE",
"584 336 CURVE SMOOTH",
"584 1400 LINE",
"414 1400 LINE"
);
},
{
closed = 1;
nodes = (
"584 962 LINE",
"1054 962 LINE",
"1054 1120 LINE",
"584 1120 LINE"
);
}
);
width = 1084;
},
{
layerId = "AF891779-7DE6-4679-9CA2-17B922C1DF84";
paths = (
{
closed = 1;
nodes = (
"372 1414 LINE SMOOTH",
"372 1225 OFFCURVE",
"302 1150 OFFCURVE",
"72 1150 CURVE SMOOTH",
"12 1150 LINE",
"12 980 LINE",
"288 980 LINE",
"288 334 LINE SMOOTH",
"288 112 OFFCURVE",
"404 -20 OFFCURVE",
"636 -20 CURVE SMOOTH",
"866 -20 OFFCURVE",
"982 114 OFFCURVE",
"982 334 CURVE SMOOTH",
"982 400 LINE",
"800 400 LINE",
"800 340 LINE SMOOTH",
"800 252 OFFCURVE",
"764 202 OFFCURVE",
"684 202 CURVE SMOOTH",
"604 202 OFFCURVE",
"568 252 OFFCURVE",
"568 340 CURVE SMOOTH",
"568 1440 LINE",
"372 1440 LINE"
);
},
{
closed = 1;
nodes = (
"568 980 LINE",
"1034 980 LINE",
"1034 1160 LINE",
"568 1160 LINE"
);
}
);
width = 1098;
}
);
leftKerningGroup = t;
rightKerningGroup = t;
unicode = 0074;
},
{
glyphname = u;
lastChange = "2020-08-20 10:40:52 +0000";
layers = (
{
hints = (
{
origin = "{1, 8}";
scale = "{-0.86, 1}";
type = Corner;
name = _corner.Serif;
},
{
origin = "{0, 1}";
scale = "{-0.9, 1}";
type = Corner;
name = _corner.Serif;
},
{
origin = "{0, 5}";
scale = "{-0.9, 1}";
type = Corner;
name = _corner.Serif;
}
);
layerId = "CA54B7DC-FBBB-40FE-ACF3-AABDD76D6A7B";
paths = (
{
closed = 1;
nodes = (
"1065 1100 LINE",
"1017 1100 LINE",
"1017 390 LINE",
"1025 390 LINE",
"1025 0 LINE",
"1065 0 LINE"
);
},
{
closed = 1;
nodes = (
"1017 548 LINE",
"1017 186 OFFCURVE",
"813 22 OFFCURVE",
"591 24 CURVE SMOOTH",
"421 26 OFFCURVE",
"321 100 OFFCURVE",
"321 278 CURVE",
"321 1102 LINE",
"273 1102 LINE",
"273 278 LINE",
"273 68 OFFCURVE",
"401 -14 OFFCURVE",
"589 -16 CURVE SMOOTH",
"833 -18 OFFCURVE",
"1055 146 OFFCURVE",
"1055 548 CURVE"
);
}
);
width = 1358;
},
{
hints = (
{
origin = "{0, 5}";
scale = "{-0.9, 1}";
type = Corner;
name = _corner.Serif;
},
{
origin = "{0, 1}";
scale = "{-0.9, 1}";
type = Corner;
name = _corner.Serif;
},
{
origin = "{1, 8}";
scale = "{-0.86, 1}";
type = Corner;
name = _corner.Serif;
}
);
layerId = "1E61A082-F045-49A7-AB52-DD1B03FD9B54";
paths = (
{
closed = 1;
nodes = (
"1034 1080 LINE",
"986 1080 LINE",
"986 380 LINE",
"994 380 LINE",
"994 0 LINE",
"1034 0 LINE"
);
},
{
closed = 1;
nodes = (
"986 538 LINE",
"986 183 OFFCURVE",
"782 22 OFFCURVE",
"560 24 CURVE SMOOTH",
"390 26 OFFCURVE",
"290 97 OFFCURVE",
"290 268 CURVE",
"290 1082 LINE",
"242 1082 LINE",
"242 268 LINE",
"242 65 OFFCURVE",
"370 -14 OFFCURVE",
"558 -16 CURVE SMOOTH",
"802 -18 OFFCURVE",
"1024 143 OFFCURVE",
"1024 538 CURVE"
);
}
);
width = 1295;
},
{
hints = (
{
origin = "{0, 1}";
scale = "{-0.9, 0.99}";
type = Corner;
name = _corner.Serif;
},
{
origin = "{1, 8}";
scale = "{-0.86, 0.99}";
type = Corner;
name = _corner.Serif;
},
{
origin = "{0, 5}";
scale = "{-0.9, 1}";
type = Corner;
name = _corner.Serif;
}
);
layerId = "642E5713-E15A-4A7E-A28E-9A6B75A6585C";
paths = (
{
closed = 1;
nodes = (
"1158 1120 LINE",
"880 1120 LINE",
"880 378 LINE",
"930 388 LINE",
"930 0 LINE",
"1158 0 LINE"
);
},
{
closed = 1;
nodes = (
"880 466 LINE",
"880 237 OFFCURVE",
"754 174 OFFCURVE",
"642 174 CURVE SMOOTH",
"542 174 OFFCURVE",
"484 226 OFFCURVE",
"484 324 CURVE SMOOTH",
"484 1120 LINE",
"206 1120 LINE",
"206 318 LINE SMOOTH",
"206 81 OFFCURVE",
"358 -20 OFFCURVE",
"566 -20 CURVE SMOOTH",
"811 -20 OFFCURVE",
"962 112 OFFCURVE",
"962 466 CURVE"
);
}
);
width = 1380;
},
{
hints = (
{
origin = "{0, 5}";
scale = "{-0.9, 1}";
type = Corner;
name = _corner.Serif;
},
{
origin = "{0, 1}";
scale = "{-0.9, 0.98}";
type = Corner;
name = _corner.Serif;
},
{
origin = "{1, 8}";
scale = "{-0.86, 0.98}";
type = Corner;
name = _corner.Serif;
}
);
layerId = "AF891779-7DE6-4679-9CA2-17B922C1DF84";
paths = (
{
closed = 1;
nodes = (
"1198 1160 LINE",
"920 1160 LINE",
"920 390 LINE",
"968 390 LINE",
"968 0 LINE",
"1198 0 LINE"
);
},
{
closed = 1;
nodes = (
"920 476 LINE",
"920 259 OFFCURVE",
"794 186 OFFCURVE",
"670 186 CURVE SMOOTH",
"567 186 OFFCURVE",
"504 237 OFFCURVE",
"504 338 CURVE SMOOTH",
"504 1160 LINE",
"226 1160 LINE",
"226 316 LINE SMOOTH",
"226 80 OFFCURVE",
"380 -20 OFFCURVE",
"592 -20 CURVE SMOOTH",
"884 -20 OFFCURVE",
"1024 153 OFFCURVE",
"1024 476 CURVE"
);
}
);
width = 1442;
}
);
leftKerningGroup = u;
rightKerningGroup = u;
rightMetricsKey = l;
unicode = 0075;
},
{
glyphname = v;
lastChange = "2020-08-20 10:42:31 +0000";
layers = (
{
hints = (
{
origin = "{0, 2}";
scale = "{0.6, 1}";
type = Corner;
name = _corner.Serif;
},
{
origin = "{0, 3}";
scale = "{-1.1, 1}";
type = Corner;
name = _corner.Serif;
options = 1;
},
{
origin = "{0, 6}";
scale = "{1.1, 1}";
type = Corner;
name = _corner.Serif;
},
{
origin = "{0, 7}";
scale = "{-0.6, 1}";
type = Corner;
name = _corner.Serif;
options = 1;
}
);
layerId = "CA54B7DC-FBBB-40FE-ACF3-AABDD76D6A7B";
paths = (
{
closed = 1;
nodes = (
"575 0 LINE",
"619 0 LINE",
"1034 1100 LINE",
"987 1100 LINE",
"591 45 LINE",
"607 45 LINE",
"211 1100 LINE",
"160 1100 LINE"
);
}
);
width = 1194;
},
{
hints = (
{
origin = "{0, 2}";
scale = "{0.6, 1}";
type = Corner;
name = _corner.Serif;
},
{
origin = "{0, 3}";
scale = "{-1.1, 1}";
type = Corner;
name = _corner.Serif;
options = 1;
},
{
origin = "{0, 6}";
scale = "{1.1, 1}";
type = Corner;
name = _corner.Serif;
},
{
origin = "{0, 7}";
scale = "{-0.6, 1}";
type = Corner;
name = _corner.Serif;
options = 1;
}
);
layerId = "1E61A082-F045-49A7-AB52-DD1B03FD9B54";
paths = (
{
closed = 1;
nodes = (
"565 0 LINE",
"607 0 LINE",
"1022 1080 LINE",
"977 1080 LINE",
"581 45 LINE",
"597 45 LINE",
"201 1080 LINE",
"150 1080 LINE"
);
}
);
width = 1172;
},
{
hints = (
{
origin = "{0, 2}";
scale = "{0.4, 0.99}";
type = Corner;
name = _corner.Serif;
},
{
origin = "{0, 3}";
scale = "{-1.25, 0.99}";
type = Corner;
name = _corner.Serif;
options = 1;
},
{
origin = "{0, 6}";
scale = "{1.25, 0.99}";
type = Corner;
name = _corner.Serif;
},
{
origin = "{0, 7}";
scale = "{-0.4, 0.99}";
type = Corner;
name = _corner.Serif;
options = 1;
}
);
layerId = "642E5713-E15A-4A7E-A28E-9A6B75A6585C";
paths = (
{
closed = 1;
nodes = (
"518 0 LINE",
"742 0 LINE",
"1166 1120 LINE",
"982 1120 LINE",
"634 193 LINE",
"724 192 LINE",
"394 1120 LINE",
"94 1120 LINE"
);
}
);
width = 1260;
},
{
hints = (
{
origin = "{0, 2}";
scale = "{0.4, 0.98}";
type = Corner;
name = _corner.Serif;
},
{
origin = "{0, 3}";
scale = "{-1.24, 0.98}";
type = Corner;
name = _corner.Serif;
options = 1;
},
{
origin = "{0, 6}";
scale = "{1.24, 0.98}";
type = Corner;
name = _corner.Serif;
},
{
origin = "{0, 7}";
scale = "{-0.4, 0.98}";
type = Corner;
name = _corner.Serif;
options = 1;
}
);
layerId = "AF891779-7DE6-4679-9CA2-17B922C1DF84";
paths = (
{
closed = 1;
nodes = (
"550 0 LINE",
"778 0 LINE",
"1212 1160 LINE",
"1009 1160 LINE",
"650 193 LINE",
"757 192 LINE",
"413 1160 LINE",
"116 1160 LINE"
);
}
);
width = 1328;
}
);
leftKerningGroup = v;
rightKerningGroup = v;
unicode = 0076;
},
{
glyphname = w;
lastChange = "2020-08-20 10:46:17 +0000";
layers = (
{
hints = (
{
origin = "{0, 2}";
scale = "{0.6, 1}";
type = Corner;
name = _corner.Serif;
},
{
origin = "{0, 3}";
scale = "{-1.1, 1}";
type = Corner;
name = _corner.Serif;
options = 1;
},
{
origin = "{0, 6}";
scale = "{1.1, 1}";
type = Corner;
name = _corner.Serif;
},
{
origin = "{0, 7}";
scale = "{-0.6, 1}";
type = Corner;
name = _corner.Serif;
options = 1;
},
{
origin = "{1, 6}";
scale = "{1.1, 1}";
type = Corner;
name = _corner.Serif;
},
{
origin = "{1, 7}";
scale = "{-0.6, 1}";
type = Corner;
name = _corner.Serif;
options = 1;
}
);
layerId = "CA54B7DC-FBBB-40FE-ACF3-AABDD76D6A7B";
paths = (
{
closed = 1;
nodes = (
"1052 0 LINE",
"1096 0 LINE",
"1428 1100 LINE",
"1382 1100 LINE",
"1067 49 LINE",
"1085 49 LINE",
"770 1100 LINE",
"720 1100 LINE"
);
},
{
closed = 1;
nodes = (
"492 0 LINE",
"536 0 LINE",
"809 904 LINE",
"781 962 LINE",
"507 49 LINE",
"525 49 LINE",
"210 1100 LINE",
"160 1100 LINE"
);
}
);
width = 1588;
},
{
hints = (
{
origin = "{0, 2}";
scale = "{0.6, 1}";
type = Corner;
name = _corner.Serif;
},
{
origin = "{0, 3}";
scale = "{-1.1, 1}";
type = Corner;
name = _corner.Serif;
options = 1;
},
{
origin = "{0, 6}";
scale = "{1.1, 1}";
type = Corner;
name = _corner.Serif;
},
{
origin = "{0, 7}";
scale = "{-0.6, 1}";
type = Corner;
name = _corner.Serif;
options = 1;
},
{
origin = "{1, 6}";
scale = "{1.1, 1}";
type = Corner;
name = _corner.Serif;
},
{
origin = "{1, 7}";
scale = "{-0.6, 1}";
type = Corner;
name = _corner.Serif;
options = 1;
}
);
layerId = "1E61A082-F045-49A7-AB52-DD1B03FD9B54";
paths = (
{
closed = 1;
nodes = (
"1042 0 LINE",
"1086 0 LINE",
"1418 1080 LINE",
"1374 1080 LINE",
"1059 49 LINE",
"1075 49 LINE",
"760 1080 LINE",
"710 1080 LINE"
);
},
{
closed = 1;
nodes = (
"482 0 LINE",
"526 0 LINE",
"801 895 LINE",
"778 961 LINE",
"499 49 LINE",
"515 49 LINE",
"200 1080 LINE",
"150 1080 LINE"
);
}
);
width = 1568;
},
{
hints = (
{
origin = "{0, 2}";
scale = "{0.4, 0.99}";
type = Corner;
name = _corner.Serif;
},
{
origin = "{0, 3}";
scale = "{-1.04, 0.99}";
type = Corner;
name = _corner.Serif;
options = 1;
},
{
origin = "{0, 6}";
scale = "{1.04, 0.99}";
type = Corner;
name = _corner.Serif;
},
{
origin = "{0, 7}";
scale = "{-0.39, 0.99}";
type = Corner;
name = _corner.Serif;
options = 1;
},
{
origin = "{1, 6}";
scale = "{0.9, 0.99}";
type = Corner;
name = _corner.Serif;
},
{
origin = "{1, 7}";
scale = "{-0.4, 0.99}";
type = Corner;
name = _corner.Serif;
options = 1;
}
);
layerId = "642E5713-E15A-4A7E-A28E-9A6B75A6585C";
paths = (
{
closed = 1;
nodes = (
"1101 0 LINE",
"1313 0 LINE",
"1684 1120 LINE",
"1509 1120 LINE",
"1205 193 LINE",
"1297 191 LINE",
"1002 1120 LINE",
"730 1120 LINE"
);
},
{
closed = 1;
nodes = (
"465 0 LINE",
"679 0 LINE",
"943 797 LINE",
"846 1019 LINE",
"575 193 LINE",
"673 191 LINE",
"379 1120 LINE",
"94 1120 LINE"
);
}
);
width = 1778;
},
{
hints = (
{
origin = "{0, 2}";
scale = "{0.4, 0.98}";
type = Corner;
name = _corner.Serif;
},
{
origin = "{0, 3}";
scale = "{-0.98, 0.98}";
type = Corner;
name = _corner.Serif;
options = 1;
},
{
origin = "{0, 6}";
scale = "{0.98, 0.98}";
type = Corner;
name = _corner.Serif;
},
{
origin = "{0, 7}";
scale = "{-0.22, 0.98}";
type = Corner;
name = _corner.Serif;
options = 1;
},
{
origin = "{1, 6}";
scale = "{0.88, 0.98}";
type = Corner;
name = _corner.Serif;
},
{
origin = "{1, 7}";
scale = "{-0.34, 0.98}";
type = Corner;
name = _corner.Serif;
options = 1;
}
);
layerId = "AF891779-7DE6-4679-9CA2-17B922C1DF84";
paths = (
{
closed = 1;
nodes = (
"1111 0 LINE",
"1324 0 LINE",
"1705 1160 LINE",
"1511 1160 LINE",
"1199 193 LINE",
"1295 191 LINE",
"1000 1160 LINE",
"730 1160 LINE"
);
},
{
closed = 1;
nodes = (
"486 0 LINE",
"705 0 LINE",
"977 830 LINE",
"860 1050 LINE",
"584 193 LINE",
"686 191 LINE",
"391 1160 LINE",
"105 1160 LINE"
);
}
);
width = 1821;
}
);
leftKerningGroup = w;
leftMetricsKey = v;
rightKerningGroup = w;
rightMetricsKey = v;
unicode = 0077;
},
{
glyphname = x;
lastChange = "2020-08-20 10:45:48 +0000";
layers = (
{
hints = (
{
origin = "{0, 2}";
scale = "{0.54, 1}";
type = Corner;
name = _corner.Serif;
},
{
origin = "{0, 3}";
scale = "{-1.06, 1}";
type = Corner;
name = _corner.Serif;
options = 1;
},
{
origin = "{0, 6}";
scale = "{1.06, 1}";
type = Corner;
name = _corner.Serif;
},
{
origin = "{0, 7}";
scale = "{-0.54, 1}";
type = Corner;
name = _corner.Serif;
options = 1;
},
{
origin = "{1, 6}";
scale = "{1.1, 1}";
type = Corner;
name = _corner.Serif;
},
{
origin = "{1, 3}";
scale = "{-1.1, 1}";
type = Corner;
name = _corner.Serif;
options = 1;
},
{
origin = "{1, 2}";
scale = "{0.6, 1}";
type = Corner;
name = _corner.Serif;
},
{
origin = "{1, 7}";
scale = "{-0.6, 1}";
type = Corner;
name = _corner.Serif;
options = 1;
}
);
layerId = "CA54B7DC-FBBB-40FE-ACF3-AABDD76D6A7B";
paths = (
{
closed = 1;
nodes = (
"633 542 LINE",
"665 542 LINE",
"1080 1100 LINE",
"1025 1100 LINE",
"632 567 LINE",
"671 567 LINE",
"278 1100 LINE",
"218 1100 LINE"
);
},
{
closed = 1;
nodes = (
"670 578 LINE",
"634 578 LINE",
"204 0 LINE",
"259 0 LINE",
"667 553 LINE",
"632 553 LINE",
"1040 0 LINE",
"1100 0 LINE"
);
}
);
width = 1304;
},
{
hints = (
{
origin = "{0, 2}";
scale = "{0.54, 1}";
type = Corner;
name = _corner.Serif;
},
{
origin = "{0, 3}";
scale = "{-1.06, 1}";
type = Corner;
name = _corner.Serif;
options = 1;
},
{
origin = "{0, 6}";
scale = "{1.06, 1}";
type = Corner;
name = _corner.Serif;
},
{
origin = "{0, 7}";
scale = "{-0.54, 1}";
type = Corner;
name = _corner.Serif;
options = 1;
},
{
origin = "{1, 2}";
scale = "{0.6, 1}";
type = Corner;
name = _corner.Serif;
},
{
origin = "{1, 3}";
scale = "{-1.1, 1}";
type = Corner;
name = _corner.Serif;
options = 1;
},
{
origin = "{1, 6}";
scale = "{1.1, 1}";
type = Corner;
name = _corner.Serif;
},
{
origin = "{1, 7}";
scale = "{-0.6, 1}";
type = Corner;
name = _corner.Serif;
options = 1;
}
);
layerId = "1E61A082-F045-49A7-AB52-DD1B03FD9B54";
paths = (
{
closed = 1;
nodes = (
"579 532 LINE",
"610 532 LINE",
"1021 1080 LINE",
"968 1080 LINE",
"579 557 LINE",
"617 557 LINE",
"228 1080 LINE",
"168 1080 LINE"
);
},
{
closed = 1;
nodes = (
"616 568 LINE",
"581 568 LINE",
"156 0 LINE",
"209 0 LINE",
"612 543 LINE",
"578 543 LINE",
"981 0 LINE",
"1041 0 LINE"
);
}
);
width = 1197;
},
{
hints = (
{
origin = "{0, 2}";
scale = "{0.02, 0.99}";
type = Corner;
name = _corner.Serif;
},
{
origin = "{0, 3}";
scale = "{-1.28, 0.99}";
type = Corner;
name = _corner.Serif;
options = 1;
},
{
origin = "{0, 6}";
scale = "{1.27, 0.99}";
type = Corner;
name = _corner.Serif;
},
{
origin = "{0, 7}";
scale = "{-0.02, 0.99}";
type = Corner;
name = _corner.Serif;
options = 1;
},
{
origin = "{1, 2}";
scale = "{0.06, 1}";
type = Corner;
name = _corner.Serif;
},
{
origin = "{1, 3}";
scale = "{-1.34, 1}";
type = Corner;
name = _corner.Serif;
options = 1;
},
{
origin = "{1, 6}";
scale = "{1.33, 1}";
type = Corner;
name = _corner.Serif;
},
{
origin = "{1, 7}";
scale = "{-0.06, 1}";
type = Corner;
name = _corner.Serif;
options = 1;
}
);
layerId = "642E5713-E15A-4A7E-A28E-9A6B75A6585C";
paths = (
{
closed = 1;
nodes = (
"491 512 LINE",
"716 512 LINE",
"1190 1120 LINE",
"982 1120 LINE",
"609 637 LINE",
"720 637 LINE",
"375 1120 LINE",
"42 1120 LINE"
);
},
{
closed = 1;
nodes = (
"757 624 LINE",
"538 624 LINE",
"52 0 LINE",
"260 0 LINE",
"646 499 LINE",
"528 499 LINE",
"885 0 LINE",
"1218 0 LINE"
);
}
);
width = 1264;
},
{
hints = (
{
origin = "{0, 2}";
scale = "{0.02, 0.98}";
type = Corner;
name = _corner.Serif;
},
{
origin = "{0, 3}";
scale = "{-1.31, 0.98}";
type = Corner;
name = _corner.Serif;
options = 1;
},
{
origin = "{0, 6}";
scale = "{1.3, 0.98}";
type = Corner;
name = _corner.Serif;
},
{
origin = "{0, 7}";
scale = "{-0.02, 0.98}";
type = Corner;
name = _corner.Serif;
options = 1;
},
{
origin = "{1, 2}";
scale = "{0.04, 1}";
type = Corner;
name = _corner.Serif;
},
{
origin = "{1, 3}";
scale = "{-1.36, 1}";
type = Corner;
name = _corner.Serif;
options = 1;
},
{
origin = "{1, 6}";
scale = "{1.37, 1}";
type = Corner;
name = _corner.Serif;
},
{
origin = "{1, 7}";
scale = "{-0.04, 1}";
type = Corner;
name = _corner.Serif;
options = 1;
}
);
layerId = "AF891779-7DE6-4679-9CA2-17B922C1DF84";
paths = (
{
closed = 1;
nodes = (
"531 532 LINE",
"772 532 LINE",
"1235 1160 LINE",
"1014 1160 LINE",
"646 657 LINE",
"750 657 LINE",
"397 1160 LINE",
"76 1160 LINE"
);
},
{
closed = 1;
nodes = (
"801 644 LINE",
"560 644 LINE",
"85 0 LINE",
"306 0 LINE",
"686 519 LINE",
"582 519 LINE",
"946 0 LINE",
"1267 0 LINE"
);
}
);
width = 1340;
}
);
leftKerningGroup = x;
rightKerningGroup = x;
unicode = 0078;
},
